<?xml version="1.0" encoding="UTF-8"?>
<svg version="1.1" xmlns="http://www.w3.org/2000/svg" width="512" height="512">
<path d="M0 0 C63.36 0 126.72 0 192 0 C192 10.23 192 20.46 192 31 C213.12 31 234.24 31 256 31 C256 41.56 256 52.12 256 63 C266.56 63 277.12 63 288 63 C288 73.56 288 84.12 288 95 C298.89 95 309.78 95 321 95 C321 158.36 321 221.72 321 287 C310.11 287 299.22 287 288 287 C288 297.56 288 308.12 288 319 C277.44 319 266.88 319 256 319 C256 329.56 256 340.12 256 351 C234.88 351 213.76 351 192 351 C192 361.89 192 372.78 192 384 C128.64 384 65.28 384 0 384 C0 373.11 0 362.22 0 351 C-21.12 351 -42.24 351 -64 351 C-64 340.44 -64 329.88 -64 319 C-74.56 319 -85.12 319 -96 319 C-96 308.44 -96 297.88 -96 287 C-106.23 287 -116.46 287 -127 287 C-127 223.64 -127 160.28 -127 95 C-116.77 95 -106.54 95 -96 95 C-96 84.44 -96 73.88 -96 63 C-85.44 63 -74.88 63 -64 63 C-64 52.44 -64 41.88 -64 31 C-42.88 31 -21.76 31 0 31 C0 20.77 0 10.54 0 0 Z " fill="#2F2F2F" transform="translate(159,64)"/>
<path d="M0 0 C63.36 0 126.72 0 192 0 C192 10.23 192 20.46 192 31 C213.12 31 234.24 31 256 31 C256 41.56 256 52.12 256 63 C266.56 63 277.12 63 288 63 C288 84.12 288 105.24 288 127 C277.44 127 266.88 127 256 127 C256 116.44 256 105.88 256 95 C234.88 95 213.76 95 192 95 C192 84.44 192 73.88 192 63 C128.64 63 65.28 63 0 63 C0 73.56 0 84.12 0 95 C-21.12 95 -42.24 95 -64 95 C-64 105.56 -64 116.12 -64 127 C-74.56 127 -85.12 127 -96 127 C-96 105.88 -96 84.76 -96 63 C-85.44 63 -74.88 63 -64 63 C-64 52.44 -64 41.88 -64 31 C-42.88 31 -21.76 31 0 31 C0 20.77 0 10.54 0 0 Z " fill="#858585" transform="translate(159,64)"/>
<path d="M0 0 C10.56 0 21.12 0 32 0 C32 10.56 32 21.12 32 32 C53.12 32 74.24 32 96 32 C96 42.56 96 53.12 96 64 C148.8 64 201.6 64 256 64 C256 85.12 256 106.24 256 128 C182.08 128 108.16 128 32 128 C32 117.44 32 106.88 32 96 C21.44 96 10.88 96 0 96 C0 64.32 0 32.64 0 0 Z " fill="#7F7F7F" transform="translate(63,287)"/>
<path d="M0 0 C10.56 0 21.12 0 32 0 C32 31.68 32 63.36 32 96 C21.44 96 10.88 96 0 96 C0 106.56 0 117.12 0 128 C-21.12 128 -42.24 128 -64 128 C-64 138.89 -64 149.78 -64 161 C-127.36 161 -190.72 161 -256 161 C-256 150.11 -256 139.22 -256 128 C-203.2 128 -150.4 128 -96 128 C-96 106.88 -96 85.76 -96 64 C-85.44 64 -74.88 64 -64 64 C-64 53.44 -64 42.88 -64 32 C-42.88 32 -21.76 32 0 32 C0 21.44 0 10.88 0 0 Z " fill="#636363" transform="translate(415,287)"/>
<path d="M0 0 C10.89 0 21.78 0 33 0 C33 63.36 33 126.72 33 192 C22.11 192 11.22 192 0 192 C0 170.88 0 149.76 0 128 C-10.56 128 -21.12 128 -32 128 C-32 117.44 -32 106.88 -32 96 C-21.44 96 -10.88 96 0 96 C0 64.32 0 32.64 0 0 Z " fill="#1F1402" transform="translate(447,159)"/>
<path d="M0 0 C63.36 0 126.72 0 192 0 C192 10.89 192 21.78 192 33 C128.64 33 65.28 33 0 33 C0 22.11 0 11.22 0 0 Z " fill="#1F1402" transform="translate(159,415)"/>
<path d="M0 0 C63.36 0 126.72 0 192 0 C192 10.56 192 21.12 192 32 C128.64 32 65.28 32 0 32 C0 21.44 0 10.88 0 0 Z " fill="#161616" transform="translate(159,319)"/>
<path d="M0 0 C21.12 0 42.24 0 64 0 C64 10.56 64 21.12 64 32 C53.44 32 42.88 32 32 32 C32 42.56 32 53.12 32 64 C21.44 64 10.88 64 0 64 C0 74.56 0 85.12 0 96 C-21.12 96 -42.24 96 -64 96 C-64 85.44 -64 74.88 -64 64 C-53.44 64 -42.88 64 -32 64 C-32 53.44 -32 42.88 -32 32 C-21.44 32 -10.88 32 0 32 C0 21.44 0 10.88 0 0 Z " fill="#FF1313" transform="translate(319,159)"/>
<path d="M0 0 C21.12 0 42.24 0 64 0 C64 21.12 64 42.24 64 64 C42.88 64 21.76 64 0 64 C0 74.56 0 85.12 0 96 C-10.56 96 -21.12 96 -32 96 C-32 74.88 -32 53.76 -32 32 C-21.44 32 -10.88 32 0 32 C0 21.44 0 10.88 0 0 Z " fill="#636363" transform="translate(95,95)"/>
<path d="M0 0 C10.23 0 20.46 0 31 0 C31 63.36 31 126.72 31 192 C20.77 192 10.54 192 0 192 C0 128.64 0 65.28 0 0 Z " fill="#373737" transform="translate(32,159)"/>
<path d="M0 0 C63.36 0 126.72 0 192 0 C192 10.23 192 20.46 192 31 C128.64 31 65.28 31 0 31 C0 20.77 0 10.54 0 0 Z " fill="#373737" transform="translate(159,64)"/>
<path d="M0 0 C10.56 0 21.12 0 32 0 C32 31.68 32 63.36 32 96 C21.44 96 10.88 96 0 96 C0 64.32 0 32.64 0 0 Z " fill="#7F7F7F" transform="translate(63,287)"/>
<path d="M0 0 C21.12 0 42.24 0 64 0 C64 10.56 64 21.12 64 32 C42.88 32 21.76 32 0 32 C0 21.44 0 10.88 0 0 Z " fill="#1F1402" transform="translate(351,383)"/>
<path d="M0 0 C21.12 0 42.24 0 64 0 C64 10.56 64 21.12 64 32 C42.88 32 21.76 32 0 32 C0 21.44 0 10.88 0 0 Z " fill="#1F1402" transform="translate(95,383)"/>
<path d="M0 0 C10.56 0 21.12 0 32 0 C32 21.12 32 42.24 32 64 C21.44 64 10.88 64 0 64 C0 42.88 0 21.76 0 0 Z " fill="#C0C0C0" transform="translate(95,319)"/>
<path d="M0 0 C21.12 0 42.24 0 64 0 C64 10.56 64 21.12 64 32 C42.88 32 21.76 32 0 32 C0 21.44 0 10.88 0 0 Z " fill="#161616" transform="translate(351,287)"/>
<path d="M0 0 C21.12 0 42.24 0 64 0 C64 10.56 64 21.12 64 32 C42.88 32 21.76 32 0 32 C0 21.44 0 10.88 0 0 Z " fill="#161616" transform="translate(95,287)"/>
<path d="M0 0 C10.56 0 21.12 0 32 0 C32 21.12 32 42.24 32 64 C21.44 64 10.88 64 0 64 C0 42.88 0 21.76 0 0 Z " fill="#646464" transform="translate(223,223)"/>
<path d="M0 0 C10.56 0 21.12 0 32 0 C32 21.12 32 42.24 32 64 C21.44 64 10.88 64 0 64 C0 42.88 0 21.76 0 0 Z " fill="#858585" transform="translate(415,127)"/>
<path d="M0 0 C21.12 0 42.24 0 64 0 C64 10.56 64 21.12 64 32 C42.88 32 21.76 32 0 32 C0 21.44 0 10.88 0 0 Z " fill="#AAAAAA" transform="translate(351,127)"/>
<path d="M0 0 C21.12 0 42.24 0 64 0 C64 10.56 64 21.12 64 32 C42.88 32 21.76 32 0 32 C0 21.44 0 10.88 0 0 Z " fill="#373737" transform="translate(351,95)"/>
<path d="M0 0 C21.12 0 42.24 0 64 0 C64 10.56 64 21.12 64 32 C42.88 32 21.76 32 0 32 C0 21.44 0 10.88 0 0 Z " fill="#373737" transform="translate(95,95)"/>
<path d="M0 0 C10.56 0 21.12 0 32 0 C32 10.56 32 21.12 32 32 C21.44 32 10.88 32 0 32 C0 21.44 0 10.88 0 0 Z " fill="#1F1402" transform="translate(415,351)"/>
<path d="M0 0 C10.56 0 21.12 0 32 0 C32 10.56 32 21.12 32 32 C21.44 32 10.88 32 0 32 C0 21.44 0 10.88 0 0 Z " fill="#1F1402" transform="translate(63,351)"/>
<path d="M0 0 C10.56 0 21.12 0 32 0 C32 10.56 32 21.12 32 32 C21.44 32 10.88 32 0 32 C0 21.44 0 10.88 0 0 Z " fill="#161616" transform="translate(415,255)"/>
<path d="M0 0 C10.56 0 21.12 0 32 0 C32 10.56 32 21.12 32 32 C21.44 32 10.88 32 0 32 C0 21.44 0 10.88 0 0 Z " fill="#161616" transform="translate(63,255)"/>
<path d="M0 0 C10.56 0 21.12 0 32 0 C32 10.56 32 21.12 32 32 C21.44 32 10.88 32 0 32 C0 21.44 0 10.88 0 0 Z " fill="#636363" transform="translate(63,159)"/>
<path d="M0 0 C10.56 0 21.12 0 32 0 C32 10.56 32 21.12 32 32 C21.44 32 10.88 32 0 32 C0 21.44 0 10.88 0 0 Z " fill="#373737" transform="translate(415,127)"/>
<path d="M0 0 C10.56 0 21.12 0 32 0 C32 10.56 32 21.12 32 32 C21.44 32 10.88 32 0 32 C0 21.44 0 10.88 0 0 Z " fill="#858585" transform="translate(351,127)"/>
<path d="M0 0 C10.56 0 21.12 0 32 0 C32 10.56 32 21.12 32 32 C21.44 32 10.88 32 0 32 C0 21.44 0 10.88 0 0 Z " fill="#373737" transform="translate(63,127)"/>
<path d="M0 0 C10.56 0 21.12 0 32 0 C32 10.56 32 21.12 32 32 C21.44 32 10.88 32 0 32 C0 21.44 0 10.88 0 0 Z " fill="#636363" transform="translate(159,95)"/>
</svg>
