<?xml version="1.0" encoding="UTF-8"?>
<svg version="1.1" xmlns="http://www.w3.org/2000/svg" width="512" height="512">
<path d="M0 0 C95.04 0 190.08 0 288 0 C288 10.23 288 20.46 288 31 C298.56 31 309.12 31 320 31 C320 41.56 320 52.12 320 63 C341.12 63 362.24 63 384 63 C384 73.56 384 84.12 384 95 C394.89 95 405.78 95 417 95 C417 105.56 417 116.12 417 127 C384.99 127 352.98 127 320 127 C320 169.24 320 211.48 320 255 C330.56 255 341.12 255 352 255 C352 244.44 352 233.88 352 223 C362.56 223 373.12 223 384 223 C384 254.68 384 286.36 384 319 C394.89 319 405.78 319 417 319 C417 340.12 417 361.24 417 383 C384.99 383 352.98 383 320 383 C320 425.57 320 468.14 320 512 C298.88 512 277.76 512 256 512 C256 469.43 256 426.86 256 383 C182.08 383 108.16 383 32 383 C32 425.57 32 468.14 32 512 C10.88 512 -10.24 512 -32 512 C-32 384.95 -32 257.9 -32 127 C-52.79 127 -73.58 127 -95 127 C-95 116.44 -95 105.88 -95 95 C-84.77 95 -74.54 95 -64 95 C-64 84.44 -64 73.88 -64 63 C-53.44 63 -42.88 63 -32 63 C-32 52.44 -32 41.88 -32 31 C-21.44 31 -10.88 31 0 31 C0 20.77 0 10.54 0 0 Z M96 127 C96 158.68 96 190.36 96 223 C127.68 223 159.36 223 192 223 C192 191.32 192 159.64 192 127 C160.32 127 128.64 127 96 127 Z M320 287 C320 297.56 320 308.12 320 319 C330.56 319 341.12 319 352 319 C352 308.44 352 297.88 352 287 C341.44 287 330.88 287 320 287 Z " fill="#43331D" transform="translate(95,0)"/>
<path d="M0 0 C21.12 0 42.24 0 64 0 C64 31.68 64 63.36 64 96 C95.68 96 127.36 96 160 96 C160 64.32 160 32.64 160 0 C202.24 0 244.48 0 288 0 C288 42.24 288 84.48 288 128 C298.56 128 309.12 128 320 128 C320 117.44 320 106.88 320 96 C330.56 96 341.12 96 352 96 C352 127.68 352 159.36 352 192 C362.89 192 373.78 192 385 192 C385 213.12 385 234.24 385 256 C352.99 256 320.98 256 288 256 C288 298.57 288 341.14 288 385 C266.88 385 245.76 385 224 385 C224 321.31 224 257.62 224 192 C234.56 192 245.12 192 256 192 C256 170.88 256 149.76 256 128 C234.88 128 213.76 128 192 128 C192 149.12 192 170.24 192 192 C181.44 192 170.88 192 160 192 C160 202.56 160 213.12 160 224 C149.44 224 138.88 224 128 224 C128 213.44 128 202.88 128 192 C85.76 192 43.52 192 0 192 C0 181.44 0 170.88 0 160 C10.56 160 21.12 160 32 160 C32 149.44 32 138.88 32 128 C21.44 128 10.88 128 0 128 C0 85.76 0 43.52 0 0 Z M288 160 C288 170.56 288 181.12 288 192 C298.56 192 309.12 192 320 192 C320 181.44 320 170.88 320 160 C309.44 160 298.88 160 288 160 Z " fill="#4D3B22" transform="translate(127,127)"/>
<path d="M0 0 C95.04 0 190.08 0 288 0 C288 10.23 288 20.46 288 31 C298.56 31 309.12 31 320 31 C320 41.56 320 52.12 320 63 C235.52 63 151.04 63 64 63 C64 73.56 64 84.12 64 95 C21.76 95 -20.48 95 -64 95 C-64 84.44 -64 73.88 -64 63 C-53.44 63 -42.88 63 -32 63 C-32 52.44 -32 41.88 -32 31 C-21.44 31 -10.88 31 0 31 C0 20.77 0 10.54 0 0 Z " fill="#4A381E" transform="translate(95,0)"/>
<path d="M0 0 C10.56 0 21.12 0 32 0 C32 31.68 32 63.36 32 96 C42.89 96 53.78 96 65 96 C65 117.12 65 138.24 65 160 C32.99 160 0.98 160 -32 160 C-32 138.88 -32 117.76 -32 96 C-21.44 96 -10.88 96 0 96 C0 85.44 0 74.88 0 64 C-10.56 64 -21.12 64 -32 64 C-32 53.44 -32 42.88 -32 32 C-21.44 32 -10.88 32 0 32 C0 21.44 0 10.88 0 0 Z " fill="#4D3A20" transform="translate(447,223)"/>
<path d="M0 0 C10.56 0 21.12 0 32 0 C32 31.68 32 63.36 32 96 C21.44 96 10.88 96 0 96 C0 85.44 0 74.88 0 64 C-10.56 64 -21.12 64 -32 64 C-32 53.44 -32 42.88 -32 32 C-21.44 32 -10.88 32 0 32 C0 21.44 0 10.88 0 0 Z " fill="#8E724B" transform="translate(447,223)"/>
<path d="M0 0 C21.12 0 42.24 0 64 0 C64 21.12 64 42.24 64 64 C42.88 64 21.76 64 0 64 C0 42.88 0 21.76 0 0 Z " fill="#554125" transform="translate(287,127)"/>
<path d="M0 0 C10.56 0 21.12 0 32 0 C32 21.45 32 42.9 32 65 C21.44 65 10.88 65 0 65 C0 43.55 0 22.1 0 0 Z " fill="#4B3C24" transform="translate(351,447)"/>
<path d="M0 0 C21.45 0 42.9 0 65 0 C65 10.56 65 21.12 65 32 C43.55 32 22.1 32 0 32 C0 21.44 0 10.88 0 0 Z " fill="#45341C" transform="translate(447,351)"/>
<path d="M0 0 C10.56 0 21.12 0 32 0 C32 21.12 32 42.24 32 64 C21.44 64 10.88 64 0 64 C0 42.88 0 21.76 0 0 Z " fill="#4B3C24" transform="translate(63,415)"/>
<path d="M0 0 C10.56 0 21.12 0 32 0 C32 21.12 32 42.24 32 64 C21.44 64 10.88 64 0 64 C0 42.88 0 21.76 0 0 Z " fill="#4B3C24" transform="translate(383,127)"/>
<path d="M0 0 C10.56 0 21.12 0 32 0 C32 21.12 32 42.24 32 64 C21.44 64 10.88 64 0 64 C0 42.88 0 21.76 0 0 Z " fill="#4B3C24" transform="translate(63,127)"/>
<path d="M0 0 C10.56 0 21.12 0 32 0 C32 10.56 32 21.12 32 32 C21.44 32 10.88 32 0 32 C0 21.44 0 10.88 0 0 Z " fill="#46351D" transform="translate(127,255)"/>
<path d="M0 0 C10.56 0 21.12 0 32 0 C32 10.56 32 21.12 32 32 C21.44 32 10.88 32 0 32 C0 21.44 0 10.88 0 0 Z " fill="#46351D" transform="translate(223,223)"/>
<path d="M0 0 C10.56 0 21.12 0 32 0 C32 10.56 32 21.12 32 32 C21.44 32 10.88 32 0 32 C0 21.44 0 10.88 0 0 Z " fill="#4D3A20" transform="translate(287,191)"/>
</svg>
