<?xml version="1.0" encoding="UTF-8"?>
<svg version="1.1" xmlns="http://www.w3.org/2000/svg" width="512" height="512">
<path d="M0 0 C42.24 0 84.48 0 128 0 C128 31.35 128 62.7 128 95 C159.68 95 191.36 95 224 95 C224 116.12 224 137.24 224 159 C245.12 159 266.24 159 288 159 C288 180.12 288 201.24 288 223 C298.89 223 309.78 223 321 223 C321 276.13 321 329.26 321 384 C299.55 384 278.1 384 256 384 C256 351.99 256 319.98 256 287 C245.44 287 234.88 287 224 287 C224 319.01 224 351.02 224 384 C192.32 384 160.64 384 128 384 C128 351.99 128 319.98 128 287 C96.32 287 64.64 287 32 287 C32 319.01 32 351.02 32 384 C0.32 384 -31.36 384 -64 384 C-64 351.99 -64 319.98 -64 287 C-74.56 287 -85.12 287 -96 287 C-96 319.01 -96 351.02 -96 384 C-127.35 384 -158.7 384 -191 384 C-191 330.87 -191 277.74 -191 223 C-170.21 223 -149.42 223 -128 223 C-128 201.88 -128 180.76 -128 159 C-106.88 159 -85.76 159 -64 159 C-64 137.88 -64 116.76 -64 95 C-42.88 95 -21.76 95 0 95 C0 63.65 0 32.3 0 0 Z M32 31 C32 52.12 32 73.24 32 95 C53.12 95 74.24 95 96 95 C96 73.88 96 52.76 96 31 C74.88 31 53.76 31 32 31 Z " fill="#58948B" transform="translate(191,64)"/>
<path d="M0 0 C31.68 0 63.36 0 96 0 C96 21.12 96 42.24 96 64 C117.12 64 138.24 64 160 64 C160 85.12 160 106.24 160 128 C170.89 128 181.78 128 193 128 C193 181.13 193 234.26 193 289 C171.55 289 150.1 289 128 289 C128 256.99 128 224.98 128 192 C117.44 192 106.88 192 96 192 C96 224.01 96 256.02 96 289 C64.32 289 32.64 289 0 289 C0 256.99 0 224.98 0 192 C-31.68 192 -63.36 192 -96 192 C-96 181.44 -96 170.88 -96 160 C-117.12 160 -138.24 160 -160 160 C-160 128.32 -160 96.64 -160 64 C-149.44 64 -138.88 64 -128 64 C-128 53.44 -128 42.88 -128 32 C-117.44 32 -106.88 32 -96 32 C-96 42.56 -96 53.12 -96 64 C-74.88 64 -53.76 64 -32 64 C-32 85.12 -32 106.24 -32 128 C-21.44 128 -10.88 128 0 128 C0 117.44 0 106.88 0 96 C21.12 96 42.24 96 64 96 C64 85.44 64 74.88 64 64 C42.88 64 21.76 64 0 64 C0 42.88 0 21.76 0 0 Z " fill="#4F8C83" transform="translate(319,159)"/>
<path d="M0 0 C10.56 0 21.12 0 32 0 C32 10.56 32 21.12 32 32 C53.45 32 74.9 32 97 32 C97 85.13 97 138.26 97 193 C75.55 193 54.1 193 32 193 C32 160.99 32 128.98 32 96 C21.44 96 10.88 96 0 96 C0 128.01 0 160.02 0 193 C-31.68 193 -63.36 193 -96 193 C-96 171.55 -96 150.1 -96 128 C-85.44 128 -74.88 128 -64 128 C-64 117.44 -64 106.88 -64 96 C-53.44 96 -42.88 96 -32 96 C-32 74.88 -32 53.76 -32 32 C-21.44 32 -10.88 32 0 32 C0 21.44 0 10.88 0 0 Z " fill="#539087" transform="translate(415,255)"/>
<path d="M0 0 C42.24 0 84.48 0 128 0 C128 52.47 128 104.94 128 159 C149.12 159 170.24 159 192 159 C192 169.56 192 180.12 192 191 C170.88 191 149.76 191 128 191 C128 201.56 128 212.12 128 223 C117.44 223 106.88 223 96 223 C96 201.88 96 180.76 96 159 C74.88 159 53.76 159 32 159 C32 148.44 32 137.88 32 127 C42.56 127 53.12 127 64 127 C64 116.44 64 105.88 64 95 C74.56 95 85.12 95 96 95 C96 73.88 96 52.76 96 31 C64.32 31 32.64 31 0 31 C0 20.77 0 10.54 0 0 Z " fill="#57A498" transform="translate(191,64)"/>
<path d="M0 0 C31.35 0 62.7 0 95 0 C95 32.01 95 64.02 95 97 C63.65 97 32.3 97 0 97 C0 64.99 0 32.98 0 0 Z " fill="#58948B" transform="translate(0,351)"/>
<path d="M0 0 C10.56 0 21.12 0 32 0 C32 21.12 32 42.24 32 64 C42.56 64 53.12 64 64 64 C64 74.56 64 85.12 64 96 C21.76 96 -20.48 96 -64 96 C-64 85.44 -64 74.88 -64 64 C-42.88 64 -21.76 64 0 64 C0 42.88 0 21.76 0 0 Z " fill="#58948B" transform="translate(191,95)"/>
<path d="M0 0 C10.56 0 21.12 0 32 0 C32 32.01 32 64.02 32 97 C10.88 97 -10.24 97 -32 97 C-32 75.55 -32 54.1 -32 32 C-21.44 32 -10.88 32 0 32 C0 21.44 0 10.88 0 0 Z " fill="#58948B" transform="translate(351,351)"/>
<path d="M0 0 C21.12 0 42.24 0 64 0 C64 21.12 64 42.24 64 64 C42.88 64 21.76 64 0 64 C0 42.88 0 21.76 0 0 Z " fill="#45847B" transform="translate(319,159)"/>
<path d="M0 0 C20.79 0 41.58 0 63 0 C63 21.12 63 42.24 63 64 C42.21 64 21.42 64 0 64 C0 42.88 0 21.76 0 0 Z " fill="#4D8B82" transform="translate(0,287)"/>
<path d="M0 0 C42.24 0 84.48 0 128 0 C128 10.23 128 20.46 128 31 C85.76 31 43.52 31 0 31 C0 20.77 0 10.54 0 0 Z " fill="#58948B" transform="translate(191,64)"/>
<path d="M0 0 C10.56 0 21.12 0 32 0 C32 32.01 32 64.02 32 97 C21.44 97 10.88 97 0 97 C0 64.99 0 32.98 0 0 Z " fill="#356860" transform="translate(383,351)"/>
<path d="M0 0 C10.56 0 21.12 0 32 0 C32 32.01 32 64.02 32 97 C21.44 97 10.88 97 0 97 C0 64.99 0 32.98 0 0 Z " fill="#356860" transform="translate(191,351)"/>
<path d="M0 0 C10.56 0 21.12 0 32 0 C32 32.01 32 64.02 32 97 C21.44 97 10.88 97 0 97 C0 64.99 0 32.98 0 0 Z " fill="#356860" transform="translate(63,351)"/>
<path d="M0 0 C10.56 0 21.12 0 32 0 C32 10.56 32 21.12 32 32 C42.56 32 53.12 32 64 32 C64 42.56 64 53.12 64 64 C42.88 64 21.76 64 0 64 C0 42.88 0 21.76 0 0 Z " fill="#45847B" transform="translate(159,255)"/>
<path d="M0 0 C10.56 0 21.12 0 32 0 C32 10.56 32 21.12 32 32 C42.56 32 53.12 32 64 32 C64 42.56 64 53.12 64 64 C42.88 64 21.76 64 0 64 C0 42.88 0 21.76 0 0 Z " fill="#45847B" transform="translate(63,287)"/>
<path d="M0 0 C10.89 0 21.78 0 33 0 C33 21.45 33 42.9 33 65 C22.11 65 11.22 65 0 65 C0 43.55 0 22.1 0 0 Z " fill="#58948B" transform="translate(479,383)"/>
<path d="M0 0 C10.56 0 21.12 0 32 0 C32 21.45 32 42.9 32 65 C21.44 65 10.88 65 0 65 C0 43.55 0 22.1 0 0 Z " fill="#45847B" transform="translate(447,383)"/>
<path d="M0 0 C10.56 0 21.12 0 32 0 C32 21.45 32 42.9 32 65 C21.44 65 10.88 65 0 65 C0 43.55 0 22.1 0 0 Z " fill="#45847B" transform="translate(31,383)"/>
<path d="M0 0 C21.12 0 42.24 0 64 0 C64 10.56 64 21.12 64 32 C42.88 32 21.76 32 0 32 C0 21.44 0 10.88 0 0 Z " fill="#274034" transform="translate(223,319)"/>
<path d="M0 0 C21.12 0 42.24 0 64 0 C64 10.56 64 21.12 64 32 C42.88 32 21.76 32 0 32 C0 21.44 0 10.88 0 0 Z " fill="#57A498" transform="translate(223,287)"/>
<path d="M0 0 C10.56 0 21.12 0 32 0 C32 21.12 32 42.24 32 64 C21.44 64 10.88 64 0 64 C0 42.88 0 21.76 0 0 Z " fill="#41746C" transform="translate(447,223)"/>
<path d="M0 0 C21.12 0 42.24 0 64 0 C64 10.56 64 21.12 64 32 C42.88 32 21.76 32 0 32 C0 21.44 0 10.88 0 0 Z " fill="#4D8B82" transform="translate(63,255)"/>
<path d="M0 0 C21.12 0 42.24 0 64 0 C64 10.56 64 21.12 64 32 C42.88 32 21.76 32 0 32 C0 21.44 0 10.88 0 0 Z " fill="#274034" transform="translate(223,223)"/>
<path d="M0 0 C21.12 0 42.24 0 64 0 C64 10.56 64 21.12 64 32 C42.88 32 21.76 32 0 32 C0 21.44 0 10.88 0 0 Z " fill="#57A498" transform="translate(63,223)"/>
<path d="M0 0 C21.12 0 42.24 0 64 0 C64 10.56 64 21.12 64 32 C42.88 32 21.76 32 0 32 C0 21.44 0 10.88 0 0 Z " fill="#4D8B82" transform="translate(127,191)"/>
<path d="M0 0 C10.56 0 21.12 0 32 0 C32 21.12 32 42.24 32 64 C21.44 64 10.88 64 0 64 C0 42.88 0 21.76 0 0 Z " fill="#356860" transform="translate(383,159)"/>
<path d="M0 0 C21.12 0 42.24 0 64 0 C64 10.56 64 21.12 64 32 C42.88 32 21.76 32 0 32 C0 21.44 0 10.88 0 0 Z " fill="#4D8B82" transform="translate(319,159)"/>
<path d="M0 0 C21.12 0 42.24 0 64 0 C64 10.56 64 21.12 64 32 C42.88 32 21.76 32 0 32 C0 21.44 0 10.88 0 0 Z " fill="#57A498" transform="translate(127,159)"/>
<path d="M0 0 C10.56 0 21.12 0 32 0 C32 21.12 32 42.24 32 64 C21.44 64 10.88 64 0 64 C0 42.88 0 21.76 0 0 Z " fill="#58948B" transform="translate(287,95)"/>
<path d="M0 0 C20.79 0 41.58 0 63 0 C63 10.56 63 21.12 63 32 C42.21 32 21.42 32 0 32 C0 21.44 0 10.88 0 0 Z " fill="#57A498" transform="translate(0,287)"/>
<path d="M0 0 C10.56 0 21.12 0 32 0 C32 10.89 32 21.78 32 33 C21.44 33 10.88 33 0 33 C0 22.11 0 11.22 0 0 Z " fill="#45847B" transform="translate(127,415)"/>
<path d="M0 0 C10.56 0 21.12 0 32 0 C32 10.56 32 21.12 32 32 C21.44 32 10.88 32 0 32 C0 21.44 0 10.88 0 0 Z " fill="#45847B" transform="translate(127,351)"/>
<path d="M0 0 C10.56 0 21.12 0 32 0 C32 10.56 32 21.12 32 32 C21.44 32 10.88 32 0 32 C0 21.44 0 10.88 0 0 Z " fill="#45847B" transform="translate(415,319)"/>
<path d="M0 0 C10.56 0 21.12 0 32 0 C32 10.56 32 21.12 32 32 C21.44 32 10.88 32 0 32 C0 21.44 0 10.88 0 0 Z " fill="#45847B" transform="translate(351,319)"/>
<path d="M0 0 C10.56 0 21.12 0 32 0 C32 10.56 32 21.12 32 32 C21.44 32 10.88 32 0 32 C0 21.44 0 10.88 0 0 Z " fill="#274034" transform="translate(287,287)"/>
<path d="M0 0 C10.56 0 21.12 0 32 0 C32 10.56 32 21.12 32 32 C21.44 32 10.88 32 0 32 C0 21.44 0 10.88 0 0 Z " fill="#274034" transform="translate(191,287)"/>
<path d="M0 0 C10.56 0 21.12 0 32 0 C32 10.56 32 21.12 32 32 C21.44 32 10.88 32 0 32 C0 21.44 0 10.88 0 0 Z " fill="#274034" transform="translate(319,255)"/>
<path d="M0 0 C10.56 0 21.12 0 32 0 C32 10.56 32 21.12 32 32 C21.44 32 10.88 32 0 32 C0 21.44 0 10.88 0 0 Z " fill="#57A498" transform="translate(287,255)"/>
<path d="M0 0 C10.56 0 21.12 0 32 0 C32 10.56 32 21.12 32 32 C21.44 32 10.88 32 0 32 C0 21.44 0 10.88 0 0 Z " fill="#45847B" transform="translate(255,255)"/>
<path d="M0 0 C10.56 0 21.12 0 32 0 C32 10.56 32 21.12 32 32 C21.44 32 10.88 32 0 32 C0 21.44 0 10.88 0 0 Z " fill="#57A498" transform="translate(191,255)"/>
<path d="M0 0 C10.56 0 21.12 0 32 0 C32 10.56 32 21.12 32 32 C21.44 32 10.88 32 0 32 C0 21.44 0 10.88 0 0 Z " fill="#274034" transform="translate(159,255)"/>
<path d="M0 0 C10.56 0 21.12 0 32 0 C32 10.56 32 21.12 32 32 C21.44 32 10.88 32 0 32 C0 21.44 0 10.88 0 0 Z " fill="#356860" transform="translate(447,223)"/>
<path d="M0 0 C10.56 0 21.12 0 32 0 C32 10.56 32 21.12 32 32 C21.44 32 10.88 32 0 32 C0 21.44 0 10.88 0 0 Z " fill="#58948B" transform="translate(351,223)"/>
<path d="M0 0 C10.56 0 21.12 0 32 0 C32 10.56 32 21.12 32 32 C21.44 32 10.88 32 0 32 C0 21.44 0 10.88 0 0 Z " fill="#57A498" transform="translate(319,223)"/>
<path d="M0 0 C10.56 0 21.12 0 32 0 C32 10.56 32 21.12 32 32 C21.44 32 10.88 32 0 32 C0 21.44 0 10.88 0 0 Z " fill="#45847B" transform="translate(287,223)"/>
<path d="M0 0 C10.56 0 21.12 0 32 0 C32 10.56 32 21.12 32 32 C21.44 32 10.88 32 0 32 C0 21.44 0 10.88 0 0 Z " fill="#57A498" transform="translate(159,223)"/>
<path d="M0 0 C10.56 0 21.12 0 32 0 C32 10.56 32 21.12 32 32 C21.44 32 10.88 32 0 32 C0 21.44 0 10.88 0 0 Z " fill="#58948B" transform="translate(287,191)"/>
<path d="M0 0 C10.56 0 21.12 0 32 0 C32 10.56 32 21.12 32 32 C21.44 32 10.88 32 0 32 C0 21.44 0 10.88 0 0 Z " fill="#58948B" transform="translate(223,159)"/>
<path d="M0 0 C10.56 0 21.12 0 32 0 C32 10.56 32 21.12 32 32 C21.44 32 10.88 32 0 32 C0 21.44 0 10.88 0 0 Z " fill="#45847B" transform="translate(191,159)"/>
<path d="M0 0 C10.56 0 21.12 0 32 0 C32 10.56 32 21.12 32 32 C21.44 32 10.88 32 0 32 C0 21.44 0 10.88 0 0 Z " fill="#45847B" transform="translate(287,95)"/>
<path d="M0 0 C10.56 0 21.12 0 32 0 C32 10.23 32 20.46 32 31 C21.44 31 10.88 31 0 31 C0 20.77 0 10.54 0 0 Z " fill="#FFFFFF" transform="translate(287,64)"/>
<path d="M0 0 C10.56 0 21.12 0 32 0 C32 10.23 32 20.46 32 31 C21.44 31 10.88 31 0 31 C0 20.77 0 10.54 0 0 Z " fill="#45847B" transform="translate(255,64)"/>
<path d="M0 0 C10.56 0 21.12 0 32 0 C32 10.23 32 20.46 32 31 C21.44 31 10.88 31 0 31 C0 20.77 0 10.54 0 0 Z " fill="#FFFFFF" transform="translate(191,64)"/>
</svg>
