<?xml version="1.0" encoding="UTF-8"?>
<svg version="1.1" xmlns="http://www.w3.org/2000/svg" width="512" height="512">
<path d="M0 0 C168.96 0 337.92 0 512 0 C512 168.96 512 337.92 512 512 C343.04 512 174.08 512 0 512 C0 343.04 0 174.08 0 0 Z " fill="#C6AE71" transform="translate(0,0)"/>
<path d="M0 0 C158.07 0 316.14 0 479 0 C479 21.12 479 42.24 479 64 C468.44 64 457.88 64 447 64 C447 53.44 447 42.88 447 32 C415.32 32 383.64 32 351 32 C351 42.56 351 53.12 351 64 C372.12 64 393.24 64 415 64 C415 85.12 415 106.24 415 128 C425.56 128 436.12 128 447 128 C447 138.56 447 149.12 447 160 C299.49 160 151.98 160 0 160 C0 107.2 0 54.4 0 0 Z " fill="#D9CFA0" transform="translate(0,319)"/>
<path d="M0 0 C105.6 0 211.2 0 320 0 C320 52.8 320 105.6 320 160 C277.76 160 235.52 160 192 160 C192 170.56 192 181.12 192 192 C76.17 192 -39.66 192 -159 192 C-159 181.44 -159 170.88 -159 160 C-95.97 160 -32.94 160 32 160 C32 138.88 32 117.76 32 96 C42.56 96 53.12 96 64 96 C64 85.44 64 74.88 64 64 C42.88 64 21.76 64 0 64 C0 42.88 0 21.76 0 0 Z " fill="#DAD2A3" transform="translate(159,127)"/>
<path d="M0 0 C158.07 0 316.14 0 479 0 C479 10.56 479 21.12 479 32 C373.4 32 267.8 32 159 32 C159 53.12 159 74.24 159 96 C180.12 96 201.24 96 223 96 C223 106.56 223 117.12 223 128 C212.44 128 201.88 128 191 128 C191 149.12 191 170.24 191 192 C127.97 192 64.94 192 0 192 C0 128.64 0 65.28 0 0 Z " fill="#DAD2A3" transform="translate(0,95)"/>
<path d="M0 0 C168.96 0 337.92 0 512 0 C512 20.79 512 41.58 512 63 C343.04 63 174.08 63 0 63 C0 42.21 0 21.42 0 0 Z " fill="#DAD2A3" transform="translate(0,0)"/>
<path d="M0 0 C158.07 0 316.14 0 479 0 C479 21.12 479 42.24 479 64 C468.44 64 457.88 64 447 64 C447 53.44 447 42.88 447 32 C415.32 32 383.64 32 351 32 C351 42.56 351 53.12 351 64 C319.32 64 287.64 64 255 64 C255 53.44 255 42.88 255 32 C233.88 32 212.76 32 191 32 C191 42.56 191 53.12 191 64 C169.88 64 148.76 64 127 64 C127 53.44 127 42.88 127 32 C95.32 32 63.64 32 31 32 C31 74.24 31 116.48 31 160 C20.77 160 10.54 160 0 160 C0 107.2 0 54.4 0 0 Z " fill="#E6E2B9" transform="translate(0,319)"/>
<path d="M0 0 C63.36 0 126.72 0 192 0 C192 21.12 192 42.24 192 64 C170.88 64 149.76 64 128 64 C128 74.56 128 85.12 128 96 C138.56 96 149.12 96 160 96 C160 117.12 160 138.24 160 160 C149.44 160 138.88 160 128 160 C128 149.44 128 138.88 128 128 C106.88 128 85.76 128 64 128 C64 138.56 64 149.12 64 160 C53.44 160 42.88 160 32 160 C32 138.88 32 117.76 32 96 C42.56 96 53.12 96 64 96 C64 85.44 64 74.88 64 64 C42.88 64 21.76 64 0 64 C0 42.88 0 21.76 0 0 Z " fill="#DAD2A3" transform="translate(159,127)"/>
<path d="M0 0 C158.07 0 316.14 0 479 0 C479 10.56 479 21.12 479 32 C331.16 32 183.32 32 31 32 C31 42.56 31 53.12 31 64 C20.77 64 10.54 64 0 64 C0 42.88 0 21.76 0 0 Z " fill="#E7E4BB" transform="translate(0,95)"/>
<path d="M0 0 C168.96 0 337.92 0 512 0 C512 10.23 512 20.46 512 31 C343.04 31 174.08 31 0 31 C0 20.77 0 10.54 0 0 Z " fill="#E7E4BB" transform="translate(0,0)"/>
<path d="M0 0 C10.56 0 21.12 0 32 0 C32 10.56 32 21.12 32 32 C53.12 32 74.24 32 96 32 C96 21.44 96 10.88 96 0 C117.12 0 138.24 0 160 0 C160 10.56 160 21.12 160 32 C191.68 32 223.36 32 256 32 C256 53.12 256 74.24 256 96 C245.44 96 234.88 96 224 96 C224 85.44 224 74.88 224 64 C202.88 64 181.76 64 160 64 C160 74.56 160 85.12 160 96 C149.44 96 138.88 96 128 96 C128 85.44 128 74.88 128 64 C96.32 64 64.64 64 32 64 C32 74.56 32 85.12 32 96 C21.44 96 10.88 96 0 96 C0 85.44 0 74.88 0 64 C-10.56 64 -21.12 64 -32 64 C-32 53.44 -32 42.88 -32 32 C-21.44 32 -10.88 32 0 32 C0 21.44 0 10.88 0 0 Z " fill="#D1BB8C" transform="translate(95,351)"/>
<path d="M0 0 C21.12 0 42.24 0 64 0 C64 10.56 64 21.12 64 32 C85.12 32 106.24 32 128 32 C128 42.56 128 53.12 128 64 C12.17 64 -103.66 64 -223 64 C-223 53.44 -223 42.88 -223 32 C-149.41 32 -75.82 32 0 32 C0 21.44 0 10.88 0 0 Z " fill="#D1BA8A" transform="translate(223,255)"/>
<path d="M0 0 C136.95 0 273.9 0 415 0 C415 10.56 415 21.12 415 32 C278.05 32 141.1 32 0 32 C0 21.44 0 10.88 0 0 Z " fill="#D1BA8A" transform="translate(0,63)"/>
<path d="M0 0 C115.83 0 231.66 0 351 0 C351 10.89 351 21.78 351 33 C235.17 33 119.34 33 0 33 C0 22.11 0 11.22 0 0 Z " fill="#D1BA8A" transform="translate(0,479)"/>
<path d="M0 0 C21.12 0 42.24 0 64 0 C64 52.8 64 105.6 64 160 C42.88 160 21.76 160 0 160 C0 138.88 0 117.76 0 96 C10.56 96 21.12 96 32 96 C32 85.44 32 74.88 32 64 C21.44 64 10.88 64 0 64 C0 42.88 0 21.76 0 0 Z " fill="#D5C496" transform="translate(415,127)"/>
<path d="M0 0 C31.68 0 63.36 0 96 0 C96 10.56 96 21.12 96 32 C106.56 32 117.12 32 128 32 C128 63.68 128 95.36 128 128 C117.44 128 106.88 128 96 128 C96 117.44 96 106.88 96 96 C85.44 96 74.88 96 64 96 C64 74.88 64 53.76 64 32 C42.88 32 21.76 32 0 32 C0 21.44 0 10.88 0 0 Z " fill="#D7CB9C" transform="translate(351,351)"/>
<path d="M0 0 C21.12 0 42.24 0 64 0 C64 10.56 64 21.12 64 32 C74.56 32 85.12 32 96 32 C96 53.12 96 74.24 96 96 C85.44 96 74.88 96 64 96 C64 85.44 64 74.88 64 64 C42.88 64 21.76 64 0 64 C0 74.56 0 85.12 0 96 C-10.56 96 -21.12 96 -32 96 C-32 74.88 -32 53.76 -32 32 C-21.44 32 -10.88 32 0 32 C0 21.44 0 10.88 0 0 Z " fill="#C6AE71" transform="translate(223,191)"/>
<path d="M0 0 C84.15 0 168.3 0 255 0 C255 10.23 255 20.46 255 31 C170.85 31 86.7 31 0 31 C0 20.77 0 10.54 0 0 Z " fill="#EDEBCB" transform="translate(0,0)"/>
<path d="M0 0 C63.03 0 126.06 0 191 0 C191 10.56 191 21.12 191 32 C138.2 32 85.4 32 31 32 C31 42.56 31 53.12 31 64 C20.77 64 10.54 64 0 64 C0 42.88 0 21.76 0 0 Z " fill="#EDEBCB" transform="translate(0,95)"/>
<path d="M0 0 C21.12 0 42.24 0 64 0 C64 10.56 64 21.12 64 32 C53.44 32 42.88 32 32 32 C32 63.68 32 95.36 32 128 C21.44 128 10.88 128 0 128 C0 85.76 0 43.52 0 0 Z " fill="#DAD2A3" transform="translate(31,351)"/>
<path d="M0 0 C10.23 0 20.46 0 31 0 C31 31.68 31 63.36 31 96 C41.56 96 52.12 96 63 96 C63 106.56 63 117.12 63 128 C42.21 128 21.42 128 0 128 C0 85.76 0 43.52 0 0 Z " fill="#E3DDB2" transform="translate(0,159)"/>
<path d="M0 0 C31.68 0 63.36 0 96 0 C96 21.12 96 42.24 96 64 C85.44 64 74.88 64 64 64 C64 53.44 64 42.88 64 32 C42.88 32 21.76 32 0 32 C0 21.44 0 10.88 0 0 Z " fill="#C6AE71" transform="translate(351,351)"/>
<path d="M0 0 C21.12 0 42.24 0 64 0 C64 21.12 64 42.24 64 64 C42.88 64 21.76 64 0 64 C0 42.88 0 21.76 0 0 Z " fill="#C6AE71" transform="translate(287,127)"/>
<path d="M0 0 C21.12 0 42.24 0 64 0 C64 21.12 64 42.24 64 64 C42.88 64 21.76 64 0 64 C0 42.88 0 21.76 0 0 Z " fill="#C6AE71" transform="translate(159,127)"/>
<path d="M0 0 C10.56 0 21.12 0 32 0 C32 10.56 32 21.12 32 32 C42.56 32 53.12 32 64 32 C64 42.56 64 53.12 64 64 C42.88 64 21.76 64 0 64 C0 42.88 0 21.76 0 0 Z " fill="#E3DBB0" transform="translate(63,415)"/>
<path d="M0 0 C31.68 0 63.36 0 96 0 C96 10.56 96 21.12 96 32 C64.32 32 32.64 32 0 32 C0 21.44 0 10.88 0 0 Z " fill="#D1BA8A" transform="translate(127,383)"/>
<path d="M0 0 C31.68 0 63.36 0 96 0 C96 10.56 96 21.12 96 32 C64.32 32 32.64 32 0 32 C0 21.44 0 10.88 0 0 Z " fill="#DAD2A3" transform="translate(255,351)"/>
<path d="M0 0 C21.12 0 42.24 0 64 0 C64 10.56 64 21.12 64 32 C53.44 32 42.88 32 32 32 C32 42.56 32 53.12 32 64 C21.44 64 10.88 64 0 64 C0 42.88 0 21.76 0 0 Z " fill="#E3DBB0" transform="translate(63,191)"/>
<path d="M0 0 C31.35 0 62.7 0 95 0 C95 10.56 95 21.12 95 32 C63.65 32 32.3 32 0 32 C0 21.44 0 10.88 0 0 Z " fill="#D3BF90" transform="translate(0,63)"/>
<path d="M0 0 C21.12 0 42.24 0 64 0 C64 10.56 64 21.12 64 32 C42.88 32 21.76 32 0 32 C0 21.44 0 10.88 0 0 Z " fill="#DAD2A3" transform="translate(255,415)"/>
<path d="M0 0 C21.12 0 42.24 0 64 0 C64 10.56 64 21.12 64 32 C42.88 32 21.76 32 0 32 C0 21.44 0 10.88 0 0 Z " fill="#E3DBB0" transform="translate(351,383)"/>
<path d="M0 0 C21.12 0 42.24 0 64 0 C64 10.56 64 21.12 64 32 C42.88 32 21.76 32 0 32 C0 21.44 0 10.88 0 0 Z " fill="#C6AE71" transform="translate(191,351)"/>
<path d="M0 0 C21.12 0 42.24 0 64 0 C64 10.56 64 21.12 64 32 C42.88 32 21.76 32 0 32 C0 21.44 0 10.88 0 0 Z " fill="#DAD2A3" transform="translate(127,351)"/>
<path d="M0 0 C10.56 0 21.12 0 32 0 C32 21.12 32 42.24 32 64 C21.44 64 10.88 64 0 64 C0 42.88 0 21.76 0 0 Z " fill="#E3DBB0" transform="translate(447,319)"/>
<path d="M0 0 C21.12 0 42.24 0 64 0 C64 10.56 64 21.12 64 32 C42.88 32 21.76 32 0 32 C0 21.44 0 10.88 0 0 Z " fill="#E3DBB0" transform="translate(223,255)"/>
<path d="M0 0 C21.12 0 42.24 0 64 0 C64 10.56 64 21.12 64 32 C42.88 32 21.76 32 0 32 C0 21.44 0 10.88 0 0 Z " fill="#E3DBB0" transform="translate(127,255)"/>
<path d="M0 0 C21.12 0 42.24 0 64 0 C64 10.56 64 21.12 64 32 C42.88 32 21.76 32 0 32 C0 21.44 0 10.88 0 0 Z " fill="#E3DBB0" transform="translate(287,191)"/>
<path d="M0 0 C21.12 0 42.24 0 64 0 C64 10.56 64 21.12 64 32 C42.88 32 21.76 32 0 32 C0 21.44 0 10.88 0 0 Z " fill="#E3DBB0" transform="translate(159,191)"/>
<path d="M0 0 C21.12 0 42.24 0 64 0 C64 10.56 64 21.12 64 32 C42.88 32 21.76 32 0 32 C0 21.44 0 10.88 0 0 Z " fill="#D5C496" transform="translate(159,31)"/>
<path d="M0 0 C10.56 0 21.12 0 32 0 C32 10.89 32 21.78 32 33 C21.44 33 10.88 33 0 33 C0 22.11 0 11.22 0 0 Z " fill="#C6AE71" transform="translate(287,479)"/>
<path d="M0 0 C10.89 0 21.78 0 33 0 C33 10.56 33 21.12 33 32 C22.11 32 11.22 32 0 32 C0 21.44 0 10.88 0 0 Z " fill="#D5C496" transform="translate(479,31)"/>
<path d="M0 0 C10.56 0 21.12 0 32 0 C32 10.56 32 21.12 32 32 C21.44 32 10.88 32 0 32 C0 21.44 0 10.88 0 0 Z " fill="#D5C496" transform="translate(383,447)"/>
<path d="M0 0 C10.56 0 21.12 0 32 0 C32 10.56 32 21.12 32 32 C21.44 32 10.88 32 0 32 C0 21.44 0 10.88 0 0 Z " fill="#D1BA8A" transform="translate(415,415)"/>
<path d="M0 0 C10.56 0 21.12 0 32 0 C32 10.56 32 21.12 32 32 C21.44 32 10.88 32 0 32 C0 21.44 0 10.88 0 0 Z " fill="#E3DBB0" transform="translate(255,415)"/>
<path d="M0 0 C10.56 0 21.12 0 32 0 C32 10.56 32 21.12 32 32 C21.44 32 10.88 32 0 32 C0 21.44 0 10.88 0 0 Z " fill="#E3DBB0" transform="translate(191,415)"/>
<path d="M0 0 C10.56 0 21.12 0 32 0 C32 10.56 32 21.12 32 32 C21.44 32 10.88 32 0 32 C0 21.44 0 10.88 0 0 Z " fill="#E3DBB0" transform="translate(127,415)"/>
<path d="M0 0 C10.56 0 21.12 0 32 0 C32 10.56 32 21.12 32 32 C21.44 32 10.88 32 0 32 C0 21.44 0 10.88 0 0 Z " fill="#D1BA8A" transform="translate(95,415)"/>
<path d="M0 0 C10.56 0 21.12 0 32 0 C32 10.56 32 21.12 32 32 C21.44 32 10.88 32 0 32 C0 21.44 0 10.88 0 0 Z " fill="#D1BA8A" transform="translate(31,415)"/>
<path d="M0 0 C10.56 0 21.12 0 32 0 C32 10.56 32 21.12 32 32 C21.44 32 10.88 32 0 32 C0 21.44 0 10.88 0 0 Z " fill="#D5C496" transform="translate(447,383)"/>
<path d="M0 0 C10.56 0 21.12 0 32 0 C32 10.56 32 21.12 32 32 C21.44 32 10.88 32 0 32 C0 21.44 0 10.88 0 0 Z " fill="#D5C496" transform="translate(287,383)"/>
<path d="M0 0 C10.56 0 21.12 0 32 0 C32 10.56 32 21.12 32 32 C21.44 32 10.88 32 0 32 C0 21.44 0 10.88 0 0 Z " fill="#D5C496" transform="translate(191,383)"/>
<path d="M0 0 C10.56 0 21.12 0 32 0 C32 10.56 32 21.12 32 32 C21.44 32 10.88 32 0 32 C0 21.44 0 10.88 0 0 Z " fill="#C6AE71" transform="translate(63,383)"/>
<path d="M0 0 C10.56 0 21.12 0 32 0 C32 10.56 32 21.12 32 32 C21.44 32 10.88 32 0 32 C0 21.44 0 10.88 0 0 Z " fill="#C6AE71" transform="translate(95,351)"/>
<path d="M0 0 C10.56 0 21.12 0 32 0 C32 10.56 32 21.12 32 32 C21.44 32 10.88 32 0 32 C0 21.44 0 10.88 0 0 Z " fill="#E3DBB0" transform="translate(383,319)"/>
<path d="M0 0 C10.56 0 21.12 0 32 0 C32 10.56 32 21.12 32 32 C21.44 32 10.88 32 0 32 C0 21.44 0 10.88 0 0 Z " fill="#E3DBB0" transform="translate(351,255)"/>
<path d="M0 0 C10.56 0 21.12 0 32 0 C32 10.56 32 21.12 32 32 C21.44 32 10.88 32 0 32 C0 21.44 0 10.88 0 0 Z " fill="#D1BA8A" transform="translate(287,159)"/>
<path d="M0 0 C10.56 0 21.12 0 32 0 C32 10.56 32 21.12 32 32 C21.44 32 10.88 32 0 32 C0 21.44 0 10.88 0 0 Z " fill="#D1BA8A" transform="translate(159,159)"/>
<path d="M0 0 C10.56 0 21.12 0 32 0 C32 10.56 32 21.12 32 32 C21.44 32 10.88 32 0 32 C0 21.44 0 10.88 0 0 Z " fill="#DAD2A3" transform="translate(447,127)"/>
<path d="M0 0 C10.56 0 21.12 0 32 0 C32 10.56 32 21.12 32 32 C21.44 32 10.88 32 0 32 C0 21.44 0 10.88 0 0 Z " fill="#E3DBB0" transform="translate(63,127)"/>
<path d="M0 0 C10.56 0 21.12 0 32 0 C32 10.56 32 21.12 32 32 C21.44 32 10.88 32 0 32 C0 21.44 0 10.88 0 0 Z " fill="#C6AE71" transform="translate(351,63)"/>
<path d="M0 0 C10.23 0 20.46 0 31 0 C31 10.56 31 21.12 31 32 C20.77 32 10.54 32 0 32 C0 21.44 0 10.88 0 0 Z " fill="#D5C496" transform="translate(0,287)"/>
<path d="M0 0 C10.23 0 20.46 0 31 0 C31 10.56 31 21.12 31 32 C20.77 32 10.54 32 0 32 C0 21.44 0 10.88 0 0 Z " fill="#E7E4BB" transform="translate(0,159)"/>
<path d="M0 0 C10.23 0 20.46 0 31 0 C31 10.56 31 21.12 31 32 C20.77 32 10.54 32 0 32 C0 21.44 0 10.88 0 0 Z " fill="#D5C496" transform="translate(0,63)"/>
<path d="M0 0 C10.23 0 20.46 0 31 0 C31 10.56 31 21.12 31 32 C20.77 32 10.54 32 0 32 C0 21.44 0 10.88 0 0 Z " fill="#E3DBB0" transform="translate(0,31)"/>
<path d="M0 0 C10.56 0 21.12 0 32 0 C32 10.23 32 20.46 32 31 C21.44 31 10.88 31 0 31 C0 20.77 0 10.54 0 0 Z " fill="#EDEBCB" transform="translate(351,0)"/>
<path d="M0 0 C10.56 0 21.12 0 32 0 C32 10.23 32 20.46 32 31 C21.44 31 10.88 31 0 31 C0 20.77 0 10.54 0 0 Z " fill="#E7E4BB" transform="translate(159,0)"/>
</svg>
