<svg version="1.1" id="Layer_1" xmlns="http://www.w3.org/2000/svg" xmlns:xlink="http://www.w3.org/1999/xlink" x="0px" y="0px"
	 width="100%" viewBox="0 0 512 512" enable-background="new 0 0 512 512" xml:space="preserve">
<path fill="#2A2435" opacity="1.000000" stroke="none" 
	d="
M513.000000,448.000000 
	C513.000000,458.354218 513.000000,468.708466 512.531372,479.531342 
	C490.699951,480.006622 469.337219,480.013245 447.508667,480.013062 
	C436.703705,480.010742 426.364624,480.015320 415.555298,480.014526 
	C404.714874,480.012634 394.344666,480.016144 383.507446,480.014130 
	C340.669556,480.033173 298.298676,480.057709 255.466354,480.053772 
	C223.360977,480.043488 191.717026,480.061737 159.597778,480.054138 
	C148.756805,480.025482 138.391144,480.022705 127.555237,480.014526 
	C116.714851,480.012726 106.344688,480.016327 95.508438,480.013123 
	C84.703400,480.010895 74.364441,480.015381 63.555252,480.014526 
	C42.390018,480.006104 21.695009,480.003052 1.000000,480.000000 
	C1.000000,469.645782 1.000000,459.291534 1.468657,448.468658 
	C11.993711,447.984161 22.050106,447.968323 32.568268,447.973938 
	C64.650948,447.981323 96.271866,447.967224 128.367783,447.965698 
	C139.264236,447.969879 149.685699,447.961487 160.568665,447.974274 
	C181.984406,447.981354 202.938660,447.967194 224.367889,447.965820 
	C235.237106,447.979187 245.631302,447.979767 256.492554,447.985870 
	C267.342499,447.972260 277.725433,447.953156 288.569855,447.963806 
	C309.985199,447.980072 330.939026,447.966553 352.367889,447.965790 
	C363.264313,447.970062 373.685730,447.961578 384.568665,447.974274 
	C416.650604,447.975006 448.271057,447.954559 480.366638,447.952087 
	C491.561188,447.980072 502.280609,447.990051 513.000000,448.000000 
z"/>
<path fill="#2A4455" opacity="1.000000" stroke="none" 
	d="
M1.000000,224.000000 
	C1.000000,202.979111 1.000000,181.958206 1.468657,160.468658 
	C11.997950,159.977844 22.058586,159.955704 32.579617,159.962982 
	C43.275917,159.992416 53.511822,159.992416 64.167740,159.992416 
	C64.167740,170.981018 64.167740,181.363327 64.167740,192.161987 
	C74.975090,192.161987 85.357407,192.161987 96.088837,192.161987 
	C96.088837,203.034698 96.088837,213.478088 95.615311,223.943176 
	C84.731377,223.990555 74.320961,224.016251 63.447777,224.024963 
	C52.686348,224.019424 42.387688,224.030899 31.614922,224.030807 
	C21.093876,224.012833 11.046938,224.006409 1.000000,224.000000 
z"/>
<path fill="#2A4455" opacity="1.000000" stroke="none" 
	d="
M255.927780,480.082275 
	C298.298676,480.057709 340.669556,480.033173 383.516174,480.480591 
	C383.994598,491.635040 383.997284,502.317505 384.000000,513.000000 
	C341.645782,513.000000 299.291534,513.000000 256.468658,512.531372 
	C255.975937,501.402557 255.951859,490.742401 255.927780,480.082275 
z"/>
<path fill="#406278" opacity="1.000000" stroke="none" 
	d="
M513.000000,160.000000 
	C513.000000,181.020889 513.000000,202.041794 512.531372,223.531342 
	C501.362610,224.027267 490.662537,224.054550 479.496033,224.049164 
	C468.733948,224.034592 458.438354,224.052689 448.103058,223.599243 
	C448.032928,212.720963 448.002472,202.314224 447.984009,191.444763 
	C447.995941,180.754471 447.995941,170.526917 447.995941,159.971527 
	C459.043610,159.971527 469.475769,159.971527 480.382263,159.979416 
	C491.571075,159.991531 502.285553,159.995758 513.000000,160.000000 
z"/>
<path fill="#406278" opacity="1.000000" stroke="none" 
	d="
M128.000000,1.000000 
	C170.354233,1.000000 212.708450,1.000000 255.531342,1.468657 
	C255.975861,11.933091 255.951721,21.928867 255.466553,31.950958 
	C212.694504,31.959740 170.383469,31.942205 128.051758,31.461172 
	C128.020721,20.998449 128.010361,10.999225 128.000000,1.000000 
z"/>
<path fill="#406278" opacity="1.000000" stroke="none" 
	d="
M255.466354,480.053772 
	C255.951859,490.742401 255.975937,501.402557 256.000000,512.531372 
	C224.312439,513.000000 192.624878,513.000000 160.468658,512.531372 
	C160.024353,501.401764 160.048721,490.740875 160.073074,480.079956 
	C191.717026,480.061737 223.360977,480.043488 255.466354,480.053772 
z"/>
<path fill="#2A4455" opacity="1.000000" stroke="none" 
	d="
M352.000000,1.000000 
	C383.687561,1.000000 415.375122,1.000000 447.531342,1.468657 
	C447.963409,11.964505 447.926819,21.991695 447.428894,32.015007 
	C436.646881,32.021523 426.326202,32.031921 415.536621,32.030590 
	C394.021057,31.987461 372.974304,31.956059 351.948273,31.461159 
	C351.979309,20.998440 351.989655,10.999220 352.000000,1.000000 
z"/>
<path fill="#406278" opacity="1.000000" stroke="none" 
	d="
M32.119221,159.933563 
	C22.058586,159.955704 11.997950,159.977844 1.468657,160.000000 
	C1.000000,128.312439 1.000000,96.624878 1.468657,64.468658 
	C11.996484,64.075394 22.055653,64.150780 32.066093,64.675735 
	C32.020016,75.393555 32.022667,85.661819 32.017616,96.403061 
	C32.015007,107.274033 32.020103,117.672020 32.014435,128.534180 
	C32.042191,139.310074 32.080704,149.621826 32.119221,159.933563 
z"/>
<path fill="#182C39" opacity="1.000000" stroke="none" 
	d="
M447.974487,480.019897 
	C469.337219,480.013245 490.699951,480.006622 512.531372,480.000000 
	C513.000000,490.950653 513.000000,501.901337 513.000000,513.000000 
	C491.645966,513.000000 470.291656,513.000000 448.468658,512.531372 
	C447.991486,501.381744 447.983002,490.700836 447.974487,480.019897 
z"/>
<path fill="#2A4455" opacity="1.000000" stroke="none" 
	d="
M513.000000,159.531342 
	C502.285553,159.995758 491.571075,159.991531 480.423035,159.514359 
	C479.982697,148.727798 479.975983,138.414185 479.977631,127.625664 
	C479.998779,116.774643 480.011505,106.398521 480.491364,96.016159 
	C491.638977,96.006607 502.319489,96.003304 513.000000,96.000000 
	C513.000000,117.020897 513.000000,138.041794 513.000000,159.531342 
z"/>
<path fill="#2A4455" opacity="1.000000" stroke="none" 
	d="
M513.000000,447.531342 
	C502.280609,447.990051 491.561188,447.980072 480.414612,447.490387 
	C479.981415,436.707336 479.975372,426.403961 479.977661,415.625732 
	C479.998749,404.774719 480.011475,394.398590 480.491272,384.016235 
	C491.638947,384.006653 502.319458,384.003326 513.000000,384.000000 
	C513.000000,405.020905 513.000000,426.041779 513.000000,447.531342 
z"/>
<path fill="#182C39" opacity="1.000000" stroke="none" 
	d="
M1.000000,480.468658 
	C21.695009,480.003052 42.390018,480.006104 63.546570,480.480927 
	C64.005409,491.635132 64.002708,502.317566 64.000000,513.000000 
	C43.096161,513.000000 22.192322,513.000000 1.000000,513.000000 
	C1.000000,502.314178 1.000000,491.625732 1.000000,480.468658 
z"/>
<path fill="#2A2435" opacity="1.000000" stroke="none" 
	d="
M1.000000,416.000000 
	C1.000000,394.979095 1.000000,373.958221 1.468657,352.468658 
	C11.991760,352.029114 22.046206,352.058228 32.055214,352.548279 
	C32.022247,363.303894 32.034721,373.598511 32.034683,384.368378 
	C32.033161,395.262909 32.044140,405.682251 32.042053,416.071289 
	C32.028984,416.041016 32.089703,416.067078 31.615734,416.049255 
	C21.094509,416.020935 11.047255,416.010468 1.000000,416.000000 
z"/>
<path fill="#2A4455" opacity="1.000000" stroke="none" 
	d="
M255.927582,31.924644 
	C255.951721,21.928867 255.975861,11.933091 256.000000,1.468657 
	C277.020905,1.000000 298.041779,1.000000 319.531342,1.468657 
	C320.024139,11.933103 320.048309,21.928890 319.597168,31.948992 
	C298.057129,31.957085 276.992340,31.940865 255.927582,31.924644 
z"/>
<path fill="#406278" opacity="1.000000" stroke="none" 
	d="
M513.000000,256.000000 
	C513.000000,266.354218 513.000000,276.708466 512.531372,287.531342 
	C501.391266,287.984131 490.719879,287.968231 480.031372,287.488770 
	C479.999481,276.647888 479.984711,266.270538 479.972168,255.926758 
	C479.974426,255.960281 479.907776,255.950653 480.382019,255.965637 
	C491.570831,255.987061 502.285431,255.993530 513.000000,256.000000 
z"/>
<path fill="#182C39" opacity="1.000000" stroke="none" 
	d="
M384.468658,513.000000 
	C383.997284,502.317505 383.994598,491.635040 383.983185,480.486084 
	C394.344666,480.016144 404.714874,480.012634 415.546570,480.480896 
	C416.005402,491.635132 416.002716,502.317566 416.000000,513.000000 
	C405.645782,513.000000 395.291534,513.000000 384.468658,513.000000 
z"/>
<path fill="#2A4455" opacity="1.000000" stroke="none" 
	d="
M416.468658,513.000000 
	C416.002716,502.317566 416.005402,491.635132 416.016815,480.486298 
	C426.364624,480.015320 436.703705,480.010742 447.508667,480.013062 
	C447.983002,490.700836 447.991486,501.381744 448.000000,512.531372 
	C437.645782,513.000000 427.291534,513.000000 416.468658,513.000000 
z"/>
<path fill="#182C39" opacity="1.000000" stroke="none" 
	d="
M95.974533,480.019897 
	C106.344688,480.016327 116.714851,480.012726 127.546570,480.480927 
	C128.005417,491.635132 128.002701,502.317566 128.000000,513.000000 
	C117.645775,513.000000 107.291542,513.000000 96.468658,512.531372 
	C95.991516,501.381744 95.983025,490.700836 95.974533,480.019897 
z"/>
<path fill="#2A4455" opacity="1.000000" stroke="none" 
	d="
M513.000000,320.000000 
	C513.000000,330.354218 513.000000,340.708466 512.531372,351.531342 
	C501.383209,351.992523 490.703766,351.985046 480.017639,351.510376 
	C480.011780,340.702057 480.012573,330.360962 480.481110,320.014282 
	C491.632599,320.005829 502.316284,320.002930 513.000000,320.000000 
z"/>
<path fill="#2A2435" opacity="1.000000" stroke="none" 
	d="
M513.000000,319.531342 
	C502.316284,320.002930 491.632599,320.005829 480.476624,319.543457 
	C479.991425,308.730286 479.978516,298.382324 479.986267,288.013855 
	C480.006958,287.993317 480.048462,287.952362 480.048462,287.952362 
	C490.719879,287.968231 501.391266,287.984131 512.531372,288.000000 
	C513.000000,298.354218 513.000000,308.708466 513.000000,319.531342 
z"/>
<path fill="#182C39" opacity="1.000000" stroke="none" 
	d="
M513.000000,255.531342 
	C502.285431,255.993530 491.570831,255.987061 480.420837,255.500824 
	C479.977753,244.707962 479.970093,234.394882 479.962463,224.081818 
	C490.662537,224.054550 501.362610,224.027267 512.531372,224.000000 
	C513.000000,234.354233 513.000000,244.708450 513.000000,255.531342 
z"/>
<path fill="#2A4455" opacity="1.000000" stroke="none" 
	d="
M128.468658,513.000000 
	C128.002701,502.317566 128.005417,491.635132 128.016785,480.486298 
	C138.391144,480.022705 148.756805,480.025482 159.597778,480.054138 
	C160.048721,490.740875 160.024353,501.401764 160.000000,512.531372 
	C149.645767,513.000000 139.291550,513.000000 128.468658,513.000000 
z"/>
<path fill="#2A4455" opacity="1.000000" stroke="none" 
	d="
M95.508446,480.013123 
	C95.983025,490.700836 95.991516,501.381744 96.000000,512.531372 
	C85.645775,513.000000 75.291542,513.000000 64.468658,513.000000 
	C64.002708,502.317566 64.005409,491.635132 64.016800,480.486267 
	C74.364441,480.015381 84.703400,480.010895 95.508446,480.013123 
z"/>
<path fill="#FFA05E" opacity="1.000000" stroke="none" 
	d="
M513.000000,32.000000 
	C513.000000,42.354229 513.000000,52.708454 512.531372,63.531342 
	C501.413849,64.032356 490.765045,64.064720 480.075897,63.623535 
	C479.942932,52.752434 479.850281,42.354866 479.864868,31.955757 
	C479.972107,31.954214 480.182251,31.997091 480.639465,31.997957 
	C491.731140,31.999216 502.365570,31.999609 513.000000,32.000000 
z"/>
<path fill="#182C39" opacity="1.000000" stroke="none" 
	d="
M480.024292,351.977570 
	C490.703766,351.985046 501.383209,351.992523 512.531372,352.000000 
	C513.000000,362.354218 513.000000,372.708466 513.000000,383.531342 
	C502.319458,384.003326 491.638947,384.006653 480.470398,383.995972 
	C479.982422,383.981995 479.941040,383.941132 479.967712,383.476929 
	C479.976654,372.694824 479.958893,362.376892 479.961853,352.038513 
	C479.982544,352.018066 480.024292,351.977570 480.024292,351.977570 
z"/>
<path fill="#182C39" opacity="1.000000" stroke="none" 
	d="
M480.116211,64.097076 
	C490.765045,64.064720 501.413849,64.032356 512.531372,64.000000 
	C513.000000,74.354225 513.000000,84.708458 513.000000,95.531342 
	C502.319489,96.003304 491.638977,96.006607 480.470459,95.995926 
	C479.982483,95.981934 479.941040,95.941147 479.967712,95.476959 
	C480.043884,84.718704 480.093384,74.424622 480.147552,64.112305 
	C480.152252,64.094063 480.116211,64.097084 480.116211,64.097076 
z"/>
<path fill="#FFC195" opacity="1.000000" stroke="none" 
	d="
M513.000000,31.531342 
	C502.365570,31.999609 491.731140,31.999216 480.572083,31.534342 
	C480.031647,21.046574 480.015808,11.023287 480.000000,1.000000 
	C490.924225,1.000000 501.848480,1.000000 513.000000,1.000000 
	C513.000000,11.019752 513.000000,21.041218 513.000000,31.531342 
z"/>
<path fill="#FF6A00" opacity="1.000000" stroke="none" 
	d="
M32.000000,1.000000 
	C42.354229,1.000000 52.708454,1.000000 63.531342,1.468657 
	C64.040695,11.947842 64.081398,21.958370 64.054214,31.971025 
	C63.986336,31.973154 63.856384,32.012001 63.398254,32.004173 
	C52.707523,31.983343 42.474922,31.970343 32.135628,31.952011 
	C32.028938,31.946680 31.819948,31.991049 31.886505,31.527508 
	C31.968706,21.042646 31.984352,11.021323 32.000000,1.000000 
z"/>
<path fill="#406278" opacity="1.000000" stroke="none" 
	d="
M64.122101,31.968897 
	C64.081398,21.958370 64.040695,11.947842 64.000000,1.468657 
	C74.354225,1.000000 84.708458,1.000000 95.531342,1.468657 
	C95.975853,11.933093 95.951714,21.928871 95.466072,31.950687 
	C84.710419,31.974113 74.416260,31.971506 64.122101,31.968897 
z"/>
<path fill="#406278" opacity="1.000000" stroke="none" 
	d="
M320.072449,31.924679 
	C320.048309,21.928890 320.024139,11.933103 320.000000,1.468657 
	C330.354218,1.000000 340.708466,1.000000 351.531342,1.000000 
	C351.989655,10.999220 351.979309,20.998440 351.487244,31.487469 
	C340.694489,31.959745 330.383453,31.942211 320.072449,31.924679 
z"/>
<path fill="#2A4455" opacity="1.000000" stroke="none" 
	d="
M32.100651,352.087341 
	C22.046206,352.058228 11.991760,352.029114 1.468657,352.000000 
	C1.000000,341.645782 1.000000,331.291534 1.468657,320.468658 
	C11.953756,320.006592 21.970200,320.013214 31.991230,320.486328 
	C32.017097,331.340973 32.038376,341.729126 32.052292,352.085693 
	C32.044926,352.054047 32.100651,352.087341 32.100651,352.087341 
z"/>
<path fill="#FF6A00" opacity="1.000000" stroke="none" 
	d="
M479.531311,1.000000 
	C480.015808,11.023287 480.031647,21.046574 480.114868,31.533476 
	C480.182251,31.997091 479.972107,31.954214 479.414642,31.969624 
	C468.623535,31.973352 458.389923,31.961670 448.080322,31.930698 
	C448.004333,31.911409 447.890198,32.018887 447.890198,32.018887 
	C447.926819,21.991695 447.963409,11.964505 448.000000,1.468657 
	C458.354218,1.000000 468.708466,1.000000 479.531311,1.000000 
z"/>
<path fill="#2A4455" opacity="1.000000" stroke="none" 
	d="
M95.927567,31.924650 
	C95.951714,21.928871 95.975853,11.933093 96.000000,1.468657 
	C106.354225,1.000000 116.708458,1.000000 127.531342,1.000000 
	C128.010361,10.999225 128.020721,20.998449 127.576477,31.485487 
	C116.723770,31.957085 106.325676,31.940866 95.927567,31.924650 
z"/>
<path fill="#FFA05E" opacity="1.000000" stroke="none" 
	d="
M32.114822,64.226166 
	C22.055653,64.150780 11.996484,64.075394 1.468657,64.000000 
	C1.000000,53.645771 1.000000,43.291546 1.468657,32.468658 
	C11.898192,31.997017 21.859070,31.994034 31.819948,31.991051 
	C31.819948,31.991049 32.028938,31.946680 32.051041,32.417763 
	C32.050240,43.267551 32.027340,53.646252 32.085880,64.045723 
	C32.167320,64.066490 32.114822,64.226166 32.114822,64.226166 
z"/>
<path fill="#182C39" opacity="1.000000" stroke="none" 
	d="
M1.000000,416.468658 
	C11.047255,416.010468 21.094509,416.020935 31.575153,416.512115 
	C32.041199,427.312714 32.073849,437.632599 32.106503,447.952484 
	C22.050106,447.968323 11.993711,447.984161 1.468657,448.000000 
	C1.000000,437.645782 1.000000,427.291534 1.000000,416.468658 
z"/>
<path fill="#182C39" opacity="1.000000" stroke="none" 
	d="
M1.000000,224.468658 
	C11.046938,224.006409 21.093876,224.012833 31.577740,224.494690 
	C32.036598,235.287491 32.058533,245.604828 31.607208,255.943405 
	C21.089298,255.976425 11.044649,255.988205 1.000000,256.000000 
	C1.000000,245.645767 1.000000,235.291550 1.000000,224.468658 
z"/>
<path fill="#2A4455" opacity="1.000000" stroke="none" 
	d="
M1.000000,256.468658 
	C11.044649,255.988205 21.089298,255.976425 31.578789,255.941284 
	C32.023632,255.917923 32.060684,255.874466 32.043755,256.352539 
	C32.011600,267.218414 31.996374,277.606171 31.988659,287.997894 
	C31.996172,288.001831 31.993263,287.981445 31.525055,287.986633 
	C21.037899,287.994507 11.018950,287.997253 1.000000,288.000000 
	C1.000000,277.645782 1.000000,267.291534 1.000000,256.468658 
z"/>
<path fill="#2A2435" opacity="1.000000" stroke="none" 
	d="
M1.000000,288.468658 
	C11.018950,287.997253 21.037899,287.994507 31.527306,288.457275 
	C31.994055,299.288483 31.990349,309.654144 31.986641,320.019836 
	C21.970200,320.013214 11.953756,320.006592 1.468657,320.000000 
	C1.000000,309.645782 1.000000,299.291534 1.000000,288.468658 
z"/>
<path fill="#FFC195" opacity="1.000000" stroke="none" 
	d="
M31.886505,31.527510 
	C21.859070,31.994034 11.898192,31.997017 1.468657,32.000000 
	C1.000000,21.740147 1.000000,11.480293 1.000000,1.000000 
	C11.019819,1.000000 21.041252,1.000000 31.531342,1.000000 
	C31.984352,11.021323 31.968706,21.042646 31.886505,31.527510 
z"/>
<path fill="#FFFFFF" opacity="1.000000" stroke="none" 
	d="
M479.969330,416.100586 
	C479.975372,426.403961 479.981415,436.707336 479.939484,447.472412 
	C448.271057,447.954559 416.650604,447.975006 384.520203,447.511169 
	C384.030121,436.693024 384.049988,426.359192 384.534241,416.014465 
	C395.342163,415.947845 405.685638,415.892151 416.491058,415.908813 
	C427.309570,415.932495 437.666168,415.883789 448.484711,415.909607 
	C459.287537,416.022980 469.628448,416.061798 479.969330,416.100586 
z"/>
<path fill="#FFFFFF" opacity="1.000000" stroke="none" 
	d="
M32.568268,447.973938 
	C32.073849,437.632599 32.041199,427.312714 32.049126,416.529968 
	C32.089703,416.067078 32.028984,416.041016 32.505318,416.025330 
	C43.313606,415.951447 53.645554,415.893250 64.442589,415.908020 
	C75.261909,415.932831 85.616158,415.884674 96.436317,415.906250 
	C107.244865,415.992401 117.587502,416.008850 127.961723,416.491425 
	C127.959808,427.289398 127.926292,437.621277 127.892776,447.953125 
	C96.271866,447.967224 64.650948,447.981323 32.568268,447.973938 
z"/>
<path fill="#2A4455" opacity="1.000000" stroke="none" 
	d="
M288.108368,447.934021 
	C277.725433,447.953156 267.342499,447.972260 256.483826,447.519409 
	C255.991318,436.696472 255.974518,426.345490 255.971939,415.526550 
	C255.993271,404.708252 256.000366,394.357880 256.475281,384.004944 
	C267.291260,384.011749 277.639374,384.021088 287.990997,384.497192 
	C288.006531,395.342834 288.018585,405.721741 288.017090,416.562805 
	C288.038483,427.328003 288.073425,437.631012 288.108368,447.934021 
z"/>
<path fill="#FFFFFF" opacity="1.000000" stroke="none" 
	d="
M288.569855,447.963806 
	C288.073425,437.631012 288.038483,427.328003 288.481750,416.517334 
	C299.299133,415.951447 309.638275,415.893250 320.442505,415.908020 
	C331.244354,416.044342 341.581085,416.107697 351.941284,416.146790 
	C351.964722,416.122589 351.908569,416.085327 351.949951,416.546997 
	C351.958496,427.323456 351.925690,437.638245 351.892883,447.953003 
	C330.939026,447.966553 309.985199,447.980072 288.569855,447.963806 
z"/>
<path fill="#FFFFFF" opacity="1.000000" stroke="none" 
	d="
M223.892899,447.953064 
	C202.938660,447.967194 181.984406,447.981354 160.520203,447.511169 
	C160.037323,436.713013 160.064392,426.399200 160.063431,416.103973 
	C160.035416,416.122589 160.082413,416.170776 160.540131,416.095093 
	C171.339447,415.957947 181.681046,415.896515 192.484619,415.909637 
	C203.279358,416.023346 213.612167,416.062531 223.957886,416.071350 
	C223.970810,416.041016 223.909958,416.066742 223.950684,416.529633 
	C223.958572,427.312683 223.925735,437.632874 223.892899,447.953064 
z"/>
<path fill="#182C39" opacity="1.000000" stroke="none" 
	d="
M352.367920,447.965820 
	C351.925690,437.638245 351.958496,427.323456 352.423889,416.521240 
	C363.260956,416.031006 373.665405,416.028198 384.069855,416.025360 
	C384.049988,426.359192 384.030121,436.693024 384.058716,447.489990 
	C373.685730,447.961578 363.264313,447.970062 352.367920,447.965820 
z"/>
<path fill="#182C39" opacity="1.000000" stroke="none" 
	d="
M224.367889,447.965820 
	C223.925735,437.632874 223.958572,427.312683 224.424988,416.512390 
	C235.224945,416.019684 245.591324,416.007080 255.957703,415.994507 
	C255.974518,426.345490 255.991318,436.696472 256.016815,447.513916 
	C245.631302,447.979767 235.237106,447.979187 224.367889,447.965820 
z"/>
<path fill="#182C39" opacity="1.000000" stroke="none" 
	d="
M160.091446,416.085358 
	C160.064392,426.399200 160.037323,436.713013 160.058701,447.489960 
	C149.685699,447.961487 139.264236,447.969879 128.367783,447.965698 
	C127.926292,437.621277 127.959808,427.289398 128.434464,416.483154 
	C139.280884,416.034302 149.686172,416.059845 160.091446,416.085358 
z"/>
<path fill="#FFFFFF" opacity="1.000000" stroke="none" 
	d="
M32.579617,159.962982 
	C32.080704,149.621826 32.042191,139.310074 32.479980,128.502518 
	C43.296688,127.949478 53.637096,127.892250 64.442581,127.908020 
	C75.261902,127.932831 85.616142,127.884651 96.436295,127.906250 
	C107.237320,127.993355 117.572426,128.010681 127.948456,128.493149 
	C127.989388,139.209061 127.989388,149.459839 127.989388,159.706940 
	C138.955551,159.706940 149.339172,159.706940 160.135422,159.706940 
	C160.135422,148.964737 160.135422,138.513138 160.095886,128.058838 
	C160.056351,128.056168 160.061676,128.135239 160.522858,128.075317 
	C171.329910,127.955261 181.675797,127.895119 192.483704,127.909584 
	C203.285980,128.004486 213.626251,128.024796 223.981354,128.510712 
	C223.966736,139.308105 223.937302,149.639877 223.445099,159.983795 
	C212.754761,159.995926 202.527176,159.995926 191.971985,159.995926 
	C191.971985,171.043320 191.971985,181.475433 191.506851,191.948456 
	C180.795074,191.989380 170.548431,191.989380 159.942856,191.989380 
	C159.942856,202.999008 159.942856,213.443176 159.480255,223.938202 
	C138.027786,223.972321 117.037949,223.955582 96.068008,223.958572 
	C96.087906,223.978287 96.088837,223.921494 96.088837,223.921494 
	C96.088837,213.478088 96.088837,203.034698 96.088837,192.161987 
	C85.357407,192.161987 74.975090,192.161987 64.167740,192.161987 
	C64.167740,181.363327 64.167740,170.981018 64.167740,159.992416 
	C53.511822,159.992416 43.275917,159.992416 32.579617,159.962982 
z"/>
<path fill="#FFA05E" opacity="1.000000" stroke="none" 
	d="
M32.052048,255.920044 
	C32.058533,245.604828 32.036598,235.287491 32.051849,224.506256 
	C42.387688,224.030899 52.686348,224.019424 63.485130,224.488861 
	C63.955021,235.299301 63.924786,245.628845 63.432880,255.975677 
	C52.667706,255.953461 42.364193,255.913971 32.060684,255.874466 
	C32.060684,255.874466 32.023632,255.917923 32.052048,255.920044 
z"/>
<path fill="#182C39" opacity="1.000000" stroke="none" 
	d="
M63.894547,255.958405 
	C63.924786,245.628845 63.955021,235.299301 63.947899,224.505844 
	C74.320961,224.016251 84.731377,223.990555 95.615311,223.943176 
	C96.088837,223.921494 96.087906,223.978287 96.054657,224.430634 
	C95.968315,235.216751 95.915207,245.550522 95.403183,255.916565 
	C84.594353,255.952026 74.244453,255.955215 63.894547,255.958405 
z"/>
<path fill="#FFFFFF" opacity="1.000000" stroke="none" 
	d="
M479.969238,128.100571 
	C479.975983,138.414185 479.982697,148.727798 479.948669,159.506470 
	C469.475769,159.971527 459.043610,159.971527 447.995941,159.971527 
	C447.995941,170.526917 447.995941,180.754471 447.518921,191.485703 
	C436.794220,191.989365 426.546570,191.989365 415.934418,191.989365 
	C415.934418,203.003387 415.934418,213.449188 415.472382,223.942383 
	C394.028748,223.958176 373.047180,223.926559 352.036530,223.433685 
	C352.007477,212.735611 352.007477,202.498810 352.007477,191.841995 
	C341.029144,191.841995 330.647247,191.841995 319.848389,191.841995 
	C319.848389,181.035767 319.848389,170.653839 319.848389,159.854752 
	C309.042358,159.854752 298.660431,159.854752 288.030731,159.854752 
	C288.030731,148.983963 288.030731,138.542267 288.495392,128.055084 
	C299.299377,127.951401 309.638702,127.893196 320.443054,127.907997 
	C331.251556,128.032501 341.595032,128.083984 351.941223,128.095917 
	C351.943939,128.056335 351.864777,128.061676 351.924683,128.522842 
	C351.984589,139.232635 351.984589,149.481262 351.984589,159.696991 
	C362.975281,159.696991 373.359436,159.696991 384.092499,159.696991 
	C384.092499,148.939972 384.092499,138.483963 384.555206,128.016006 
	C395.354980,127.948181 405.692047,127.892303 416.491028,127.908813 
	C427.309540,127.932472 437.666168,127.883759 448.484711,127.909622 
	C459.287537,128.022980 469.628387,128.061783 479.969238,128.100571 
z"/>
<path fill="#2A4455" opacity="1.000000" stroke="none" 
	d="
M415.934418,223.894974 
	C415.934418,213.449188 415.934418,203.003387 415.934418,191.989365 
	C426.546570,191.989365 436.794220,191.989365 447.506958,191.948425 
	C448.002472,202.314224 448.032928,212.720963 448.071106,223.625946 
	C448.078796,224.124207 448.014984,224.073669 447.547119,224.049255 
	C436.744812,224.131149 426.410339,224.237457 416.013947,224.239929 
	C415.951996,224.136124 415.934418,223.894974 415.934418,223.894974 
z"/>
<path fill="#FFA05E" opacity="1.000000" stroke="none" 
	d="
M479.496033,224.049164 
	C479.970093,234.394882 479.977753,244.707962 479.946594,255.485840 
	C479.907776,255.950653 479.974426,255.960281 479.507263,255.971161 
	C468.728821,255.974411 458.417542,255.966782 448.061829,255.495270 
	C448.016571,244.712143 448.015778,234.392899 448.014984,224.073669 
	C448.014984,224.073669 448.078796,224.124207 448.110779,224.097504 
	C458.438354,224.052689 468.733948,224.034592 479.496033,224.049164 
z"/>
<path fill="#182C39" opacity="1.000000" stroke="none" 
	d="
M95.466080,31.950687 
	C106.325676,31.940866 116.723770,31.957085 127.597160,31.948986 
	C170.383469,31.942205 212.694504,31.959740 255.466553,31.950958 
	C276.992340,31.940865 298.057129,31.957085 319.597168,31.948992 
	C330.383453,31.942211 340.694489,31.959745 351.466553,31.950968 
	C372.974304,31.956059 394.021057,31.987461 415.534790,32.494583 
	C415.978821,43.343441 415.955872,53.716579 415.470032,64.049133 
	C372.765900,64.008545 330.524658,64.008545 288.058838,64.008545 
	C288.058838,75.012375 288.058838,85.476700 288.038086,95.961418 
	C288.017365,95.981812 287.975586,96.022301 287.508484,96.016083 
	C276.723328,95.986092 266.405273,95.962318 256.056824,95.476593 
	C256.017365,86.236725 255.842880,77.454407 256.076477,68.682953 
	C256.177155,64.902939 254.853561,63.833817 251.209137,63.930378 
	C242.106110,64.171570 232.993668,64.056526 223.424957,64.046242 
	C180.732834,64.008049 138.500748,64.008049 96.101013,64.008049 
	C96.101013,75.026390 96.101013,85.489838 95.994278,95.855484 
	C95.887535,95.757683 95.637589,95.903839 95.198456,95.936066 
	C84.519020,95.991669 74.278725,96.015038 64.014084,96.014084 
	C63.989750,95.989754 63.941086,95.941093 63.967735,95.476868 
	C63.941170,84.675621 63.887955,74.338593 63.896835,63.537540 
	C63.924751,52.719677 63.890568,42.365841 63.856384,32.012001 
	C63.856384,32.012001 63.986336,31.973154 64.054214,31.971025 
	C74.416260,31.971506 84.710419,31.974113 95.466080,31.950687 
z"/>
<path fill="#2A2435" opacity="1.000000" stroke="none" 
	d="
M415.932922,64.089714 
	C415.955872,53.716579 415.978821,43.343441 416.003632,32.506310 
	C426.326202,32.031921 436.646881,32.021523 447.428894,32.015007 
	C447.890198,32.018887 448.004333,31.911409 448.023621,32.398243 
	C448.088531,43.252460 448.134186,53.619850 448.156189,64.069092 
	C448.132568,64.150940 447.963104,64.133286 447.500397,64.090530 
	C436.657928,64.050217 426.278198,64.052666 415.928711,64.042053 
	C415.958984,64.029007 415.932922,64.089714 415.932922,64.089714 
z"/>
<path fill="#182C39" opacity="1.000000" stroke="none" 
	d="
M63.977501,127.835022 
	C53.637096,127.892250 43.296688,127.949478 32.490738,128.038361 
	C32.020103,117.672020 32.015007,107.274033 32.483162,96.434669 
	C43.284637,95.975891 53.612862,95.958488 63.941086,95.941093 
	C63.941086,95.941093 63.989750,95.989754 64.003601,96.480164 
	C64.004135,107.258720 63.990818,117.546875 63.977501,127.835022 
z"/>
<path fill="#FFFFFF" opacity="1.000000" stroke="none" 
	d="
M63.967735,95.476868 
	C53.612862,95.958488 43.284637,95.975891 32.490868,95.961685 
	C32.022667,85.661819 32.020016,75.393555 32.066093,64.675735 
	C32.114822,64.226166 32.167320,64.066490 32.554131,64.034775 
	C43.238876,64.002556 53.536808,64.002060 63.834740,64.001564 
	C63.887955,74.338593 63.941170,84.675621 63.967735,95.476868 
z"/>
<path fill="#182C39" opacity="1.000000" stroke="none" 
	d="
M479.977661,127.625664 
	C469.628387,128.061783 459.287537,128.022980 448.478333,127.451508 
	C448.035461,116.579605 448.060913,106.240379 448.547668,95.945862 
	C459.319672,95.974098 469.630371,95.957626 479.941040,95.941147 
	C479.941040,95.941147 479.982483,95.981934 480.003357,96.002167 
	C480.011505,106.398521 479.998779,116.774643 479.977661,127.625664 
z"/>
<path fill="#182C39" opacity="1.000000" stroke="none" 
	d="
M479.977661,415.625702 
	C469.628448,416.061798 459.287537,416.022980 448.478333,415.451477 
	C448.035431,404.579559 448.060822,394.240295 448.547546,383.945831 
	C459.319611,383.974121 469.630341,383.957642 479.941040,383.941162 
	C479.941040,383.941132 479.982422,383.981995 480.003296,384.002258 
	C480.011475,394.398590 479.998749,404.774719 479.977661,415.625702 
z"/>
<path fill="#182C39" opacity="1.000000" stroke="none" 
	d="
M63.977509,415.835052 
	C53.645554,415.893250 43.313606,415.951447 32.518387,416.055603 
	C32.044140,405.682251 32.033161,395.262909 32.497818,384.416687 
	C43.305584,383.980652 53.637707,383.971527 63.978333,384.433258 
	C63.983723,395.214417 63.980618,405.524750 63.977509,415.835052 
z"/>
<path fill="#FFFFFF" opacity="1.000000" stroke="none" 
	d="
M63.969833,383.962402 
	C53.637707,383.971527 43.305584,383.980652 32.510323,383.941467 
	C32.034721,373.598511 32.022247,363.303894 32.055214,352.548279 
	C32.100651,352.087341 32.044926,352.054047 32.514374,352.032623 
	C43.332695,351.994324 53.681564,351.977448 64.017479,352.429932 
	C63.962620,363.229828 63.920719,373.560364 63.885048,383.929810 
	C63.891281,383.968689 63.969833,383.962402 63.969833,383.962402 
z"/>
<path fill="#2A2435" opacity="1.000000" stroke="none" 
	d="
M448.106293,255.959152 
	C458.417542,255.966782 468.728821,255.974411 479.505005,255.937622 
	C479.984711,266.270538 479.999481,276.647888 480.031372,287.488770 
	C480.048462,287.952362 480.006958,287.993317 479.521179,288.002563 
	C468.681763,288.014526 458.328125,288.017212 447.508423,288.013123 
	C436.683716,287.991333 426.325073,287.976288 415.981598,287.495239 
	C415.971588,276.712463 415.946442,266.395691 415.978088,256.022034 
	C416.034851,255.965149 416.148560,255.851486 416.602875,255.897675 
	C427.406891,255.948959 437.756592,255.954056 448.106293,255.959152 
z"/>
<path fill="#182C39" opacity="1.000000" stroke="none" 
	d="
M447.974487,288.019897 
	C458.328125,288.017212 468.681763,288.014526 479.500488,288.023132 
	C479.978516,298.382324 479.991425,308.730286 480.008850,319.549011 
	C480.012573,330.360962 480.011780,340.702057 480.017639,351.510376 
	C480.024292,351.977570 479.982544,352.018066 479.497650,352.011841 
	C468.652344,352.029144 458.291931,352.052704 447.962463,351.603516 
	C447.976074,340.793854 447.958740,330.456909 447.957275,319.644043 
	C447.973633,308.785370 447.974060,298.402649 447.974487,288.019897 
z"/>
<path fill="#BF4D00" opacity="1.000000" stroke="none" 
	d="
M448.179840,63.987236 
	C448.134186,53.619850 448.088531,43.252460 448.099579,32.417530 
	C458.389923,31.961670 468.623535,31.973352 479.307404,31.971167 
	C479.850281,42.354866 479.942932,52.752434 480.075897,63.623543 
	C480.116211,64.097084 480.152252,64.094063 479.670593,64.054245 
	C468.852600,64.005371 458.516205,63.996304 448.179840,63.987236 
z"/>
<path fill="#FFFFFF" opacity="1.000000" stroke="none" 
	d="
M447.931519,352.076263 
	C458.291931,352.052704 468.652344,352.029144 479.476929,352.032288 
	C479.958893,362.376892 479.976654,372.694824 479.967712,383.476959 
	C469.630341,383.957642 459.319611,383.974121 448.538696,383.973938 
	C448.068481,383.957306 448.123962,383.937500 448.067871,383.475891 
	C448.031158,372.652893 448.050537,362.291504 448.035095,351.966431 
	C448.000275,352.002777 447.931519,352.076263 447.931519,352.076263 
z"/>
<path fill="#FFFFFF" opacity="1.000000" stroke="none" 
	d="
M448.156189,64.069092 
	C458.516205,63.996304 468.852600,64.005371 479.665894,64.072495 
	C480.093384,74.424622 480.043884,84.718704 479.967712,95.476967 
	C469.630371,95.957626 459.319672,95.974098 448.538757,95.973961 
	C448.068542,95.957352 448.123932,95.937462 448.067871,95.475861 
	C447.995575,84.720596 447.979340,74.426941 447.963104,64.133286 
	C447.963104,64.133286 448.132568,64.150940 448.156189,64.069092 
z"/>
<path fill="#BF4D00" opacity="1.000000" stroke="none" 
	d="
M63.896835,63.537540 
	C53.536808,64.002060 43.238876,64.002556 32.472694,64.014008 
	C32.027340,53.646252 32.050240,43.267551 32.157730,32.423096 
	C42.474922,31.970343 52.707523,31.983343 63.398254,32.004173 
	C63.890568,42.365841 63.924751,52.719677 63.896835,63.537540 
z"/>
<path fill="#182C39" opacity="1.000000" stroke="none" 
	d="
M64.030434,351.960541 
	C53.681564,351.977448 43.332695,351.994324 32.521744,352.064270 
	C32.038376,341.729126 32.017097,331.340973 31.991230,320.486328 
	C31.990349,309.654144 31.994055,299.288483 31.995512,288.452118 
	C31.993263,287.981445 31.996172,288.001831 32.459370,287.999908 
	C43.290207,288.005310 53.657845,288.012604 64.016800,288.486298 
	C64.024750,299.342072 64.041374,309.731445 64.031761,320.581238 
	C63.975464,331.370026 63.945400,341.698395 63.959343,352.036682 
	C64.003349,352.046631 64.030434,351.960541 64.030434,351.960541 
z"/>
<path fill="#2A2435" opacity="1.000000" stroke="none" 
	d="
M64.025482,288.019897 
	C53.657845,288.012604 43.290207,288.005310 32.451859,287.995972 
	C31.996374,277.606171 32.011600,267.218414 32.043755,256.352539 
	C42.364193,255.913971 52.667706,255.953461 63.432884,255.975677 
	C74.244453,255.955215 84.594353,255.952026 95.458153,255.964325 
	C95.972046,255.979782 96.078773,256.078857 96.043213,256.541321 
	C96.016350,267.323029 96.025055,277.642273 95.563103,287.972168 
	C84.736794,287.995209 74.381134,288.007538 64.025482,288.019897 
z"/>
<path fill="#406278" opacity="1.000000" stroke="none" 
	d="
M384.534241,416.014465 
	C373.665405,416.028198 363.260956,416.031006 352.382538,416.059570 
	C351.908569,416.085327 351.964722,416.122589 351.964172,415.666016 
	C351.966248,404.860840 351.968903,394.512238 352.437378,384.093811 
	C373.898712,383.976440 394.894226,383.928864 415.920105,384.356506 
	C415.976715,395.166626 416.002930,405.501526 416.029144,415.836456 
	C405.685638,415.892151 395.342163,415.947845 384.534241,416.014465 
z"/>
<path fill="#2A4455" opacity="1.000000" stroke="none" 
	d="
M416.491058,415.908813 
	C416.002930,405.501526 415.976715,395.166626 415.960022,384.362396 
	C415.969543,383.893097 415.960083,383.973114 416.431091,383.980957 
	C427.309387,383.971680 437.716675,383.954590 448.123962,383.937500 
	C448.123962,383.937500 448.068481,383.957306 448.077332,383.929199 
	C448.060822,394.240295 448.035431,404.579559 448.016418,415.376923 
	C437.666168,415.883789 427.309570,415.932495 416.491058,415.908813 
z"/>
<path fill="#406278" opacity="1.000000" stroke="none" 
	d="
M160.063431,416.103973 
	C149.686172,416.059845 139.280884,416.034302 128.402863,416.017029 
	C117.587502,416.008850 107.244865,415.992401 96.444641,415.448151 
	C95.919670,404.694733 95.852303,394.469147 95.863014,384.156738 
	C95.941093,384.069916 96.100655,383.899414 96.561089,383.942383 
	C118.023903,384.044800 139.026276,384.104187 160.020325,384.621948 
	C160.035477,395.443756 160.058945,405.807281 160.082413,416.170776 
	C160.082413,416.170776 160.035416,416.122589 160.063431,416.103973 
z"/>
<path fill="#2A4455" opacity="1.000000" stroke="none" 
	d="
M95.784927,384.243561 
	C95.852303,394.469147 95.919670,404.694733 95.978722,415.378418 
	C85.616158,415.884674 75.261909,415.932831 64.442589,415.908020 
	C63.980618,405.524750 63.983723,395.214417 63.978333,384.433258 
	C63.969833,383.962402 63.891281,383.968689 64.360443,383.960022 
	C75.148041,384.048767 85.466484,384.146179 95.784927,384.243561 
z"/>
<path fill="#182C39" opacity="1.000000" stroke="none" 
	d="
M319.977417,415.835052 
	C309.638275,415.893250 299.299133,415.951447 288.495300,416.055145 
	C288.018585,405.721741 288.006531,395.342834 288.010406,384.474731 
	C288.026337,383.985535 288.050995,383.931549 288.515839,383.962524 
	C299.313293,384.050690 309.645935,384.107880 319.984680,384.623322 
	C319.986359,395.332764 319.981873,405.583893 319.977417,415.835052 
z"/>
<path fill="#2A2435" opacity="1.000000" stroke="none" 
	d="
M255.971939,415.526550 
	C245.591324,416.007080 235.224945,416.019684 224.384262,416.049500 
	C223.909958,416.066742 223.970810,416.041016 223.972000,415.596069 
	C223.958939,404.738312 223.944687,394.325470 223.939972,383.938293 
	C223.949493,383.963898 223.898422,383.944946 224.373581,383.959198 
	C235.230194,383.980011 245.611633,383.986572 255.996307,383.996338 
	C255.999512,383.999512 256.007477,384.007507 256.007477,384.007507 
	C256.000366,394.357880 255.993271,404.708252 255.971939,415.526550 
z"/>
<path fill="#2A2435" opacity="1.000000" stroke="none" 
	d="
M288.006927,384.007996 
	C277.639374,384.021088 267.291260,384.011749 256.475281,384.004944 
	C256.007477,384.007507 255.999512,383.999512 255.998642,383.528412 
	C256.000336,372.718842 256.002899,362.380402 256.473389,352.027832 
	C267.327545,352.038483 277.713776,352.063202 288.054840,352.549072 
	C288.023468,363.317352 288.037231,373.624451 288.050995,383.931549 
	C288.050995,383.931549 288.026337,383.985535 288.006927,384.007996 
z"/>
<path fill="#2A4455" opacity="1.000000" stroke="none" 
	d="
M320.442505,415.908020 
	C319.981873,405.583893 319.986359,395.332764 320.449738,384.550293 
	C331.262939,384.067200 341.617249,384.115417 351.971558,384.163635 
	C351.968903,394.512238 351.966248,404.860840 351.940735,415.690247 
	C341.581085,416.107697 331.244354,416.044342 320.442505,415.908020 
z"/>
<path fill="#182C39" opacity="1.000000" stroke="none" 
	d="
M223.930435,383.912659 
	C223.944687,394.325470 223.958939,404.738312 223.959076,415.626404 
	C213.612167,416.062531 203.279358,416.023346 192.478317,415.451477 
	C192.013809,404.667542 192.017563,394.416290 192.483337,384.090454 
	C203.273743,383.981445 213.602081,383.947052 223.930435,383.912659 
z"/>
<path fill="#2A4455" opacity="1.000000" stroke="none" 
	d="
M192.021301,384.165039 
	C192.017563,394.416290 192.013809,404.667542 192.016357,415.376953 
	C181.681046,415.896515 171.339447,415.957947 160.540131,416.095093 
	C160.058945,405.807281 160.035477,395.443756 160.482239,384.549530 
	C171.308762,384.067535 181.665024,384.116272 192.021301,384.165039 
z"/>
<path fill="#2A4455" opacity="1.000000" stroke="none" 
	d="
M256.087219,95.938545 
	C266.405273,95.962318 276.723328,95.986092 287.515167,96.483299 
	C288.002869,107.338013 288.016815,117.719292 288.030762,128.100571 
	C288.030731,138.542267 288.030731,148.983963 288.030731,159.854752 
	C298.660431,159.854752 309.042358,159.854752 319.848389,159.854752 
	C319.848389,170.653839 319.848389,181.035767 319.848389,191.841995 
	C330.647247,191.841995 341.029144,191.841995 352.007477,191.841995 
	C352.007477,202.498810 352.007477,212.735611 352.027954,223.554321 
	C352.048401,224.136200 351.924744,224.344055 351.470978,224.236267 
	C340.648315,224.099625 330.279419,224.070770 319.447754,224.024933 
	C308.686340,224.019424 298.387695,224.030899 287.614929,224.030823 
	C276.736420,223.987732 266.332001,223.956207 255.948257,223.461182 
	C255.979065,203.665451 255.887344,184.332199 256.082367,165.001831 
	C256.122986,160.976135 254.783798,159.828445 250.904373,159.925751 
	C241.910812,160.151337 232.907318,159.981293 223.907867,159.971649 
	C223.937302,149.639877 223.966736,139.308105 223.967056,128.481079 
	C223.937927,127.985840 223.991730,127.947678 224.460754,127.962082 
	C233.863281,127.983292 242.798477,127.892967 251.729385,128.048370 
	C254.956161,128.104523 256.092316,126.954193 256.050171,123.729164 
	C255.929214,114.467361 256.057098,105.202316 256.087219,95.938545 
z"/>
<path fill="#406278" opacity="1.000000" stroke="none" 
	d="
M223.445099,159.983780 
	C232.907318,159.981293 241.910812,160.151337 250.904373,159.925751 
	C254.783798,159.828445 256.122986,160.976135 256.082367,165.001831 
	C255.887344,184.332199 255.979065,203.665451 255.487228,223.487488 
	C244.657837,224.012131 234.310165,224.046982 223.496048,224.049164 
	C212.733994,224.034592 202.438370,224.052689 192.103088,223.599213 
	C192.032928,212.720963 192.002457,202.314240 191.971985,191.907532 
	C191.971985,181.475433 191.971985,171.043320 191.971985,159.995926 
	C202.527176,159.995926 212.754761,159.995926 223.445099,159.983780 
z"/>
<path fill="#2A2435" opacity="1.000000" stroke="none" 
	d="
M95.917076,255.932037 
	C95.915207,245.550522 95.968315,235.216751 96.034760,224.410919 
	C117.037949,223.955582 138.027786,223.972321 159.486023,224.060287 
	C159.954391,224.131516 160.075912,224.343750 160.053009,224.780945 
	C159.998001,235.507019 159.965881,245.795914 159.470673,256.046509 
	C138.031296,256.031769 117.055031,256.055328 96.078773,256.078857 
	C96.078773,256.078857 95.972046,255.979782 95.917076,255.932037 
z"/>
<path fill="#406278" opacity="1.000000" stroke="none" 
	d="
M127.907532,128.028015 
	C117.572426,128.010681 107.237320,127.993355 96.444626,127.448166 
	C95.870552,116.581490 95.754066,106.242661 95.637589,95.903839 
	C95.637589,95.903839 95.887535,95.757683 96.456070,95.875458 
	C118.025925,96.050026 139.027237,96.106827 160.020264,96.621964 
	C160.028534,107.431946 160.045105,117.783592 160.061676,128.135239 
	C160.061676,128.135239 160.056351,128.056168 159.617737,128.041672 
	C148.755249,128.027451 138.331390,128.027740 127.907532,128.028015 
z"/>
<path fill="#2A4455" opacity="1.000000" stroke="none" 
	d="
M160.522858,128.075317 
	C160.045105,117.783592 160.028534,107.431946 160.482178,96.549545 
	C171.308670,96.067558 181.664917,96.116310 192.015106,96.623337 
	C192.013260,107.332726 192.017471,117.583855 192.021683,127.834976 
	C181.675797,127.895119 171.329910,127.955261 160.522858,128.075317 
z"/>
<path fill="#2A4455" opacity="1.000000" stroke="none" 
	d="
M191.506851,191.948456 
	C192.002457,202.314240 192.032928,212.720963 192.071121,223.625946 
	C192.078842,224.124237 192.014984,224.073685 191.546829,224.049591 
	C180.744415,224.131561 170.410172,224.237656 160.075912,224.343750 
	C160.075912,224.343750 159.954391,224.131516 159.948624,224.009430 
	C159.942856,213.443176 159.942856,202.999008 159.942856,191.989380 
	C170.548431,191.989380 180.795074,191.989380 191.506851,191.948456 
z"/>
<path fill="#2A4455" opacity="1.000000" stroke="none" 
	d="
M127.948456,128.493149 
	C138.331390,128.027740 148.755249,128.027451 159.657257,128.044342 
	C160.135422,138.513138 160.135422,148.964737 160.135422,159.706940 
	C149.339172,159.706940 138.955551,159.706940 127.989388,159.706940 
	C127.989388,149.459839 127.989388,139.209061 127.948456,128.493149 
z"/>
<path fill="#182C39" opacity="1.000000" stroke="none" 
	d="
M192.483704,127.909584 
	C192.017471,117.583855 192.013260,107.332726 192.477173,96.548706 
	C203.288467,95.987221 213.631622,95.958641 223.983002,96.402840 
	C223.991379,107.232971 223.991547,117.590324 223.991730,127.947678 
	C223.991730,127.947678 223.937927,127.985840 223.952209,128.015472 
	C213.626251,128.024796 203.285980,128.004486 192.483704,127.909584 
z"/>
<path fill="#2A4455" opacity="1.000000" stroke="none" 
	d="
M95.198456,95.936066 
	C95.754066,106.242661 95.870552,116.581490 95.978706,127.378395 
	C85.616142,127.884651 75.261902,127.932831 64.442581,127.908020 
	C63.990818,117.546875 64.004135,107.258720 64.027939,96.504486 
	C74.278725,96.015038 84.519020,95.991669 95.198456,95.936066 
z"/>
<path fill="#2A2435" opacity="1.000000" stroke="none" 
	d="
M352.057007,224.015579 
	C373.047180,223.926559 394.028748,223.958176 415.472382,223.942383 
	C415.934418,223.894974 415.951996,224.136124 415.991028,224.677124 
	C416.069550,235.429245 416.109039,245.640366 416.148560,255.851486 
	C416.148560,255.851486 416.034851,255.965149 415.515656,255.986389 
	C394.018829,256.034210 373.041199,256.060791 352.047180,255.613220 
	C351.995453,244.874069 351.960114,234.609055 351.924744,224.344055 
	C351.924744,224.344055 352.048401,224.136200 352.057007,224.015579 
z"/>
<path fill="#406278" opacity="1.000000" stroke="none" 
	d="
M416.029114,127.836426 
	C405.692047,127.892303 395.354980,127.948181 384.080811,128.008118 
	C372.717377,128.028671 362.291077,128.045181 351.864777,128.061676 
	C351.864777,128.061676 351.943939,128.056335 351.958405,127.617752 
	C351.972443,116.840652 351.972015,106.502151 352.437378,96.093826 
	C373.898743,95.976418 394.894226,95.928833 415.920105,96.356445 
	C415.976715,107.166580 416.002899,117.501503 416.029114,127.836426 
z"/>
<path fill="#2A4455" opacity="1.000000" stroke="none" 
	d="
M351.924683,128.522842 
	C362.291077,128.045181 372.717377,128.028671 383.618103,128.020065 
	C384.092499,138.483963 384.092499,148.939972 384.092499,159.696991 
	C373.359436,159.696991 362.975281,159.696991 351.984589,159.696991 
	C351.984589,149.481262 351.984589,139.232635 351.924683,128.522842 
z"/>
<path fill="#2A4455" opacity="1.000000" stroke="none" 
	d="
M416.491028,127.908813 
	C416.002899,117.501503 415.976715,107.166580 415.960052,96.362427 
	C415.969604,95.893196 415.959991,95.973274 416.431030,95.981049 
	C427.309326,95.971695 437.716644,95.954582 448.123932,95.937469 
	C448.123932,95.937462 448.068542,95.957352 448.077454,95.929260 
	C448.060913,106.240379 448.035461,116.579605 448.016418,127.376938 
	C437.666168,127.883759 427.309540,127.932472 416.491028,127.908813 
z"/>
<path fill="#2A4455" opacity="1.000000" stroke="none" 
	d="
M351.971558,96.163643 
	C351.972015,106.502151 351.972443,116.840652 351.955688,127.657318 
	C341.595032,128.083984 331.251556,128.032501 320.449158,127.449890 
	C319.986389,116.667534 319.982544,106.416298 320.443695,96.092026 
	C331.262970,96.067207 341.617279,96.115425 351.971558,96.163643 
z"/>
<path fill="#182C39" opacity="1.000000" stroke="none" 
	d="
M319.978699,96.165054 
	C319.982544,106.416298 319.986389,116.667534 319.984131,127.376877 
	C309.638702,127.893196 299.299377,127.951401 288.495422,128.055084 
	C288.016815,117.719292 288.002869,107.338013 287.982269,96.489517 
	C287.975586,96.022301 288.017365,95.981812 288.502289,95.988098 
	C299.317719,96.051270 309.648193,96.108162 319.978699,96.165054 
z"/>
<path fill="#182C39" opacity="1.000000" stroke="none" 
	d="
M416.602844,255.897675 
	C416.109039,245.640366 416.069550,235.429245 416.052979,224.780945 
	C426.410339,224.237457 436.744812,224.131149 447.547119,224.049255 
	C448.015778,234.392899 448.016571,244.712143 448.061829,255.495270 
	C437.756592,255.954056 427.406891,255.948959 416.602844,255.897675 
z"/>
<path fill="#FFFFFF" opacity="1.000000" stroke="none" 
	d="
M223.974792,95.930061 
	C213.631622,95.958641 203.288467,95.987221 192.483246,96.090439 
	C181.664917,96.116310 171.308670,96.067558 160.490479,96.091217 
	C139.027237,96.106827 118.025925,96.050026 96.562813,95.973251 
	C96.101013,85.489838 96.101013,75.026390 96.101013,64.008049 
	C138.500748,64.008049 180.732834,64.008049 223.473984,64.506821 
	C223.980301,75.313751 223.977539,85.621910 223.974792,95.930061 
z"/>
<path fill="#FFFFFF" opacity="1.000000" stroke="none" 
	d="
M320.443695,96.092026 
	C309.648193,96.108162 299.317719,96.051270 288.523010,95.967697 
	C288.058838,85.476700 288.058838,75.012375 288.058838,64.008545 
	C330.524658,64.008545 372.765900,64.008545 415.470032,64.049133 
	C415.932922,64.089714 415.958984,64.029007 415.974670,64.505325 
	C415.980225,75.312187 415.970123,85.642731 415.959991,95.973274 
	C415.959991,95.973274 415.969604,95.893196 415.929688,95.887222 
	C394.894226,95.928833 373.898743,95.976418 352.437378,96.093826 
	C341.617279,96.115425 331.262970,96.067207 320.443695,96.092026 
z"/>
<path fill="#406278" opacity="1.000000" stroke="none" 
	d="
M223.982986,96.402840 
	C223.977539,85.621910 223.980301,75.313751 223.934021,64.545013 
	C232.993668,64.056526 242.106110,64.171570 251.209137,63.930378 
	C254.853561,63.833817 256.177155,64.902939 256.076477,68.682953 
	C255.842880,77.454407 256.017365,86.236725 256.056824,95.476593 
	C256.057098,105.202316 255.929214,114.467361 256.050171,123.729164 
	C256.092316,126.954193 254.956161,128.104523 251.729385,128.048370 
	C242.798477,127.892967 233.863281,127.983292 224.460754,127.962082 
	C223.991547,117.590324 223.991379,107.232971 223.982986,96.402840 
z"/>
<path fill="#182C39" opacity="1.000000" stroke="none" 
	d="
M416.431030,95.981049 
	C415.970123,85.642731 415.980225,75.312187 415.944397,64.518372 
	C426.278198,64.052666 436.657928,64.050217 447.500397,64.090530 
	C447.979340,74.426941 447.995575,84.720596 448.067871,95.475861 
	C437.716644,95.954582 427.309326,95.971695 416.431030,95.981049 
z"/>
<path fill="#406278" opacity="1.000000" stroke="none" 
	d="
M95.863007,384.156738 
	C85.466484,384.146179 75.148041,384.048767 64.354210,383.921143 
	C63.920719,373.560364 63.962620,363.229828 64.017479,352.429932 
	C64.030434,351.960541 64.003349,352.046631 64.433258,352.025269 
	C75.122711,352.003906 85.382248,352.003906 96.100655,352.003906 
	C96.100655,363.001526 96.100655,373.450470 96.100655,383.899414 
	C96.100655,383.899414 95.941093,384.069916 95.863007,384.156738 
z"/>
<path fill="#FFFFFF" opacity="1.000000" stroke="none" 
	d="
M352.063568,256.087372 
	C373.041199,256.060791 394.018829,256.034210 415.458862,256.043274 
	C415.946442,266.395691 415.971588,276.712463 415.976349,287.460571 
	C415.955963,287.891907 415.885620,287.893951 415.427185,287.939087 
	C394.018555,287.981018 373.068329,287.977783 352.064819,287.510162 
	C352.040039,276.715088 352.068573,266.384399 352.066956,256.040344 
	C352.036835,256.027008 352.063568,256.087372 352.063568,256.087372 
z"/>
<path fill="#2A4455" opacity="1.000000" stroke="none" 
	d="
M447.508423,288.013153 
	C447.974060,298.402649 447.973633,308.785370 447.495117,319.590942 
	C436.688049,319.954712 426.359100,319.895630 416.021576,319.378357 
	C415.970551,308.578125 415.928070,298.236023 415.885620,287.893951 
	C415.885620,287.893951 415.955963,287.891907 415.961212,287.926575 
	C426.325073,287.976288 436.683716,287.991333 447.508423,288.013153 
z"/>
<path fill="#FFFFFF" opacity="1.000000" stroke="none" 
	d="
M416.030121,319.836548 
	C426.359100,319.895630 436.688049,319.954712 447.479187,320.066895 
	C447.958740,330.456909 447.976074,340.793854 447.962463,351.603516 
	C447.931519,352.076263 448.000275,352.002777 447.562897,351.998047 
	C436.784180,351.993317 426.442841,351.993317 415.960083,351.993317 
	C415.960083,363.135925 415.960083,373.554504 415.960083,383.973114 
	C415.960083,383.973114 415.969543,383.893097 415.929626,383.887207 
	C394.894226,383.928864 373.898712,383.976440 352.437378,384.093811 
	C341.617249,384.115417 331.262939,384.067200 320.443604,384.092010 
	C309.645935,384.107880 299.313293,384.050690 288.515839,383.962524 
	C288.037231,373.624451 288.023468,363.317352 288.029053,352.534790 
	C288.048370,352.059357 288.059723,352.117279 288.521790,352.064240 
	C299.229431,352.011200 309.474976,352.011200 320.057892,352.011200 
	C320.057892,341.010803 320.057892,330.565887 320.520111,320.067383 
	C331.301056,320.054382 341.619812,320.094910 351.941223,320.095886 
	C351.943939,320.056335 351.864777,320.061646 351.924683,320.522827 
	C351.984589,331.232605 351.984589,341.481262 351.984589,351.696991 
	C362.975372,351.696991 373.359467,351.696991 384.092560,351.696991 
	C384.092560,340.939941 384.092560,330.483917 384.555267,320.015991 
	C395.355347,319.948212 405.692749,319.892365 416.030121,319.836548 
z"/>
<path fill="#182C39" opacity="1.000000" stroke="none" 
	d="
M416.431091,383.980957 
	C415.960083,373.554504 415.960083,363.135925 415.960083,351.993317 
	C426.442841,351.993317 436.784180,351.993317 447.597717,351.961731 
	C448.050537,362.291504 448.031158,372.652893 448.067871,383.475891 
	C437.716675,383.954590 427.309387,383.971680 416.431091,383.980957 
z"/>
<path fill="#FFFFFF" opacity="1.000000" stroke="none" 
	d="
M96.561089,383.942383 
	C96.100655,373.450470 96.100655,363.001526 96.100655,352.003906 
	C85.382248,352.003906 75.122711,352.003906 64.389252,352.015320 
	C63.945400,341.698395 63.975464,331.370026 64.493927,320.527771 
	C75.311378,319.954773 85.640427,319.895691 96.435516,319.906311 
	C107.236862,319.993378 117.572189,320.010681 127.948448,320.493103 
	C127.989388,331.209045 127.989388,341.459808 127.989388,351.706909 
	C138.955597,351.706909 149.339096,351.706909 160.135483,351.706909 
	C160.135483,340.964691 160.135483,330.513092 160.095886,320.058777 
	C160.056305,320.056122 160.061630,320.135284 160.522766,320.075317 
	C171.303314,320.050598 181.622726,320.085785 191.968323,320.581421 
	C191.994492,331.283112 191.994492,341.524384 191.994492,352.124207 
	C203.038071,352.124207 213.487885,352.124207 223.949493,352.093994 
	C223.961304,352.063751 223.899994,352.085144 223.945221,352.546509 
	C223.959763,363.320221 223.929092,373.632568 223.898407,383.944946 
	C223.898422,383.944946 223.949493,383.963898 223.939972,383.938293 
	C213.602081,383.947052 203.273743,383.981445 192.483337,384.090424 
	C181.665024,384.116272 171.308762,384.067535 160.490570,384.091187 
	C139.026276,384.104187 118.023903,384.044800 96.561089,383.942383 
z"/>
<path fill="#2A4455" opacity="1.000000" stroke="none" 
	d="
M95.969482,319.836578 
	C85.640427,319.895691 75.311378,319.954773 64.520157,320.067322 
	C64.041374,309.731445 64.024750,299.342072 64.016800,288.486298 
	C74.381134,288.007538 84.736794,287.995209 95.568314,287.937500 
	C96.044182,287.892120 96.114571,287.894196 96.082016,288.367981 
	C96.022804,299.173340 95.996140,309.504974 95.969482,319.836578 
z"/>
<path fill="#FFFFFF" opacity="1.000000" stroke="none" 
	d="
M96.043213,256.541321 
	C117.055031,256.055328 138.031296,256.031769 159.480118,256.021606 
	C159.952682,256.034943 159.903015,256.053772 159.946808,256.517303 
	C159.982697,267.306549 159.974777,277.632263 159.960251,287.922913 
	C159.953629,287.887817 159.883087,287.898865 159.423569,287.942078 
	C138.014221,287.954895 117.064400,287.924561 96.114571,287.894196 
	C96.114571,287.894196 96.044182,287.892120 96.038971,287.926819 
	C96.025055,277.642273 96.016350,267.323029 96.043213,256.541321 
z"/>
<path fill="#182C39" opacity="1.000000" stroke="none" 
	d="
M224.373566,383.959198 
	C223.929092,373.632568 223.959763,363.320221 224.419922,352.523743 
	C235.234741,352.040405 245.620087,352.041168 256.005432,352.041931 
	C256.002899,362.380402 256.000336,372.718842 255.995422,383.525208 
	C245.611633,383.986572 235.230194,383.980011 224.373566,383.959198 
z"/>
<path fill="#2A4455" opacity="1.000000" stroke="none" 
	d="
M256.473389,352.027832 
	C245.620087,352.041168 235.234741,352.040405 224.374695,352.062378 
	C223.899994,352.085144 223.961304,352.063751 223.966309,351.617188 
	C223.985321,340.787048 223.999329,330.403473 224.480591,320.013245 
	C245.960800,320.011017 266.973755,320.015472 287.990387,320.487305 
	C288.015961,331.342224 288.037842,341.729767 288.059723,352.117279 
	C288.059723,352.117279 288.048370,352.059357 288.074158,352.073639 
	C277.713776,352.063202 267.327545,352.038483 256.473389,352.027832 
z"/>
<path fill="#182C39" opacity="1.000000" stroke="none" 
	d="
M223.962494,224.081833 
	C234.310165,224.046982 244.657837,224.012131 255.466537,223.950989 
	C266.332001,223.956207 276.736420,223.987732 287.577728,224.494720 
	C288.035736,235.299301 288.056854,245.628448 288.039856,255.965652 
	C288.001770,255.973724 287.945618,256.027527 287.480774,256.019775 
	C276.652313,256.033752 266.288727,256.055481 255.463959,256.050446 
	C244.678223,256.017151 234.353683,256.010590 224.012466,255.989746 
	C223.995773,255.975510 223.953384,255.987595 223.972900,255.520081 
	C223.982452,244.728989 223.972473,234.405411 223.962494,224.081833 
z"/>
<path fill="#FFA05E" opacity="1.000000" stroke="none" 
	d="
M288.077942,255.957581 
	C288.056854,245.628448 288.035736,235.299301 288.051819,224.506271 
	C298.387695,224.030899 308.686340,224.019424 319.485107,224.488831 
	C319.955017,235.299286 319.924774,245.628860 319.432800,255.975677 
	C308.673401,255.981155 298.375671,255.969360 288.077942,255.957581 
z"/>
<path fill="#182C39" opacity="1.000000" stroke="none" 
	d="
M319.894531,255.958435 
	C319.924774,245.628860 319.955017,235.299286 319.947876,224.505829 
	C330.279419,224.070770 340.648315,224.099625 351.470978,224.236267 
	C351.960114,234.609055 351.995453,244.874069 352.047180,255.613220 
	C352.063568,256.087372 352.036835,256.027008 351.591980,256.026550 
	C340.729614,256.003571 330.312073,255.980988 319.894531,255.958435 
z"/>
<path fill="#FFA05E" opacity="1.000000" stroke="none" 
	d="
M223.496048,224.049164 
	C223.972473,234.405411 223.982452,244.728989 223.507965,255.525146 
	C212.717514,255.984665 202.411545,255.971588 192.061371,255.494324 
	C192.016449,244.711334 192.015717,234.392502 192.014984,224.073685 
	C192.014984,224.073685 192.078842,224.124237 192.110809,224.097504 
	C202.438370,224.052689 212.733994,224.034592 223.496048,224.049164 
z"/>
<path fill="#182C39" opacity="1.000000" stroke="none" 
	d="
M191.546829,224.049591 
	C192.015717,234.392502 192.016449,244.711334 191.586090,255.505554 
	C180.737686,256.005219 170.320343,256.029480 159.903015,256.053772 
	C159.903015,256.053772 159.952682,256.034943 159.943237,256.059875 
	C159.965881,245.795914 159.998001,235.507019 160.053009,224.780945 
	C170.410172,224.237656 180.744415,224.131561 191.546829,224.049591 
z"/>
<path fill="#2A2435" opacity="1.000000" stroke="none" 
	d="
M319.432800,255.975677 
	C330.312073,255.980988 340.729614,256.003571 351.622131,256.039917 
	C352.068573,266.384399 352.040039,276.715088 351.953247,287.417633 
	C351.895020,287.789459 351.640930,287.929901 351.202332,287.953400 
	C340.517670,287.991241 330.271576,288.005554 319.555298,288.014496 
	C308.725647,288.008331 298.366211,288.007538 288.002991,288.002991 
	C287.999176,287.999176 287.992523,287.992523 287.995056,287.524658 
	C287.980255,276.713684 287.962952,266.370605 287.945618,256.027527 
	C287.945618,256.027527 288.001770,255.973724 288.039856,255.965652 
	C298.375671,255.969360 308.673401,255.981155 319.432800,255.975677 
z"/>
<path fill="#406278" opacity="1.000000" stroke="none" 
	d="
M416.021576,319.378357 
	C405.692749,319.892365 395.355347,319.948212 384.080872,320.008118 
	C372.717407,320.028656 362.291107,320.045135 351.864777,320.061646 
	C351.864777,320.061646 351.943939,320.056335 351.958374,319.617737 
	C351.862183,308.762695 351.751556,298.346313 351.640930,287.929901 
	C351.640930,287.929901 351.895020,287.789459 352.006592,287.881989 
	C373.068329,287.977783 394.018555,287.981018 415.427185,287.939087 
	C415.928070,298.236023 415.970551,308.578125 416.021576,319.378357 
z"/>
<path fill="#182C39" opacity="1.000000" stroke="none" 
	d="
M288.006805,288.006775 
	C298.366211,288.007538 308.725647,288.008331 319.546570,288.480896 
	C320.024689,299.342133 320.041290,309.731537 320.057861,320.120972 
	C320.057892,330.565887 320.057892,341.010803 320.057892,352.011200 
	C309.474976,352.011200 299.229431,352.011200 288.521790,352.064240 
	C288.037842,341.729767 288.015961,331.342224 287.994873,320.016479 
	C287.999390,308.721100 288.003082,298.363953 288.006805,288.006775 
z"/>
<path fill="#2A4455" opacity="1.000000" stroke="none" 
	d="
M351.924683,320.522827 
	C362.291107,320.045135 372.717407,320.028656 383.618164,320.020020 
	C384.092560,330.483917 384.092560,340.939941 384.092560,351.696991 
	C373.359467,351.696991 362.975372,351.696991 351.984589,351.696991 
	C351.984589,341.481262 351.984589,331.232605 351.924683,320.522827 
z"/>
<path fill="#2A4455" opacity="1.000000" stroke="none" 
	d="
M320.520081,320.067383 
	C320.041290,309.731537 320.024689,299.342133 320.016785,288.486267 
	C330.271576,288.005554 340.517670,287.991241 351.202332,287.953400 
	C351.751556,298.346313 351.862183,308.762695 351.955688,319.657288 
	C341.619812,320.094910 331.301056,320.054382 320.520081,320.067383 
z"/>
<path fill="#406278" opacity="1.000000" stroke="none" 
	d="
M96.082016,288.367981 
	C117.064400,287.924561 138.014221,287.954895 159.456848,288.415161 
	C159.986984,299.275116 160.024307,309.705200 160.061630,320.135284 
	C160.061630,320.135284 160.056305,320.056122 159.617737,320.041626 
	C148.755280,320.027435 138.331390,320.027710 127.907509,320.027985 
	C117.572189,320.010681 107.236862,319.993378 96.435516,319.906311 
	C95.996140,309.504974 96.022804,299.173340 96.082016,288.367981 
z"/>
<path fill="#182C39" opacity="1.000000" stroke="none" 
	d="
M224.013321,320.019928 
	C223.999329,330.403473 223.985321,340.787048 223.954514,351.647400 
	C213.487885,352.124207 203.038071,352.124207 191.994492,352.124207 
	C191.994492,341.524384 191.994492,331.283112 191.983749,320.105347 
	C191.973602,308.785797 191.974197,298.402771 192.445908,288.013184 
	C203.268402,288.013855 213.619781,288.020996 223.980682,288.493835 
	C223.997925,299.312988 224.005630,309.666443 224.013321,320.019928 
z"/>
<path fill="#2A4455" opacity="1.000000" stroke="none" 
	d="
M127.948448,320.493103 
	C138.331390,320.027710 148.755280,320.027435 159.657318,320.044312 
	C160.135483,330.513092 160.135483,340.964691 160.135483,351.706909 
	C149.339096,351.706909 138.955597,351.706909 127.989388,351.706909 
	C127.989388,341.459808 127.989388,331.209045 127.948448,320.493103 
z"/>
<path fill="#2A4455" opacity="1.000000" stroke="none" 
	d="
M191.974777,288.019714 
	C191.974197,298.402771 191.973602,308.785797 191.957581,319.644928 
	C181.622726,320.085785 171.303314,320.050598 160.522766,320.075317 
	C160.024307,309.705200 159.986984,299.275116 159.916382,288.371948 
	C159.883087,287.898865 159.953629,287.887817 160.430267,287.935974 
	C171.262863,287.996002 181.618820,288.007843 191.974777,288.019714 
z"/>
<path fill="#2A2435" opacity="1.000000" stroke="none" 
	d="
M192.445908,288.013184 
	C181.618820,288.007843 171.262863,287.996002 160.436890,287.971069 
	C159.974777,277.632263 159.982697,267.306549 159.946808,256.517273 
	C170.320343,256.029480 180.737686,256.005219 191.630280,255.969727 
	C202.411545,255.971588 212.717514,255.984665 223.488434,255.992676 
	C223.953384,255.987595 223.995773,255.975510 224.003540,256.458099 
	C224.023178,267.278107 224.035065,277.615540 224.028046,287.971771 
	C224.009125,287.990601 223.971146,288.028137 223.971146,288.028137 
	C213.619781,288.020996 203.268402,288.013855 192.445908,288.013184 
z"/>
<path fill="#2A2435" opacity="1.000000" stroke="none" 
	d="
M224.480591,320.013245 
	C224.005630,309.666443 223.997925,299.312988 223.980682,288.493835 
	C223.971146,288.028137 224.009125,287.990601 224.491516,287.988556 
	C235.291855,287.963593 245.609818,287.940643 256.400482,287.940369 
	C267.246277,287.972870 277.619415,287.982697 287.992523,287.992523 
	C287.992523,287.992523 287.999176,287.999176 288.002991,288.002991 
	C288.003082,298.363953 287.999390,308.721100 287.991211,319.549103 
	C266.973755,320.015472 245.960800,320.011017 224.480591,320.013245 
z"/>
<path fill="#2A4455" opacity="1.000000" stroke="none" 
	d="
M287.995056,287.524658 
	C277.619415,287.982697 267.246277,287.972870 256.424438,287.480347 
	C255.958847,276.690826 255.942001,266.384033 255.925156,256.077209 
	C266.288727,256.055481 276.652313,256.033752 287.480774,256.019775 
	C287.962952,266.370605 287.980255,276.713684 287.995056,287.524658 
z"/>
<path fill="#406278" opacity="1.000000" stroke="none" 
	d="
M255.463959,256.050476 
	C255.942001,266.384033 255.958847,276.690826 255.951752,287.457703 
	C245.609818,287.940643 235.291855,287.963593 224.510422,287.969727 
	C224.035065,277.615540 224.023178,267.278107 224.020233,256.472351 
	C234.353683,256.010590 244.678223,256.017151 255.463959,256.050476 
z"/>
</svg>