<?xml version="1.0" encoding="UTF-8"?>
<svg version="1.1" xmlns="http://www.w3.org/2000/svg" width="300" height="300">
<path d="M0 0 C17.82 0 35.64 0 54 0 C54.495 9.405 54.495 9.405 55 19 C56.57652344 19.78246094 58.15304688 20.56492187 59.77734375 21.37109375 C61.83078135 22.39312433 63.88416393 23.41526545 65.9375 24.4375 C66.97841797 24.95376953 68.01933594 25.47003906 69.09179688 26.00195312 C70.08115234 26.49501953 71.07050781 26.98808594 72.08984375 27.49609375 C73.00628662 27.95169678 73.92272949 28.4072998 74.86694336 28.87670898 C77 30 77 30 78 31 C78.08651611 32.41570123 78.10704904 33.835595 78.09765625 35.25390625 C78.09282227 36.53491211 78.09282227 36.53491211 78.08789062 37.84179688 C78.07532227 39.18854492 78.07532227 39.18854492 78.0625 40.5625 C78.05798828 41.46419922 78.05347656 42.36589844 78.04882812 43.29492188 C78.03700225 45.53001314 78.0205222 47.76497437 78 50 C80.97 50.99 80.97 50.99 84 52 C90.27 55.3 96.54 58.6 103 62 C103 98.3 103 134.6 103 172 C90.91375 178.125625 78.8275 184.25125 66.375 190.5625 C62.56630371 192.50326416 58.75760742 194.44402832 54.83349609 196.44360352 C50.16333008 198.79675293 50.16333008 198.79675293 47.97329712 199.89512634 C46.44891317 200.66345096 44.92770775 201.4381021 43.40908813 202.21775818 C41.10470073 203.39926806 38.79094463 204.56015063 36.47412109 205.71704102 C35.80245092 206.06726853 35.13078075 206.41749605 34.43875694 206.77833652 C30.15731942 208.88158649 27.56649095 209.40396934 23 208 C20.50385158 206.92569111 18.12291821 205.81510935 15.70947266 204.58178711 C14.99507208 204.22482789 14.2806715 203.86786867 13.54462242 203.50009251 C11.24728457 202.34993821 8.95564251 201.18892013 6.6640625 200.02734375 C5.24084287 199.31279109 3.81726029 198.59896085 2.39331055 197.88586426 C-2.86719161 195.2451538 -8.12067881 192.59048765 -13.375 189.9375 C-31.009375 181.0584375 -31.009375 181.0584375 -49 172 C-49 135.7 -49 99.4 -49 62 C-30 52 -30 52 -24 50 C-24 43.73 -24 37.46 -24 31 C-20.91693345 29.37449215 -17.83355841 27.74957432 -14.75 26.125 C-13.87730469 25.66480469 -13.00460938 25.20460938 -12.10546875 24.73046875 C-11.26113281 24.28574219 -10.41679688 23.84101562 -9.546875 23.3828125 C-8.77182617 22.97434082 -7.99677734 22.56586914 -7.19824219 22.14501953 C-5.14345108 21.07472074 -3.07223667 20.03611833 -1 19 C-0.67 12.73 -0.34 6.46 0 0 Z " fill="#2C303C" transform="translate(123,91)"/>
<path d="M0 0 C17.82 0 35.64 0 54 0 C54.495 9.405 54.495 9.405 55 19 C56.57652344 19.78246094 58.15304688 20.56492187 59.77734375 21.37109375 C61.83078135 22.39312433 63.88416393 23.41526545 65.9375 24.4375 C66.97841797 24.95376953 68.01933594 25.47003906 69.09179688 26.00195312 C70.08115234 26.49501953 71.07050781 26.98808594 72.08984375 27.49609375 C73.00628662 27.95169678 73.92272949 28.4072998 74.86694336 28.87670898 C77 30 77 30 78 31 C78.08651611 32.41570123 78.10704904 33.835595 78.09765625 35.25390625 C78.09282227 36.53491211 78.09282227 36.53491211 78.08789062 37.84179688 C78.07532227 39.18854492 78.07532227 39.18854492 78.0625 40.5625 C78.05798828 41.46419922 78.05347656 42.36589844 78.04882812 43.29492188 C78.03700225 45.53001314 78.0205222 47.76497437 78 50 C79.17949219 50.33644531 79.17949219 50.33644531 80.3828125 50.6796875 C85.12315644 52.40996423 89.43668806 54.73873891 93.875 57.125 C94.75414062 57.59292969 95.63328125 58.06085938 96.5390625 58.54296875 C98.69494271 59.6912093 100.84846777 60.84363903 103 62 C99.64614597 64.7264266 96.0029342 66.64016467 92.15185547 68.5534668 C91.13167328 69.06618637 91.13167328 69.06618637 90.09088135 69.58926392 C87.85164021 70.71327113 85.60953768 71.83142843 83.3671875 72.94921875 C81.80816124 73.72940561 80.2492538 74.50982995 78.69046021 75.29048157 C75.42856097 76.92290365 72.16523575 78.55242987 68.90087891 80.17993164 C64.71034939 82.26948612 60.5234661 84.36623081 56.33761406 86.46513653 C53.1221128 88.07649364 49.90472287 89.68404898 46.68674088 91.29044533 C45.14153381 92.06238052 43.59692292 92.83551024 42.05291367 93.60983849 C39.90030204 94.68867366 37.74520712 95.76237425 35.58935547 96.8347168 C34.9482785 97.15727951 34.30720154 97.47984222 33.646698 97.81217957 C29.22853389 100 29.22853389 100 27 100 C27 125.74 27 151.48 27 178 C21 176 21 176 14 172 C14 151.21 14 130.42 14 109 C11.03 108.01 11.03 108.01 8 107 C6.41078997 106.28529243 4.83654355 105.53629647 3.27978516 104.75341797 C2.38718994 104.30699951 1.49459473 103.86058105 0.57495117 103.40063477 C-0.34439209 102.93584717 -1.26373535 102.47105957 -2.2109375 101.9921875 C-3.06985596 101.56172119 -3.92877441 101.13125488 -4.8137207 100.68774414 C-8.00301994 99.08788647 -11.1888057 97.48103241 -14.375 95.875 C-25.079375 90.491875 -25.079375 90.491875 -36 85 C-36 110.41 -36 135.82 -36 162 C-19.5 170.25 -3 178.5 14 187 C14 192.28 14 197.56 14 203 C-7.15167044 192.98078769 -28.06624204 182.46687898 -49 172 C-49 135.7 -49 99.4 -49 62 C-30 52 -30 52 -24 50 C-24 43.73 -24 37.46 -24 31 C-20.91693345 29.37449215 -17.83355841 27.74957432 -14.75 26.125 C-13.87730469 25.66480469 -13.00460938 25.20460938 -12.10546875 24.73046875 C-11.26113281 24.28574219 -10.41679688 23.84101562 -9.546875 23.3828125 C-8.77182617 22.97434082 -7.99677734 22.56586914 -7.19824219 22.14501953 C-5.14345108 21.07472074 -3.07223667 20.03611833 -1 19 C-0.67 12.73 -0.34 6.46 0 0 Z " fill="#3C4152" transform="translate(123,91)"/>
<path d="M0 0 C17.82 0 35.64 0 54 0 C54.495 9.405 54.495 9.405 55 19 C56.57652344 19.78246094 58.15304688 20.56492187 59.77734375 21.37109375 C61.83078135 22.39312433 63.88416393 23.41526545 65.9375 24.4375 C66.97841797 24.95376953 68.01933594 25.47003906 69.09179688 26.00195312 C70.08115234 26.49501953 71.07050781 26.98808594 72.08984375 27.49609375 C73.00628662 27.95169678 73.92272949 28.4072998 74.86694336 28.87670898 C77 30 77 30 78 31 C78.08790975 33.29151417 78.10694038 35.58572524 78.09765625 37.87890625 C78.0962413 38.5655687 78.09482635 39.25223114 78.09336853 39.95970154 C78.08775479 42.16067801 78.07520007 44.36155409 78.0625 46.5625 C78.05748676 48.05143083 78.05292355 49.54036324 78.04882812 51.02929688 C78.03778093 54.68623075 78.02050713 58.34310558 78 62 C67.070352 67.85025239 56.05977746 73.53366474 44.98199463 79.09762573 C43.6176615 79.78321362 42.25401402 80.47016765 40.89105225 81.15847778 C38.95936739 82.13324173 37.02504837 83.10255904 35.08984375 84.0703125 C33.40169556 84.91746826 33.40169556 84.91746826 31.67944336 85.78173828 C29 87 29 87 27 87 C27 76.77 27 66.54 27 56 C25.02 55.34 23.04 54.68 21 54 C19.41078997 53.28529243 17.83654355 52.53629647 16.27978516 51.75341797 C15.39932526 51.31311249 14.51886536 50.87280701 13.61172485 50.41915894 C12.68024628 49.94825836 11.7487677 49.47735779 10.7890625 48.9921875 C9.82092621 48.50670441 8.85278992 48.02122131 7.85531616 47.52102661 C4.77663915 45.97610983 1.70079749 44.42564044 -1.375 42.875 C-3.46726304 41.82385068 -5.55970896 40.7730653 -7.65234375 39.72265625 C-12.77035551 37.15265018 -17.88605337 34.57808475 -23 32 C-23 31.34 -23 30.68 -23 30 C-15.74 26.37 -8.48 22.74 -1 19 C-0.67 12.73 -0.34 6.46 0 0 Z " fill="#464D62" transform="translate(123,91)"/>
<path d="M0 0 C17.18878477 7.9741785 34.04054887 16.52027443 51 25 C51 50.74 51 76.48 51 103 C47.10565198 101.70188399 43.88022149 100.56490794 40.2956543 98.76928711 C38.97980598 98.11367043 38.97980598 98.11367043 37.63737488 97.44480896 C36.70903336 96.97704544 35.78069183 96.50928192 34.82421875 96.02734375 C33.85845413 95.54423233 32.89268951 95.06112091 31.8976593 94.56336975 C29.86531086 93.54568958 27.83393123 92.52607262 25.8034668 91.50463867 C22.68312999 89.93530215 19.55960773 88.37245465 16.43554688 86.81054688 C14.46074771 85.82069104 12.4861318 84.83046951 10.51171875 83.83984375 C9.10402473 83.13516212 9.10402473 83.13516212 7.66789246 82.41624451 C6.80642105 81.98231888 5.94494965 81.54839325 5.05737305 81.10131836 C3.9153669 80.52745644 3.9153669 80.52745644 2.75028992 79.94200134 C1 79 1 79 0 78 C-0.09498646 75.56603981 -0.12558417 73.16057048 -0.11352539 70.72631836 C-0.11367142 69.96539383 -0.11381744 69.2044693 -0.1139679 68.42048645 C-0.11326862 65.89357702 -0.10547555 63.36674038 -0.09765625 60.83984375 C-0.09579212 59.0924941 -0.0943682 57.34514393 -0.09336853 55.59779358 C-0.08954293 50.98968066 -0.07971229 46.38159905 -0.06866455 41.77349854 C-0.05845134 37.07491479 -0.0538711 32.37632601 -0.04882812 27.67773438 C-0.03809005 18.45180913 -0.02101313 9.22590716 0 0 Z " fill="#59C2C7" transform="translate(86,175)"/>
<path d="M0 0 C0 25.74 0 51.48 0 78 C-22.54655531 89.86660806 -22.54655531 89.86660806 -33.14086914 95.16308594 C-35.12540731 96.15648962 -37.10661478 97.15635827 -39.08789062 98.15625 C-40.36178523 98.79465797 -41.63586587 99.43269489 -42.91015625 100.0703125 C-44.59830444 100.91746826 -44.59830444 100.91746826 -46.32055664 101.78173828 C-49 103 -49 103 -51 103 C-51 77.26 -51 51.52 -51 25 C-38.6559375 18.8125 -38.6559375 18.8125 -26.0625 12.5 C-23.46125244 11.19482422 -20.86000488 9.88964844 -18.17993164 8.54492188 C-16.13175248 7.51937286 -14.08349917 6.49397189 -12.03515625 5.46875 C-10.96068237 4.92895508 -9.8862085 4.38916016 -8.7791748 3.83300781 C-7.76415894 3.32543945 -6.74914307 2.81787109 -5.70336914 2.29492188 C-4.81734512 1.85079956 -3.93132111 1.40667725 -3.01844788 0.94909668 C-1 0 -1 0 0 0 Z " fill="#439195" transform="translate(214,175)"/>
<path d="M0 0 C0 10.23 0 20.46 0 31 C-10.94206565 36.82978907 -21.93913215 42.53311708 -33.01800537 48.09762573 C-34.3823385 48.78321362 -35.74598598 49.47016765 -37.10894775 50.15847778 C-39.04063261 51.13324173 -40.97495163 52.10255904 -42.91015625 53.0703125 C-44.03558838 53.63508301 -45.16102051 54.19985352 -46.32055664 54.78173828 C-49 56 -49 56 -51 56 C-51 45.77 -51 35.54 -51 25 C-44.50476866 21.74191191 -38.00937546 18.48419617 -31.51210785 15.23017883 C-28.48679631 13.7148781 -25.46184601 12.19886601 -22.43774414 10.68115234 C-18.97131453 8.94148688 -15.50328412 7.20502761 -12.03515625 5.46875 C-10.94662857 4.92190552 -9.85810089 4.37506104 -8.73658752 3.81164551 C-7.73562546 3.31112671 -6.73466339 2.81060791 -5.70336914 2.29492188 C-4.81734512 1.85079956 -3.93132111 1.40667725 -3.01844788 0.94909668 C-1 0 -1 0 0 0 Z " fill="#282C36" transform="translate(201,122)"/>
<path d="M0 0 C17.82 0 35.64 0 54 0 C54 10.23 54 20.46 54 31 C48.06 31 42.12 31 36 31 C36 25.72 36 20.44 36 15 C30.06 15 24.12 15 18 15 C18 20.28 18 25.56 18 31 C12.06 31 6.12 31 0 31 C0 20.77 0 10.54 0 0 Z " fill="#282B36" transform="translate(123,91)"/>
<path d="M0 0 C17.1641458 8.00993471 34.07891663 16.4924843 51 25 C51 35.23 51 45.46 51 56 C45.90358688 54.30119563 42.48437002 52.69062201 38 50 C38 44.72 38 39.44 38 34 C36.02 33.34 34.04 32.68 32 32 C30.47651051 31.31237354 28.96723523 30.59207584 27.4765625 29.8359375 C26.28740234 29.23652344 26.28740234 29.23652344 25.07421875 28.625 C24.26597656 28.2125 23.45773438 27.8 22.625 27.375 C21.79355469 26.95476562 20.96210937 26.53453125 20.10546875 26.1015625 C18.06846481 25.07135361 16.0339751 24.03617599 14 23 C13.67 27.62 13.34 32.24 13 37 C7 35 7 35 0 31 C0 20.77 0 10.54 0 0 Z " fill="#027B7F" transform="translate(86,175)"/>
<path d="M0 0 C0 10.23 0 20.46 0 31 C-11 37 -11 37 -13 37 C-13.33 32.38 -13.66 27.76 -14 23 C-28.30356503 27.68770967 -28.30356503 27.68770967 -39.07373047 37.05810547 C-39.61195898 39.98308515 -39.46147591 42.58702133 -39.16210938 45.53125 C-38.96484375 47.52734375 -38.96484375 47.52734375 -39 51 C-41.92905063 53.92905063 -44.99799592 55.09438843 -49 56 C-49.66 56 -50.32 56 -51 56 C-51 45.77 -51 35.54 -51 25 C-44.50476866 21.74191191 -38.00937546 18.48419617 -31.51210785 15.23017883 C-28.48679631 13.7148781 -25.46184601 12.19886601 -22.43774414 10.68115234 C-18.97131453 8.94148688 -15.50328412 7.20502761 -12.03515625 5.46875 C-10.94662857 4.92190552 -9.85810089 4.37506104 -8.73658752 3.81164551 C-7.73562546 3.31112671 -6.73466339 2.81060791 -5.70336914 2.29492188 C-4.81734512 1.85079956 -3.93132111 1.40667725 -3.01844788 0.94909668 C-1 0 -1 0 0 0 Z " fill="#1A7B80" transform="translate(214,175)"/>
<path d="M0 0 C6.435 2.97 6.435 2.97 13 6 C13 21.51 13 37.02 13 53 C8.1968042 51.39893473 3.89423462 49.5793381 -0.5859375 47.3046875 C-1.28772125 46.95238068 -1.989505 46.60007385 -2.71255493 46.23709106 C-4.93529034 45.12016304 -7.15516549 43.99768046 -9.375 42.875 C-10.88913684 42.11291144 -12.40345796 41.35118888 -13.91796875 40.58984375 C-17.61448646 38.731463 -21.30707772 36.86558444 -25 35 C-25 29.72 -25 24.44 -25 19 C-21.95794907 20.43669138 -18.91634953 21.87432518 -15.875 23.3125 C-14.59109375 23.91868164 -14.59109375 23.91868164 -13.28125 24.53710938 C-12.44335938 24.93349609 -11.60546875 25.32988281 -10.7421875 25.73828125 C-9.9776123 26.09962158 -9.21303711 26.46096191 -8.42529297 26.83325195 C-5.60190816 28.19151207 -2.80233793 29.59883104 0 31 C0 20.77 0 10.54 0 0 Z " fill="#59C2C7" transform="translate(124,225)"/>
<path d="M0 0 C0 10.23 0 20.46 0 31 C-2.990625 32.588125 -5.98125 34.17625 -9.0625 35.8125 C-9.99070557 36.3072583 -10.91891113 36.8020166 -11.87524414 37.31176758 C-12.62926514 37.71032959 -13.38328613 38.1088916 -14.16015625 38.51953125 C-15.29916382 39.12438354 -15.29916382 39.12438354 -16.46118164 39.74145508 C-19.58097524 41.28800148 -22.79945863 42.62833941 -26 44 C-26 33.44 -26 22.88 -26 12 C-22.08125 10.02 -18.1625 8.04 -14.125 6 C-12.89023926 5.37351563 -11.65547852 4.74703125 -10.38330078 4.1015625 C-9.41376465 3.61429688 -8.44422852 3.12703125 -7.4453125 2.625 C-6.45031738 2.12226563 -5.45532227 1.61953125 -4.43017578 1.1015625 C-2 0 -2 0 0 0 Z " fill="#789B9E" transform="translate(201,213)"/>
<path d="M0 0 C4.00851957 1.33617319 7.1250874 2.45038916 10.7421875 4.3828125 C11.49870605 4.78387207 12.25522461 5.18493164 13.03466797 5.59814453 C13.97197754 6.10200684 14.90928711 6.60586914 15.875 7.125 C20.391875 9.538125 20.391875 9.538125 25 12 C25 22.23 25 32.46 25 43 C20.99148043 41.66382681 17.8749126 40.54961084 14.2578125 38.6171875 C13.50129395 38.21612793 12.74477539 37.81506836 11.96533203 37.40185547 C10.55936768 36.64606201 10.55936768 36.64606201 9.125 35.875 C6.11375 34.26625 3.1025 32.6575 0 31 C0 20.77 0 10.54 0 0 Z " fill="#A0CFD2" transform="translate(99,213)"/>
<path d="M0 0 C5.70323584 1.62682465 10.68013903 4.33197987 15.875 7.125 C16.75414062 7.59292969 17.63328125 8.06085938 18.5390625 8.54296875 C20.69494271 9.6912093 22.84846777 10.84363903 25 12 C17.95073935 17.49326081 9.66018209 21.27299811 1.7590332 25.38256836 C-0.3660858 26.49942041 -2.48122587 27.63547677 -4.58569336 28.79077148 C-23.11837882 38.94664245 -23.11837882 38.94664245 -29.37158203 37.34326172 C-32.63373802 35.83979484 -35.25887441 34.30812404 -38 32 C-34.94292917 28.68486286 -31.37172783 27.1978995 -27.3046875 25.41015625 C-25.76837519 24.70237376 -24.23325223 23.99200499 -22.69921875 23.27929688 C-20.28784441 22.16301083 -17.87434146 21.06221399 -15.43701172 20.00366211 C-5.82213142 16.30491872 -5.82213142 16.30491872 0.27636719 8.75732422 C0.53268573 5.69634125 0.49141227 3.02631793 0 0 Z " fill="#3D4352" transform="translate(201,141)"/>
<path d="M0 0 C6.435 2.97 6.435 2.97 13 6 C13 11.28 13 16.56 13 22 C8.71 20.02 4.42 18.04 0 16 C0 20.95 0 25.9 0 31 C-3.04205093 29.56330862 -6.08365047 28.12567482 -9.125 26.6875 C-9.9809375 26.28337891 -10.836875 25.87925781 -11.71875 25.46289062 C-12.55664062 25.06650391 -13.39453125 24.67011719 -14.2578125 24.26171875 C-15.0223877 23.90037842 -15.78696289 23.53903809 -16.57470703 23.16674805 C-19.39809184 21.80848793 -22.19766207 20.40116896 -25 19 C-25 13.72 -25 8.44 -25 3 C-21.95794907 4.43669138 -18.91634953 5.87432518 -15.875 7.3125 C-14.59109375 7.91868164 -14.59109375 7.91868164 -13.28125 8.53710938 C-12.44335938 8.93349609 -11.60546875 9.32988281 -10.7421875 9.73828125 C-9.9776123 10.09962158 -9.21303711 10.46096191 -8.42529297 10.83325195 C-5.60190816 12.19151207 -2.80233793 13.59883104 0 15 C0 10.05 0 5.1 0 0 Z " fill="#333844" transform="translate(137,141)"/>
<path d="M0 0 C0 15.51 0 31.02 0 47 C-10 52 -10 52 -12 52 C-12 36.49 -12 20.98 -12 5 C-2 0 -2 0 0 0 Z " fill="#439195" transform="translate(175,226)"/>
<path d="M0 0 C6.435 2.97 6.435 2.97 13 6 C13 16.23 13 26.46 13 37 C7 35 7 35 0 31 C0 20.77 0 10.54 0 0 Z " fill="#333844" transform="translate(137,263)"/>
<path d="M0 0 C0 10.23 0 20.46 0 31 C-11 37 -11 37 -13 37 C-13 26.77 -13 16.54 -13 6 C-1 0 -1 0 0 0 Z " fill="#262A33" transform="translate(163,263)"/>
<path d="M0 0 C0 5.28 0 10.56 0 16 C-3.95595506 18.0048279 -7.91456889 20.00405061 -11.875 22 C-13.00292969 22.57234375 -14.13085938 23.1446875 -15.29296875 23.734375 C-16.36933594 24.27578125 -17.44570312 24.8171875 -18.5546875 25.375 C-20.04718018 26.12910156 -20.04718018 26.12910156 -21.56982422 26.8984375 C-24 28 -24 28 -26 28 C-26 23.05 -26 18.1 -26 13 C-22.95874024 11.39505797 -19.91700837 9.79102201 -16.875 8.1875 C-16.0190625 7.73568359 -15.163125 7.28386719 -14.28125 6.81835938 C-1.3412979 0 -1.3412979 0 0 0 Z " fill="#439195" transform="translate(201,244)"/>
<path d="M0 0 C6.435 2.97 6.435 2.97 13 6 C13 16.23 13 26.46 13 37 C7 35 7 35 0 31 C0 20.77 0 10.54 0 0 Z " fill="#027B7F" transform="translate(124,194)"/>
<path d="M0 0 C6.435 2.97 6.435 2.97 13 6 C13 16.23 13 26.46 13 37 C7 35 7 35 0 31 C0 20.77 0 10.54 0 0 Z " fill="#333844" transform="translate(137,185)"/>
<path d="M0 0 C0 10.23 0 20.46 0 31 C-11 37 -11 37 -13 37 C-13 26.77 -13 16.54 -13 6 C-1 0 -1 0 0 0 Z " fill="#025C5F" transform="translate(214,175)"/>
<path d="M0 0 C4.00851957 1.33617319 7.1250874 2.45038916 10.7421875 4.3828125 C11.58007812 4.82753906 12.41796875 5.27226562 13.28125 5.73046875 C14.1371875 6.19066406 14.993125 6.65085938 15.875 7.125 C16.75414063 7.59292969 17.63328125 8.06085938 18.5390625 8.54296875 C20.6949085 9.69119108 22.8477588 10.84503492 25 12 C25 16.95 25 21.9 25 27 C20.99148043 25.66382681 17.8749126 24.54961084 14.2578125 22.6171875 C13.41992188 22.17246094 12.58203125 21.72773438 11.71875 21.26953125 C10.8628125 20.80933594 10.006875 20.34914062 9.125 19.875 C8.24585937 19.40707031 7.36671875 18.93914062 6.4609375 18.45703125 C4.3050915 17.30880892 2.1522412 16.15496508 0 15 C0 10.05 0 5.1 0 0 Z " fill="#22A4AB" transform="translate(99,182)"/>
<path d="M0 0 C0 10.23 0 20.46 0 31 C-10 36 -10 36 -12 36 C-12 25.77 -12 15.54 -12 5 C-2 0 -2 0 0 0 Z " fill="#262A33" transform="translate(226,232)"/>
<path d="M0 0 C6 2 6 2 12 5 C12 15.23 12 25.46 12 36 C6 34 6 34 0 31 C0 20.77 0 10.54 0 0 Z " fill="#333844" transform="translate(74,232)"/>
<path d="M0 0 C0 10.23 0 20.46 0 31 C-10 36 -10 36 -12 36 C-12 25.77 -12 15.54 -12 5 C-2 0 -2 0 0 0 Z " fill="#15757A" transform="translate(175,195)"/>
<path d="M0 0 C0 10.23 0 20.46 0 31 C-10 36 -10 36 -12 36 C-12 25.77 -12 15.54 -12 5 C-2 0 -2 0 0 0 Z " fill="#262A33" transform="translate(226,154)"/>
<path d="M0 0 C6 2 6 2 12 5 C12 15.23 12 25.46 12 36 C6 34 6 34 0 31 C0 20.77 0 10.54 0 0 Z " fill="#333844" transform="translate(74,154)"/>
<path d="M0 0 C1.00933594 0.53947266 1.00933594 0.53947266 2.0390625 1.08984375 C2.72742188 1.45207031 3.41578125 1.81429687 4.125 2.1875 C4.63289063 2.46464844 5.14078125 2.74179688 5.6640625 3.02734375 C5.6640625 3.68734375 5.6640625 4.34734375 5.6640625 5.02734375 C-16.21392104 18.13968943 -16.21392104 18.13968943 -22.82421875 16.48828125 C-26.02396912 14.92933724 -28.65102466 13.35566661 -31.3359375 11.02734375 C-27.7610183 7.09729066 -23.20532607 5.1467341 -18.5234375 2.77734375 C-17.63333984 2.30554688 -16.74324219 1.83375 -15.82617188 1.34765625 C-9.79040267 -1.71273377 -6.42785107 -2.6764798 0 0 Z " fill="#41495D" transform="translate(194.3359375,161.97265625)"/>
<path d="M0 0 C1.79976014 0.89921985 3.59525514 1.8070193 5.38671875 2.72265625 C6.7644043 3.40618164 6.7644043 3.40618164 8.16992188 4.10351562 C14.94291623 7.52255121 14.94291623 7.52255121 16.07421875 9.78515625 C12.21115184 13.13515958 8.28696239 15.74084635 3.07421875 15.78515625 C-5.47696004 13.21347882 -13.3048822 8.35266415 -20.92578125 3.78515625 C-20.92578125 3.12515625 -20.92578125 2.46515625 -20.92578125 1.78515625 C-19.39533372 0.91104689 -17.85075531 0.06165401 -16.30078125 -0.77734375 C-15.44226563 -1.25300781 -14.58375 -1.72867188 -13.69921875 -2.21875 C-8.51229426 -4.0816595 -4.76438206 -2.23728562 0 0 Z " fill="#41495D" transform="translate(120.92578125,163.21484375)"/>
<path d="M0 0 C5.94 0 11.88 0 18 0 C18 5.28 18 10.56 18 16 C12.06 16 6.12 16 0 16 C0 10.72 0 5.44 0 0 Z " fill="#181C27" transform="translate(159,106)"/>
<path d="M0 0 C5.94 0 11.88 0 18 0 C18 4.95 18 9.9 18 15 C12.06 15 6.12 15 0 15 C0 10.05 0 5.1 0 0 Z " fill="#2F3341" transform="translate(123,91)"/>
<path d="M0 0 C0 5.28 0 10.56 0 16 C-10.75 22 -10.75 22 -13 22 C-13 16.72 -13 11.44 -13 6 C-1.125 0 -1.125 0 0 0 Z " fill="#95999E" transform="translate(188,219)"/>
<path d="M0 0 C5.09641312 1.69880437 8.51562998 3.30937799 13 6 C13 11.28 13 16.56 13 22 C8.71 20.02 4.42 18.04 0 16 C0 10.72 0 5.44 0 0 Z " fill="#C7CCD2" transform="translate(99,213)"/>
<path d="M0 0 C6.435 2.97 6.435 2.97 13 6 C13 11.28 13 16.56 13 22 C8.71 20.02 4.42 18.04 0 16 C0 10.72 0 5.44 0 0 Z " fill="#333844" transform="translate(99,122)"/>
<path d="M0 0 C5.09641312 1.69880437 8.51562998 3.30937799 13 6 C13 10.95 13 15.9 13 21 C7.90358688 19.30119563 4.48437002 17.69062201 0 15 C0 10.05 0 5.1 0 0 Z " fill="#1D9DA3" transform="translate(124,257)"/>
<path d="M0 0 C0 4.95 0 9.9 0 15 C-10.75 21 -10.75 21 -13 21 C-13 16.05 -13 11.1 -13 6 C-2.25 0 -2.25 0 0 0 Z " fill="#15757A" transform="translate(214,238)"/>
<path d="M0 0 C5.09641312 1.69880437 8.51562998 3.30937799 13 6 C13 10.95 13 15.9 13 21 C7.90358688 19.30119563 4.48437002 17.69062201 0 15 C0 10.05 0 5.1 0 0 Z " fill="#1D9DA3" transform="translate(86,238)"/>
<path d="M0 0 C0 4.95 0 9.9 0 15 C-10.75 21 -10.75 21 -13 21 C-13 16.05 -13 11.1 -13 6 C-2.25 0 -2.25 0 0 0 Z " fill="#95999E" transform="translate(201,229)"/>
<path d="M0 0 C5.09641312 1.69880437 8.51562998 3.30937799 13 6 C13 10.95 13 15.9 13 21 C7.90358688 19.30119563 4.48437002 17.69062201 0 15 C0 10.05 0 5.1 0 0 Z " fill="#A0CFD2" transform="translate(99,229)"/>
<path d="M0 0 C5.09641312 1.69880437 8.51562998 3.30937799 13 6 C13 10.95 13 15.9 13 21 C7.90358688 19.30119563 4.48437002 17.69062201 0 15 C0 10.05 0 5.1 0 0 Z " fill="#1D9DA3" transform="translate(124,210)"/>
<path d="M0 0 C0 4.95 0 9.9 0 15 C-10.75 21 -10.75 21 -13 21 C-13 16.05 -13 11.1 -13 6 C-2.25 0 -2.25 0 0 0 Z " fill="#15757A" transform="translate(214,191)"/>
<path d="M0 0 C5.09641312 1.69880437 8.51562998 3.30937799 13 6 C13 10.95 13 15.9 13 21 C7.90358688 19.30119563 4.48437002 17.69062201 0 15 C0 10.05 0 5.1 0 0 Z " fill="#1D9DA3" transform="translate(86,191)"/>
<path d="M0 0 C0 4.95 0 9.9 0 15 C-10.75 21 -10.75 21 -13 21 C-13 16.05 -13 11.1 -13 6 C-2.25 0 -2.25 0 0 0 Z " fill="#2D313E" transform="translate(163,157)"/>
<path d="M0 0 C0 4.95 0 9.9 0 15 C-10.75 21 -10.75 21 -13 21 C-13 16.05 -13 11.1 -13 6 C-2.25 0 -2.25 0 0 0 Z " fill="#2D313E" transform="translate(201,138)"/>
<path d="M0 0 C0 5.28 0 10.56 0 16 C-9.75 21 -9.75 21 -12 21 C-12 16.05 -12 11.1 -12 6 C-1.125 0 -1.125 0 0 0 Z " fill="#15757A" transform="translate(175,257)"/>
<path d="M0 0 C3.96 1.98 7.92 3.96 12 6 C12 10.95 12 15.9 12 21 C6 19 6 19 0 16 C0 10.72 0 5.44 0 0 Z " fill="#C7CCD2" transform="translate(112,235)"/>
<path d="M0 0 C0 4.95 0 9.9 0 15 C-3.96 16.98 -7.92 18.96 -12 21 C-12 15.72 -12 10.44 -12 5 C-2.25 0 -2.25 0 0 0 Z " fill="#025C5F" transform="translate(175,195)"/>
<path d="M0 0 C2.72103626 1.24134866 5.37480151 2.56746783 8 4 C8 4.66 8 5.32 8 6 C-0.7091222 10.97418244 -0.7091222 10.97418244 -5.125 11.0625 C-8.91319079 9.66251645 -12.45732512 7.93318553 -16 6 C-16 5.34 -16 4.68 -16 4 C-5.46218487 -2.01863354 -5.46218487 -2.01863354 0 0 Z " fill="#41495D" transform="translate(154,136)"/>
<path d="M0 0 C3.63 1.65 7.26 3.3 11 5 C7.19409895 7.85442578 4.32409846 9.25372947 0 11 C0 7.37 0 3.74 0 0 Z " fill="#484F64" transform="translate(177,110)"/>
<path d="M0 0 C0 3.63 0 7.26 0 11 C-3.63 9.35 -7.26 7.7 -11 6 C-3 0 -3 0 0 0 Z " fill="#484F64" transform="translate(123,110)"/>
<path d="M0 0 C3.3 0 6.6 0 10 0 C8.68 0.99 7.36 1.98 6 3 C2.75 2.1875 2.75 2.1875 0 1 C0 0.67 0 0.34 0 0 Z " fill="#41495D" transform="translate(145,106)"/>
</svg>
