<?xml version="1.0" encoding="UTF-8"?>
<svg version="1.1" xmlns="http://www.w3.org/2000/svg" width="480" height="480">
<path d="M0 0 C29.7 0 59.4 0 90 0 C90 9.9 90 19.8 90 30 C109.8 30 129.6 30 150 30 C150 39.9 150 49.8 150 60 C159.9 60 169.8 60 180 60 C180 69.9 180 79.8 180 90 C189.9 90 199.8 90 210 90 C210 99.9 210 109.8 210 120 C219.9 120 229.8 120 240 120 C240 139.8 240 159.6 240 180 C249.9 180 259.8 180 270 180 C270 209.7 270 239.4 270 270 C260.1 270 250.2 270 240 270 C240 289.8 240 309.6 240 330 C230.1 330 220.2 330 210 330 C210 339.9 210 349.8 210 360 C200.1 360 190.2 360 180 360 C180 369.9 180 379.8 180 390 C170.1 390 160.2 390 150 390 C150 399.9 150 409.8 150 420 C130.2 420 110.4 420 90 420 C90 429.9 90 439.8 90 450 C60.3 450 30.6 450 0 450 C0 440.1 0 430.2 0 420 C-19.8 420 -39.6 420 -60 420 C-60 410.1 -60 400.2 -60 390 C-69.9 390 -79.8 390 -90 390 C-90 380.1 -90 370.2 -90 360 C-99.9 360 -109.8 360 -120 360 C-120 350.1 -120 340.2 -120 330 C-129.9 330 -139.8 330 -150 330 C-150 310.2 -150 290.4 -150 270 C-159.9 270 -169.8 270 -180 270 C-180 240.3 -180 210.6 -180 180 C-170.1 180 -160.2 180 -150 180 C-150 160.2 -150 140.4 -150 120 C-140.1 120 -130.2 120 -120 120 C-120 110.1 -120 100.2 -120 90 C-110.1 90 -100.2 90 -90 90 C-90 80.1 -90 70.2 -90 60 C-80.1 60 -70.2 60 -60 60 C-60 50.1 -60 40.2 -60 30 C-40.2 30 -20.4 30 0 30 C0 20.1 0 10.2 0 0 Z " fill="#2C5C58" transform="translate(210,30)"/>
<path d="M0 0 C29.7 0 59.4 0 90 0 C90 9.9 90 19.8 90 30 C109.8 30 129.6 30 150 30 C150 39.9 150 49.8 150 60 C159.9 60 169.8 60 180 60 C180 69.9 180 79.8 180 90 C150.3 90 120.6 90 90 90 C90 80.1 90 70.2 90 60 C60.3 60 30.6 60 0 60 C0 69.9 0 79.8 0 90 C-19.8 90 -39.6 90 -60 90 C-60 99.9 -60 109.8 -60 120 C-69.9 120 -79.8 120 -90 120 C-90 139.8 -90 159.6 -90 180 C-99.9 180 -109.8 180 -120 180 C-120 209.7 -120 239.4 -120 270 C-110.1 270 -100.2 270 -90 270 C-90 279.9 -90 289.8 -90 300 C-80.1 300 -70.2 300 -60 300 C-60 309.9 -60 319.8 -60 330 C-69.9 330 -79.8 330 -90 330 C-90 339.9 -90 349.8 -90 360 C-99.9 360 -109.8 360 -120 360 C-120 350.1 -120 340.2 -120 330 C-129.9 330 -139.8 330 -150 330 C-150 310.2 -150 290.4 -150 270 C-159.9 270 -169.8 270 -180 270 C-180 240.3 -180 210.6 -180 180 C-170.1 180 -160.2 180 -150 180 C-150 160.2 -150 140.4 -150 120 C-140.1 120 -130.2 120 -120 120 C-120 110.1 -120 100.2 -120 90 C-110.1 90 -100.2 90 -90 90 C-90 80.1 -90 70.2 -90 60 C-80.1 60 -70.2 60 -60 60 C-60 50.1 -60 40.2 -60 30 C-40.2 30 -20.4 30 0 30 C0 20.1 0 10.2 0 0 Z " fill="#1E4835" transform="translate(210,30)"/>
<path d="M0 0 C19.8 0 39.6 0 60 0 C60 9.9 60 19.8 60 30 C69.9 30 79.8 30 90 30 C90 39.9 90 49.8 90 60 C99.9 60 109.8 60 120 60 C120 79.8 120 99.6 120 120 C129.9 120 139.8 120 150 120 C150 129.9 150 139.8 150 150 C130.2 150 110.4 150 90 150 C90 159.9 90 169.8 90 180 C80.1 180 70.2 180 60 180 C60 189.9 60 199.8 60 210 C30.3 210 0.6 210 -30 210 C-30 200.1 -30 190.2 -30 180 C-39.9 180 -49.8 180 -60 180 C-60 170.1 -60 160.2 -60 150 C-69.9 150 -79.8 150 -90 150 C-90 140.1 -90 130.2 -90 120 C-99.9 120 -109.8 120 -120 120 C-120 110.1 -120 100.2 -120 90 C-100.2 90 -80.4 90 -60 90 C-60 99.9 -60 109.8 -60 120 C-50.1 120 -40.2 120 -30 120 C-30 100.2 -30 80.4 -30 60 C-20.1 60 -10.2 60 0 60 C0 40.2 0 20.4 0 0 Z " fill="#71AC49" transform="translate(240,150)"/>
<path d="M0 0 C29.7 0 59.4 0 90 0 C90 9.9 90 19.8 90 30 C99.9 30 109.8 30 120 30 C120 39.9 120 49.8 120 60 C129.9 60 139.8 60 150 60 C150 69.9 150 79.8 150 90 C159.9 90 169.8 90 180 90 C180 119.7 180 149.4 180 180 C170.1 180 160.2 180 150 180 C150 160.2 150 140.4 150 120 C140.1 120 130.2 120 120 120 C120 110.1 120 100.2 120 90 C110.1 90 100.2 90 90 90 C90 80.1 90 70.2 90 60 C70.2 60 50.4 60 30 60 C30 79.8 30 99.6 30 120 C20.1 120 10.2 120 0 120 C0 139.8 0 159.6 0 180 C-9.9 180 -19.8 180 -30 180 C-30 170.1 -30 160.2 -30 150 C-49.8 150 -69.6 150 -90 150 C-90 120.3 -90 90.6 -90 60 C-80.1 60 -70.2 60 -60 60 C-60 50.1 -60 40.2 -60 30 C-40.2 30 -20.4 30 0 30 C0 20.1 0 10.2 0 0 Z " fill="#659B7D" transform="translate(210,90)"/>
<path d="M0 0 C19.8 0 39.6 0 60 0 C60 9.9 60 19.8 60 30 C119.4 30 178.8 30 240 30 C240 49.8 240 69.6 240 90 C220.2 90 200.4 90 180 90 C180 99.9 180 109.8 180 120 C150.3 120 120.6 120 90 120 C90 110.1 90 100.2 90 90 C70.2 90 50.4 90 30 90 C30 80.1 30 70.2 30 60 C20.1 60 10.2 60 0 60 C0 40.2 0 20.4 0 0 Z " fill="#316364" transform="translate(120,360)"/>
<path d="M0 0 C19.8 0 39.6 0 60 0 C60 19.8 60 39.6 60 60 C50.1 60 40.2 60 30 60 C30 89.7 30 119.4 30 150 C39.9 150 49.8 150 60 150 C60 159.9 60 169.8 60 180 C69.9 180 79.8 180 90 180 C90 189.9 90 199.8 90 210 C80.1 210 70.2 210 60 210 C60 219.9 60 229.8 60 240 C50.1 240 40.2 240 30 240 C30 230.1 30 220.2 30 210 C20.1 210 10.2 210 0 210 C0 190.2 0 170.4 0 150 C-9.9 150 -19.8 150 -30 150 C-30 120.3 -30 90.6 -30 60 C-20.1 60 -10.2 60 0 60 C0 40.2 0 20.4 0 0 Z " fill="#1E4835" transform="translate(60,150)"/>
<path d="M0 0 C9.9 0 19.8 0 30 0 C30 19.8 30 39.6 30 60 C39.9 60 49.8 60 60 60 C60 69.9 60 79.8 60 90 C69.9 90 79.8 90 90 90 C90 99.9 90 109.8 90 120 C99.9 120 109.8 120 120 120 C120 129.9 120 139.8 120 150 C149.7 150 179.4 150 210 150 C210 140.1 210 130.2 210 120 C219.9 120 229.8 120 240 120 C240 139.8 240 159.6 240 180 C190.5 180 141 180 90 180 C90 170.1 90 160.2 90 150 C80.1 150 70.2 150 60 150 C60 140.1 60 130.2 60 120 C50.1 120 40.2 120 30 120 C30 110.1 30 100.2 30 90 C20.1 90 10.2 90 0 90 C0 60.3 0 30.6 0 0 Z " fill="#4E8386" transform="translate(90,210)"/>
<path d="M0 0 C9.9 0 19.8 0 30 0 C30 9.9 30 19.8 30 30 C39.9 30 49.8 30 60 30 C60 59.7 60 89.4 60 120 C50.1 120 40.2 120 30 120 C30 129.9 30 139.8 30 150 C20.1 150 10.2 150 0 150 C0 140.1 0 130.2 0 120 C-9.9 120 -19.8 120 -30 120 C-30 90.3 -30 60.6 -30 30 C-20.1 30 -10.2 30 0 30 C0 20.1 0 10.2 0 0 Z " fill="#1B2B10" transform="translate(240,180)"/>
<path d="M0 0 C19.8 0 39.6 0 60 0 C60 19.8 60 39.6 60 60 C69.9 60 79.8 60 90 60 C90 69.9 90 79.8 90 90 C80.1 90 70.2 90 60 90 C60 99.9 60 109.8 60 120 C50.1 120 40.2 120 30 120 C30 110.1 30 100.2 30 90 C20.1 90 10.2 90 0 90 C0 60.3 0 30.6 0 0 Z " fill="#659B7D" transform="translate(330,300)"/>
<path d="M0 0 C19.8 0 39.6 0 60 0 C60 19.8 60 39.6 60 60 C50.1 60 40.2 60 30 60 C30 79.8 30 99.6 30 120 C20.1 120 10.2 120 0 120 C0 110.1 0 100.2 0 90 C-9.9 90 -19.8 90 -30 90 C-30 70.2 -30 50.4 -30 30 C-20.1 30 -10.2 30 0 30 C0 20.1 0 10.2 0 0 Z " fill="#B5E45A" transform="translate(180,150)"/>
<path d="M0 0 C19.8 0 39.6 0 60 0 C60 19.8 60 39.6 60 60 C40.2 60 20.4 60 0 60 C0 69.9 0 79.8 0 90 C-19.8 90 -39.6 90 -60 90 C-60 80.1 -60 70.2 -60 60 C-50.1 60 -40.2 60 -30 60 C-30 50.1 -30 40.2 -30 30 C-20.1 30 -10.2 30 0 30 C0 20.1 0 10.2 0 0 Z " fill="#316364" transform="translate(150,60)"/>
<path d="M0 0 C9.9 0 19.8 0 30 0 C30 19.8 30 39.6 30 60 C-19.5 60 -69 60 -120 60 C-120 50.1 -120 40.2 -120 30 C-80.4 30 -40.8 30 0 30 C0 20.1 0 10.2 0 0 Z " fill="#4E8386" transform="translate(300,330)"/>
<path d="M0 0 C19.8 0 39.6 0 60 0 C60 9.9 60 19.8 60 30 C69.9 30 79.8 30 90 30 C90 59.7 90 89.4 90 120 C80.1 120 70.2 120 60 120 C60 100.2 60 80.4 60 60 C50.1 60 40.2 60 30 60 C30 50.1 30 40.2 30 30 C20.1 30 10.2 30 0 30 C0 20.1 0 10.2 0 0 Z " fill="#71AC49" transform="translate(240,150)"/>
<path d="M0 0 C19.8 0 39.6 0 60 0 C60 9.9 60 19.8 60 30 C69.9 30 79.8 30 90 30 C90 39.9 90 49.8 90 60 C60.3 60 30.6 60 0 60 C0 40.2 0 20.4 0 0 Z " fill="#1E4835" transform="translate(300,60)"/>
<path d="M0 0 C29.7 0 59.4 0 90 0 C90 9.9 90 19.8 90 30 C60.3 30 30.6 30 0 30 C0 20.1 0 10.2 0 0 Z " fill="#FFFFFF" transform="translate(210,450)"/>
<path d="M0 0 C29.7 0 59.4 0 90 0 C90 9.9 90 19.8 90 30 C60.3 30 30.6 30 0 30 C0 20.1 0 10.2 0 0 Z " fill="#102C31" transform="translate(210,420)"/>
<path d="M0 0 C9.9 0 19.8 0 30 0 C30 29.7 30 59.4 30 90 C20.1 90 10.2 90 0 90 C0 60.3 0 30.6 0 0 Z " fill="#FFFFFF" transform="translate(450,210)"/>
<path d="M0 0 C9.9 0 19.8 0 30 0 C30 29.7 30 59.4 30 90 C20.1 90 10.2 90 0 90 C0 60.3 0 30.6 0 0 Z " fill="#102C31" transform="translate(420,210)"/>
<path d="M0 0 C9.9 0 19.8 0 30 0 C30 29.7 30 59.4 30 90 C20.1 90 10.2 90 0 90 C0 60.3 0 30.6 0 0 Z " fill="#1E4835" transform="translate(270,210)"/>
<path d="M0 0 C9.9 0 19.8 0 30 0 C30 29.7 30 59.4 30 90 C20.1 90 10.2 90 0 90 C0 60.3 0 30.6 0 0 Z " fill="#1E4835" transform="translate(210,210)"/>
<path d="M0 0 C19.8 0 39.6 0 60 0 C60 19.8 60 39.6 60 60 C50.1 60 40.2 60 30 60 C30 50.1 30 40.2 30 30 C20.1 30 10.2 30 0 30 C0 20.1 0 10.2 0 0 Z " fill="#97D16B" transform="translate(150,210)"/>
<path d="M0 0 C9.9 0 19.8 0 30 0 C30 29.7 30 59.4 30 90 C20.1 90 10.2 90 0 90 C0 60.3 0 30.6 0 0 Z " fill="#316364" transform="translate(90,210)"/>
<path d="M0 0 C9.9 0 19.8 0 30 0 C30 29.7 30 59.4 30 90 C20.1 90 10.2 90 0 90 C0 60.3 0 30.6 0 0 Z " fill="#FFFFFF" transform="translate(30,210)"/>
<path d="M0 0 C29.7 0 59.4 0 90 0 C90 9.9 90 19.8 90 30 C60.3 30 30.6 30 0 30 C0 20.1 0 10.2 0 0 Z " fill="#1E4835" transform="translate(330,120)"/>
<path d="M0 0 C29.7 0 59.4 0 90 0 C90 9.9 90 19.8 90 30 C60.3 30 30.6 30 0 30 C0 20.1 0 10.2 0 0 Z " fill="#4E8386" transform="translate(210,90)"/>
<path d="M0 0 C29.7 0 59.4 0 90 0 C90 9.9 90 19.8 90 30 C60.3 30 30.6 30 0 30 C0 20.1 0 10.2 0 0 Z " fill="#FFFFFF" transform="translate(210,30)"/>
<path d="M0 0 C19.8 0 39.6 0 60 0 C60 9.9 60 19.8 60 30 C40.2 30 20.4 30 0 30 C0 20.1 0 10.2 0 0 Z " fill="#FFFFFF" transform="translate(300,420)"/>
<path d="M0 0 C19.8 0 39.6 0 60 0 C60 9.9 60 19.8 60 30 C40.2 30 20.4 30 0 30 C0 20.1 0 10.2 0 0 Z " fill="#FFFFFF" transform="translate(150,420)"/>
<path d="M0 0 C19.8 0 39.6 0 60 0 C60 9.9 60 19.8 60 30 C40.2 30 20.4 30 0 30 C0 20.1 0 10.2 0 0 Z " fill="#102C31" transform="translate(300,390)"/>
<path d="M0 0 C19.8 0 39.6 0 60 0 C60 9.9 60 19.8 60 30 C40.2 30 20.4 30 0 30 C0 20.1 0 10.2 0 0 Z " fill="#102C31" transform="translate(150,390)"/>
<path d="M0 0 C9.9 0 19.8 0 30 0 C30 19.8 30 39.6 30 60 C20.1 60 10.2 60 0 60 C0 40.2 0 20.4 0 0 Z " fill="#659B7D" transform="translate(300,330)"/>
<path d="M0 0 C19.8 0 39.6 0 60 0 C60 9.9 60 19.8 60 30 C40.2 30 20.4 30 0 30 C0 20.1 0 10.2 0 0 Z " fill="#71AC49" transform="translate(240,330)"/>
<path d="M0 0 C9.9 0 19.8 0 30 0 C30 19.8 30 39.6 30 60 C20.1 60 10.2 60 0 60 C0 40.2 0 20.4 0 0 Z " fill="#71AC49" transform="translate(210,300)"/>
<path d="M0 0 C9.9 0 19.8 0 30 0 C30 19.8 30 39.6 30 60 C20.1 60 10.2 60 0 60 C0 40.2 0 20.4 0 0 Z " fill="#FFFFFF" transform="translate(420,300)"/>
<path d="M0 0 C9.9 0 19.8 0 30 0 C30 19.8 30 39.6 30 60 C20.1 60 10.2 60 0 60 C0 40.2 0 20.4 0 0 Z " fill="#102C31" transform="translate(390,300)"/>
<path d="M0 0 C19.8 0 39.6 0 60 0 C60 9.9 60 19.8 60 30 C40.2 30 20.4 30 0 30 C0 20.1 0 10.2 0 0 Z " fill="#71AC49" transform="translate(270,300)"/>
<path d="M0 0 C9.9 0 19.8 0 30 0 C30 19.8 30 39.6 30 60 C20.1 60 10.2 60 0 60 C0 40.2 0 20.4 0 0 Z " fill="#FFFFFF" transform="translate(60,300)"/>
<path d="M0 0 C9.9 0 19.8 0 30 0 C30 19.8 30 39.6 30 60 C20.1 60 10.2 60 0 60 C0 40.2 0 20.4 0 0 Z " fill="#579143" transform="translate(300,210)"/>
<path d="M0 0 C19.8 0 39.6 0 60 0 C60 9.9 60 19.8 60 30 C40.2 30 20.4 30 0 30 C0 20.1 0 10.2 0 0 Z " fill="#B5E45A" transform="translate(150,180)"/>
<path d="M0 0 C9.9 0 19.8 0 30 0 C30 19.8 30 39.6 30 60 C20.1 60 10.2 60 0 60 C0 40.2 0 20.4 0 0 Z " fill="#FFFFFF" transform="translate(420,150)"/>
<path d="M0 0 C19.8 0 39.6 0 60 0 C60 9.9 60 19.8 60 30 C40.2 30 20.4 30 0 30 C0 20.1 0 10.2 0 0 Z " fill="#71AC49" transform="translate(240,150)"/>
<path d="M0 0 C19.8 0 39.6 0 60 0 C60 9.9 60 19.8 60 30 C40.2 30 20.4 30 0 30 C0 20.1 0 10.2 0 0 Z " fill="#659B7D" transform="translate(120,150)"/>
<path d="M0 0 C9.9 0 19.8 0 30 0 C30 19.8 30 39.6 30 60 C20.1 60 10.2 60 0 60 C0 40.2 0 20.4 0 0 Z " fill="#FFFFFF" transform="translate(60,150)"/>
<path d="M0 0 C19.8 0 39.6 0 60 0 C60 9.9 60 19.8 60 30 C40.2 30 20.4 30 0 30 C0 20.1 0 10.2 0 0 Z " fill="#316364" transform="translate(90,120)"/>
<path d="M0 0 C19.8 0 39.6 0 60 0 C60 9.9 60 19.8 60 30 C40.2 30 20.4 30 0 30 C0 20.1 0 10.2 0 0 Z " fill="#FFFFFF" transform="translate(300,60)"/>
<path d="M0 0 C19.8 0 39.6 0 60 0 C60 9.9 60 19.8 60 30 C40.2 30 20.4 30 0 30 C0 20.1 0 10.2 0 0 Z " fill="#FFFFFF" transform="translate(150,60)"/>
<path d="M0 0 C9.9 0 19.8 0 30 0 C30 9.9 30 19.8 30 30 C20.1 30 10.2 30 0 30 C0 20.1 0 10.2 0 0 Z " fill="#FFFFFF" transform="translate(360,390)"/>
<path d="M0 0 C9.9 0 19.8 0 30 0 C30 9.9 30 19.8 30 30 C20.1 30 10.2 30 0 30 C0 20.1 0 10.2 0 0 Z " fill="#FFFFFF" transform="translate(120,390)"/>
<path d="M0 0 C9.9 0 19.8 0 30 0 C30 9.9 30 19.8 30 30 C20.1 30 10.2 30 0 30 C0 20.1 0 10.2 0 0 Z " fill="#FFFFFF" transform="translate(390,360)"/>
<path d="M0 0 C9.9 0 19.8 0 30 0 C30 9.9 30 19.8 30 30 C20.1 30 10.2 30 0 30 C0 20.1 0 10.2 0 0 Z " fill="#102C31" transform="translate(360,360)"/>
<path d="M0 0 C9.9 0 19.8 0 30 0 C30 9.9 30 19.8 30 30 C20.1 30 10.2 30 0 30 C0 20.1 0 10.2 0 0 Z " fill="#316364" transform="translate(330,360)"/>
<path d="M0 0 C9.9 0 19.8 0 30 0 C30 9.9 30 19.8 30 30 C20.1 30 10.2 30 0 30 C0 20.1 0 10.2 0 0 Z " fill="#102C31" transform="translate(120,360)"/>
<path d="M0 0 C9.9 0 19.8 0 30 0 C30 9.9 30 19.8 30 30 C20.1 30 10.2 30 0 30 C0 20.1 0 10.2 0 0 Z " fill="#FFFFFF" transform="translate(90,360)"/>
<path d="M0 0 C9.9 0 19.8 0 30 0 C30 9.9 30 19.8 30 30 C20.1 30 10.2 30 0 30 C0 20.1 0 10.2 0 0 Z " fill="#316364" transform="translate(360,330)"/>
<path d="M0 0 C9.9 0 19.8 0 30 0 C30 9.9 30 19.8 30 30 C20.1 30 10.2 30 0 30 C0 20.1 0 10.2 0 0 Z " fill="#71AC49" transform="translate(330,330)"/>
<path d="M0 0 C9.9 0 19.8 0 30 0 C30 9.9 30 19.8 30 30 C20.1 30 10.2 30 0 30 C0 20.1 0 10.2 0 0 Z " fill="#4E8386" transform="translate(300,330)"/>
<path d="M0 0 C9.9 0 19.8 0 30 0 C30 9.9 30 19.8 30 30 C20.1 30 10.2 30 0 30 C0 20.1 0 10.2 0 0 Z " fill="#579143" transform="translate(240,330)"/>
<path d="M0 0 C9.9 0 19.8 0 30 0 C30 9.9 30 19.8 30 30 C20.1 30 10.2 30 0 30 C0 20.1 0 10.2 0 0 Z " fill="#659B7D" transform="translate(180,330)"/>
<path d="M0 0 C9.9 0 19.8 0 30 0 C30 9.9 30 19.8 30 30 C20.1 30 10.2 30 0 30 C0 20.1 0 10.2 0 0 Z " fill="#4E8386" transform="translate(150,330)"/>
<path d="M0 0 C9.9 0 19.8 0 30 0 C30 9.9 30 19.8 30 30 C20.1 30 10.2 30 0 30 C0 20.1 0 10.2 0 0 Z " fill="#316364" transform="translate(120,330)"/>
<path d="M0 0 C9.9 0 19.8 0 30 0 C30 9.9 30 19.8 30 30 C20.1 30 10.2 30 0 30 C0 20.1 0 10.2 0 0 Z " fill="#4E8386" transform="translate(330,300)"/>
<path d="M0 0 C9.9 0 19.8 0 30 0 C30 9.9 30 19.8 30 30 C20.1 30 10.2 30 0 30 C0 20.1 0 10.2 0 0 Z " fill="#97D16B" transform="translate(270,300)"/>
<path d="M0 0 C9.9 0 19.8 0 30 0 C30 9.9 30 19.8 30 30 C20.1 30 10.2 30 0 30 C0 20.1 0 10.2 0 0 Z " fill="#1E4835" transform="translate(240,300)"/>
<path d="M0 0 C9.9 0 19.8 0 30 0 C30 9.9 30 19.8 30 30 C20.1 30 10.2 30 0 30 C0 20.1 0 10.2 0 0 Z " fill="#88C35A" transform="translate(210,300)"/>
<path d="M0 0 C9.9 0 19.8 0 30 0 C30 9.9 30 19.8 30 30 C20.1 30 10.2 30 0 30 C0 20.1 0 10.2 0 0 Z " fill="#659B7D" transform="translate(150,300)"/>
<path d="M0 0 C9.9 0 19.8 0 30 0 C30 9.9 30 19.8 30 30 C20.1 30 10.2 30 0 30 C0 20.1 0 10.2 0 0 Z " fill="#88C35A" transform="translate(300,270)"/>
<path d="M0 0 C9.9 0 19.8 0 30 0 C30 9.9 30 19.8 30 30 C20.1 30 10.2 30 0 30 C0 20.1 0 10.2 0 0 Z " fill="#579143" transform="translate(180,270)"/>
<path d="M0 0 C9.9 0 19.8 0 30 0 C30 9.9 30 19.8 30 30 C20.1 30 10.2 30 0 30 C0 20.1 0 10.2 0 0 Z " fill="#659B7D" transform="translate(120,270)"/>
<path d="M0 0 C9.9 0 19.8 0 30 0 C30 9.9 30 19.8 30 30 C20.1 30 10.2 30 0 30 C0 20.1 0 10.2 0 0 Z " fill="#88C35A" transform="translate(180,240)"/>
<path d="M0 0 C9.9 0 19.8 0 30 0 C30 9.9 30 19.8 30 30 C20.1 30 10.2 30 0 30 C0 20.1 0 10.2 0 0 Z " fill="#B5E45A" transform="translate(150,210)"/>
<path d="M0 0 C9.9 0 19.8 0 30 0 C30 9.9 30 19.8 30 30 C20.1 30 10.2 30 0 30 C0 20.1 0 10.2 0 0 Z " fill="#102C31" transform="translate(390,180)"/>
<path d="M0 0 C9.9 0 19.8 0 30 0 C30 9.9 30 19.8 30 30 C20.1 30 10.2 30 0 30 C0 20.1 0 10.2 0 0 Z " fill="#579143" transform="translate(270,180)"/>
<path d="M0 0 C9.9 0 19.8 0 30 0 C30 9.9 30 19.8 30 30 C20.1 30 10.2 30 0 30 C0 20.1 0 10.2 0 0 Z " fill="#1E4835" transform="translate(240,180)"/>
<path d="M0 0 C9.9 0 19.8 0 30 0 C30 9.9 30 19.8 30 30 C20.1 30 10.2 30 0 30 C0 20.1 0 10.2 0 0 Z " fill="#97D16B" transform="translate(210,180)"/>
<path d="M0 0 C9.9 0 19.8 0 30 0 C30 9.9 30 19.8 30 30 C20.1 30 10.2 30 0 30 C0 20.1 0 10.2 0 0 Z " fill="#CBFCDD" transform="translate(150,180)"/>
<path d="M0 0 C9.9 0 19.8 0 30 0 C30 9.9 30 19.8 30 30 C20.1 30 10.2 30 0 30 C0 20.1 0 10.2 0 0 Z " fill="#316364" transform="translate(360,150)"/>
<path d="M0 0 C9.9 0 19.8 0 30 0 C30 9.9 30 19.8 30 30 C20.1 30 10.2 30 0 30 C0 20.1 0 10.2 0 0 Z " fill="#88C35A" transform="translate(240,150)"/>
<path d="M0 0 C9.9 0 19.8 0 30 0 C30 9.9 30 19.8 30 30 C20.1 30 10.2 30 0 30 C0 20.1 0 10.2 0 0 Z " fill="#CBFCDD" transform="translate(180,150)"/>
<path d="M0 0 C9.9 0 19.8 0 30 0 C30 9.9 30 19.8 30 30 C20.1 30 10.2 30 0 30 C0 20.1 0 10.2 0 0 Z " fill="#4E8386" transform="translate(120,150)"/>
<path d="M0 0 C9.9 0 19.8 0 30 0 C30 9.9 30 19.8 30 30 C20.1 30 10.2 30 0 30 C0 20.1 0 10.2 0 0 Z " fill="#FFFFFF" transform="translate(390,120)"/>
<path d="M0 0 C9.9 0 19.8 0 30 0 C30 9.9 30 19.8 30 30 C20.1 30 10.2 30 0 30 C0 20.1 0 10.2 0 0 Z " fill="#316364" transform="translate(330,120)"/>
<path d="M0 0 C9.9 0 19.8 0 30 0 C30 9.9 30 19.8 30 30 C20.1 30 10.2 30 0 30 C0 20.1 0 10.2 0 0 Z " fill="#4E8386" transform="translate(150,120)"/>
<path d="M0 0 C9.9 0 19.8 0 30 0 C30 9.9 30 19.8 30 30 C20.1 30 10.2 30 0 30 C0 20.1 0 10.2 0 0 Z " fill="#FFFFFF" transform="translate(90,120)"/>
<path d="M0 0 C9.9 0 19.8 0 30 0 C30 9.9 30 19.8 30 30 C20.1 30 10.2 30 0 30 C0 20.1 0 10.2 0 0 Z " fill="#FFFFFF" transform="translate(360,90)"/>
<path d="M0 0 C9.9 0 19.8 0 30 0 C30 9.9 30 19.8 30 30 C20.1 30 10.2 30 0 30 C0 20.1 0 10.2 0 0 Z " fill="#FFFFFF" transform="translate(120,90)"/>
<path d="M0 0 C9.9 0 19.8 0 30 0 C30 9.9 30 19.8 30 30 C20.1 30 10.2 30 0 30 C0 20.1 0 10.2 0 0 Z " fill="#316364" transform="translate(210,60)"/>
</svg>
