<?xml version="1.0" encoding="UTF-8"?>
<svg version="1.1" xmlns="http://www.w3.org/2000/svg" width="512" height="512">
<path d="M0 0 C168.96 0 337.92 0 512 0 C512 168.96 512 337.92 512 512 C343.04 512 174.08 512 0 512 C0 343.04 0 174.08 0 0 Z " fill="#163116" transform="translate(0,0)"/>
<path d="M0 0 C168.96 0 337.92 0 512 0 C512 73.59 512 147.18 512 223 C501.11 223 490.22 223 479 223 C479 233.56 479 244.12 479 255 C468.44 255 457.88 255 447 255 C447 265.56 447 276.12 447 287 C425.88 287 404.76 287 383 287 C383 297.56 383 308.12 383 319 C372.44 319 361.88 319 351 319 C351 308.44 351 297.88 351 287 C340.44 287 329.88 287 319 287 C319 308.12 319 329.24 319 351 C308.44 351 297.88 351 287 351 C287 319.32 287 287.64 287 255 C255.32 255 223.64 255 191 255 C191 244.44 191 233.88 191 223 C169.88 223 148.76 223 127 223 C127 233.56 127 244.12 127 255 C116.44 255 105.88 255 95 255 C95 265.56 95 276.12 95 287 C73.88 287 52.76 287 31 287 C31 276.44 31 265.88 31 255 C41.56 255 52.12 255 63 255 C63 233.88 63 212.76 63 191 C73.56 191 84.12 191 95 191 C95 169.88 95 148.76 95 127 C63.65 127 32.3 127 0 127 C0 85.09 0 43.18 0 0 Z " fill="#204920" transform="translate(0,0)"/>
<path d="M0 0 C10.89 0 21.78 0 33 0 C33 95.37 33 190.74 33 289 C-41.25 289 -115.5 289 -192 289 C-192 278.11 -192 267.22 -192 256 C-181.44 256 -170.88 256 -160 256 C-160 245.44 -160 234.88 -160 224 C-170.56 224 -181.12 224 -192 224 C-192 213.44 -192 202.88 -192 192 C-181.44 192 -170.88 192 -160 192 C-160 181.44 -160 170.88 -160 160 C-181.12 160 -202.24 160 -224 160 C-224 170.56 -224 181.12 -224 192 C-234.56 192 -245.12 192 -256 192 C-256 181.44 -256 170.88 -256 160 C-266.56 160 -277.12 160 -288 160 C-288 128.32 -288 96.64 -288 64 C-277.44 64 -266.88 64 -256 64 C-256 53.44 -256 42.88 -256 32 C-234.88 32 -213.76 32 -192 32 C-192 63.68 -192 95.36 -192 128 C-181.44 128 -170.88 128 -160 128 C-160 106.88 -160 85.76 -160 64 C-149.44 64 -138.88 64 -128 64 C-128 74.56 -128 85.12 -128 96 C-117.44 96 -106.88 96 -96 96 C-96 85.44 -96 74.88 -96 64 C-74.88 64 -53.76 64 -32 64 C-32 53.44 -32 42.88 -32 32 C-21.44 32 -10.88 32 0 32 C0 21.44 0 10.88 0 0 Z " fill="#1F471F" transform="translate(479,223)"/>
<path d="M0 0 C168.96 0 337.92 0 512 0 C512 31.35 512 62.7 512 95 C501.11 95 490.22 95 479 95 C479 84.44 479 73.88 479 63 C468.44 63 457.88 63 447 63 C447 52.44 447 41.88 447 31 C436.44 31 425.88 31 415 31 C415 41.56 415 52.12 415 63 C404.44 63 393.88 63 383 63 C383 73.56 383 84.12 383 95 C361.88 95 340.76 95 319 95 C319 84.44 319 73.88 319 63 C308.44 63 297.88 63 287 63 C287 84.12 287 105.24 287 127 C308.12 127 329.24 127 351 127 C351 158.68 351 190.36 351 223 C340.44 223 329.88 223 319 223 C319 212.44 319 201.88 319 191 C297.88 191 276.76 191 255 191 C255 180.44 255 169.88 255 159 C244.44 159 233.88 159 223 159 C223 169.56 223 180.12 223 191 C201.88 191 180.76 191 159 191 C159 180.44 159 169.88 159 159 C148.44 159 137.88 159 127 159 C127 137.88 127 116.76 127 95 C137.56 95 148.12 95 159 95 C159 105.56 159 116.12 159 127 C169.56 127 180.12 127 191 127 C191 95.32 191 63.64 191 31 C169.88 31 148.76 31 127 31 C127 41.56 127 52.12 127 63 C116.44 63 105.88 63 95 63 C95 73.56 95 84.12 95 95 C73.88 95 52.76 95 31 95 C31 84.44 31 73.88 31 63 C20.77 63 10.54 63 0 63 C0 42.21 0 21.42 0 0 Z " fill="#1F481F" transform="translate(0,0)"/>
<path d="M0 0 C21.12 0 42.24 0 64 0 C64 31.68 64 63.36 64 96 C53.44 96 42.88 96 32 96 C32 85.44 32 74.88 32 64 C21.44 64 10.88 64 0 64 C0 85.12 0 106.24 0 128 C10.56 128 21.12 128 32 128 C32 138.56 32 149.12 32 160 C42.56 160 53.12 160 64 160 C64 170.56 64 181.12 64 192 C42.88 192 21.76 192 0 192 C0 202.56 0 213.12 0 224 C-10.56 224 -21.12 224 -32 224 C-32 234.56 -32 245.12 -32 256 C-53.12 256 -74.24 256 -96 256 C-96 245.44 -96 234.88 -96 224 C-85.44 224 -74.88 224 -64 224 C-64 202.88 -64 181.76 -64 160 C-53.44 160 -42.88 160 -32 160 C-32 138.88 -32 117.76 -32 96 C-63.35 96 -94.7 96 -127 96 C-127 74.88 -127 53.76 -127 32 C-116.77 32 -106.54 32 -96 32 C-96 42.56 -96 53.12 -96 64 C-74.88 64 -53.76 64 -32 64 C-32 53.44 -32 42.88 -32 32 C-21.44 32 -10.88 32 0 32 C0 21.44 0 10.88 0 0 Z " fill="#1D431D" transform="translate(127,31)"/>
<path d="M0 0 C31.35 0 62.7 0 95 0 C95 21.12 95 42.24 95 64 C84.44 64 73.88 64 63 64 C63 85.12 63 106.24 63 128 C52.44 128 41.88 128 31 128 C31 138.56 31 149.12 31 160 C52.12 160 73.24 160 95 160 C95 149.44 95 138.88 95 128 C105.56 128 116.12 128 127 128 C127 149.12 127 170.24 127 192 C137.56 192 148.12 192 159 192 C159 213.12 159 234.24 159 256 C137.88 256 116.76 256 95 256 C95 245.44 95 234.88 95 224 C84.44 224 73.88 224 63 224 C63 213.44 63 202.88 63 192 C52.44 192 41.88 192 31 192 C31 202.56 31 213.12 31 224 C20.77 224 10.54 224 0 224 C0 150.08 0 76.16 0 0 Z " fill="#7E7E7E" transform="translate(0,127)"/>
<path d="M0 0 C74.25 0 148.5 0 225 0 C225 31.35 225 62.7 225 95 C214.11 95 203.22 95 192 95 C192 84.44 192 73.88 192 63 C181.44 63 170.88 63 160 63 C160 52.44 160 41.88 160 31 C149.44 31 138.88 31 128 31 C128 41.56 128 52.12 128 63 C117.44 63 106.88 63 96 63 C96 73.56 96 84.12 96 95 C74.88 95 53.76 95 32 95 C32 84.44 32 73.88 32 63 C21.44 63 10.88 63 0 63 C0 42.21 0 21.42 0 0 Z " fill="#909090" transform="translate(287,0)"/>
<path d="M0 0 C21.12 0 42.24 0 64 0 C64 10.56 64 21.12 64 32 C74.56 32 85.12 32 96 32 C96 21.44 96 10.88 96 0 C106.56 0 117.12 0 128 0 C128 10.56 128 21.12 128 32 C138.56 32 149.12 32 160 32 C160 42.56 160 53.12 160 64 C149.44 64 138.88 64 128 64 C128 74.56 128 85.12 128 96 C96.32 96 64.64 96 32 96 C32 106.89 32 117.78 32 129 C10.88 129 -10.24 129 -32 129 C-32 118.11 -32 107.22 -32 96 C-21.44 96 -10.88 96 0 96 C0 85.44 0 74.88 0 64 C-10.56 64 -21.12 64 -32 64 C-32 53.44 -32 42.88 -32 32 C-21.44 32 -10.88 32 0 32 C0 21.44 0 10.88 0 0 Z " fill="#909090" transform="translate(319,383)"/>
<path d="M0 0 C21.12 0 42.24 0 64 0 C64 31.68 64 63.36 64 96 C74.56 96 85.12 96 96 96 C96 106.56 96 117.12 96 128 C74.88 128 53.76 128 32 128 C32 138.56 32 149.12 32 160 C21.44 160 10.88 160 0 160 C0 149.44 0 138.88 0 128 C-10.56 128 -21.12 128 -32 128 C-32 96.32 -32 64.64 -32 32 C-21.44 32 -10.88 32 0 32 C0 21.44 0 10.88 0 0 Z " fill="#868686" transform="translate(223,255)"/>
<path d="M0 0 C10.56 0 21.12 0 32 0 C32 10.56 32 21.12 32 32 C42.56 32 53.12 32 64 32 C64 42.56 64 53.12 64 64 C42.88 64 21.76 64 0 64 C0 85.12 0 106.24 0 128 C-10.56 128 -21.12 128 -32 128 C-32 149.12 -32 170.24 -32 192 C-42.56 192 -53.12 192 -64 192 C-64 160.32 -64 128.64 -64 96 C-85.12 96 -106.24 96 -128 96 C-128 74.88 -128 53.76 -128 32 C-117.44 32 -106.88 32 -96 32 C-96 42.56 -96 53.12 -96 64 C-74.88 64 -53.76 64 -32 64 C-32 53.44 -32 42.88 -32 32 C-21.44 32 -10.88 32 0 32 C0 21.44 0 10.88 0 0 Z " fill="#1D431D" transform="translate(415,31)"/>
<path d="M0 0 C63.03 0 126.06 0 191 0 C191 10.23 191 20.46 191 31 C169.88 31 148.76 31 127 31 C127 41.56 127 52.12 127 63 C116.44 63 105.88 63 95 63 C95 73.56 95 84.12 95 95 C73.88 95 52.76 95 31 95 C31 84.44 31 73.88 31 63 C20.77 63 10.54 63 0 63 C0 42.21 0 21.42 0 0 Z " fill="#B1B1B1" transform="translate(0,0)"/>
<path d="M0 0 C21.12 0 42.24 0 64 0 C64 21.12 64 42.24 64 64 C53.44 64 42.88 64 32 64 C32 85.12 32 106.24 32 128 C21.44 128 10.88 128 0 128 C0 138.56 0 149.12 0 160 C-21.12 160 -42.24 160 -64 160 C-64 149.44 -64 138.88 -64 128 C-53.44 128 -42.88 128 -32 128 C-32 106.88 -32 85.76 -32 64 C-21.44 64 -10.88 64 0 64 C0 42.88 0 21.76 0 0 Z " fill="#5B5B5B" transform="translate(415,95)"/>
<path d="M0 0 C31.68 0 63.36 0 96 0 C96 10.56 96 21.12 96 32 C85.44 32 74.88 32 64 32 C64 42.89 64 53.78 64 65 C0.64 65 -62.72 65 -128 65 C-128 54.11 -128 43.22 -128 32 C-85.76 32 -43.52 32 0 32 C0 21.44 0 10.88 0 0 Z " fill="#1F471F" transform="translate(223,447)"/>
<path d="M0 0 C21.12 0 42.24 0 64 0 C64 10.56 64 21.12 64 32 C74.56 32 85.12 32 96 32 C96 42.56 96 53.12 96 64 C85.44 64 74.88 64 64 64 C64 95.68 64 127.36 64 160 C53.44 160 42.88 160 32 160 C32 138.88 32 117.76 32 96 C21.44 96 10.88 96 0 96 C0 64.32 0 32.64 0 0 Z " fill="#142D14" transform="translate(127,223)"/>
<path d="M0 0 C10.56 0 21.12 0 32 0 C32 10.56 32 21.12 32 32 C42.56 32 53.12 32 64 32 C64 42.56 64 53.12 64 64 C53.44 64 42.88 64 32 64 C32 85.12 32 106.24 32 128 C10.88 128 -10.24 128 -32 128 C-32 117.44 -32 106.88 -32 96 C-42.56 96 -53.12 96 -64 96 C-64 74.88 -64 53.76 -64 32 C-53.44 32 -42.88 32 -32 32 C-32 42.56 -32 53.12 -32 64 C-21.44 64 -10.88 64 0 64 C0 42.88 0 21.76 0 0 Z " fill="#8A8A8A" transform="translate(191,63)"/>
<path d="M0 0 C20.79 0 41.58 0 63 0 C63 31.68 63 63.36 63 96 C73.56 96 84.12 96 95 96 C95 106.89 95 117.78 95 129 C63.65 129 32.3 129 0 129 C0 86.43 0 43.86 0 0 Z " fill="#747474" transform="translate(0,383)"/>
<path d="M0 0 C10.89 0 21.78 0 33 0 C33 42.24 33 84.48 33 128 C11.55 128 -9.9 128 -32 128 C-32 117.44 -32 106.88 -32 96 C-42.56 96 -53.12 96 -64 96 C-64 85.44 -64 74.88 -64 64 C-53.44 64 -42.88 64 -32 64 C-32 53.44 -32 42.88 -32 32 C-21.44 32 -10.88 32 0 32 C0 21.44 0 10.88 0 0 Z " fill="#7F7F7F" transform="translate(479,223)"/>
<path d="M0 0 C10.89 0 21.78 0 33 0 C33 42.24 33 84.48 33 128 C22.11 128 11.22 128 0 128 C0 138.56 0 149.12 0 160 C-21.12 160 -42.24 160 -64 160 C-64 149.44 -64 138.88 -64 128 C-53.44 128 -42.88 128 -32 128 C-32 106.88 -32 85.76 -32 64 C-21.44 64 -10.88 64 0 64 C0 42.88 0 21.76 0 0 Z " fill="#214C21" transform="translate(479,95)"/>
<path d="M0 0 C21.45 0 42.9 0 65 0 C65 21.45 65 42.9 65 65 C11.87 65 -41.26 65 -96 65 C-96 54.11 -96 43.22 -96 32 C-64.32 32 -32.64 32 0 32 C0 21.44 0 10.88 0 0 Z " fill="#142E14" transform="translate(447,447)"/>
<path d="M0 0 C31.68 0 63.36 0 96 0 C96 10.56 96 21.12 96 32 C106.56 32 117.12 32 128 32 C128 42.56 128 53.12 128 64 C85.76 64 43.52 64 0 64 C0 42.88 0 21.76 0 0 Z " fill="#838383" transform="translate(95,415)"/>
<path d="M0 0 C10.56 0 21.12 0 32 0 C32 10.56 32 21.12 32 32 C42.56 32 53.12 32 64 32 C64 42.56 64 53.12 64 64 C53.44 64 42.88 64 32 64 C32 74.56 32 85.12 32 96 C10.88 96 -10.24 96 -32 96 C-32 74.88 -32 53.76 -32 32 C-21.44 32 -10.88 32 0 32 C0 21.44 0 10.88 0 0 Z " fill="#8A8A8A" transform="translate(415,383)"/>
<path d="M0 0 C10.56 0 21.12 0 32 0 C32 10.56 32 21.12 32 32 C42.56 32 53.12 32 64 32 C64 21.44 64 10.88 64 0 C74.56 0 85.12 0 96 0 C96 10.56 96 21.12 96 32 C106.56 32 117.12 32 128 32 C128 42.56 128 53.12 128 64 C85.76 64 43.52 64 0 64 C0 42.88 0 21.76 0 0 Z " fill="#204A20" transform="translate(319,287)"/>
<path d="M0 0 C31.68 0 63.36 0 96 0 C96 10.23 96 20.46 96 31 C85.44 31 74.88 31 64 31 C64 52.12 64 73.24 64 95 C53.44 95 42.88 95 32 95 C32 84.44 32 73.88 32 63 C21.44 63 10.88 63 0 63 C0 42.21 0 21.42 0 0 Z " fill="#898989" transform="translate(287,0)"/>
<path d="M0 0 C31.68 0 63.36 0 96 0 C96 21.12 96 42.24 96 64 C74.88 64 53.76 64 32 64 C32 53.44 32 42.88 32 32 C21.44 32 10.88 32 0 32 C0 21.44 0 10.88 0 0 Z " fill="#7D7D7D" transform="translate(63,319)"/>
<path d="M0 0 C21.12 0 42.24 0 64 0 C64 10.23 64 20.46 64 31 C53.44 31 42.88 31 32 31 C32 41.56 32 52.12 32 63 C21.44 63 10.88 63 0 63 C0 73.56 0 84.12 0 95 C-10.56 95 -21.12 95 -32 95 C-32 73.88 -32 52.76 -32 31 C-21.44 31 -10.88 31 0 31 C0 20.77 0 10.54 0 0 Z " fill="#909090" transform="translate(383,0)"/>
<path d="M0 0 C42.24 0 84.48 0 128 0 C128 10.89 128 21.78 128 33 C85.76 33 43.52 33 0 33 C0 22.11 0 11.22 0 0 Z " fill="#0F230F" transform="translate(95,479)"/>
<path d="M0 0 C21.12 0 42.24 0 64 0 C64 10.56 64 21.12 64 32 C53.44 32 42.88 32 32 32 C32 42.56 32 53.12 32 64 C10.88 64 -10.24 64 -32 64 C-32 53.44 -32 42.88 -32 32 C-21.44 32 -10.88 32 0 32 C0 21.44 0 10.88 0 0 Z " fill="#A4A4A4" transform="translate(319,383)"/>
<path d="M0 0 C31.68 0 63.36 0 96 0 C96 21.12 96 42.24 96 64 C85.44 64 74.88 64 64 64 C64 53.44 64 42.88 64 32 C42.88 32 21.76 32 0 32 C0 21.44 0 10.88 0 0 Z " fill="#2B632B" transform="translate(319,351)"/>
<path d="M0 0 C31.68 0 63.36 0 96 0 C96 10.56 96 21.12 96 32 C74.88 32 53.76 32 32 32 C32 42.56 32 53.12 32 64 C21.44 64 10.88 64 0 64 C0 42.88 0 21.76 0 0 Z " fill="#153015" transform="translate(351,255)"/>
<path d="M0 0 C10.56 0 21.12 0 32 0 C32 31.68 32 63.36 32 96 C21.44 96 10.88 96 0 96 C0 85.44 0 74.88 0 64 C-10.56 64 -21.12 64 -32 64 C-32 53.44 -32 42.88 -32 32 C-21.44 32 -10.88 32 0 32 C0 21.44 0 10.88 0 0 Z " fill="#8E8E8E" transform="translate(319,127)"/>
<path d="M0 0 C10.56 0 21.12 0 32 0 C32 10.56 32 21.12 32 32 C42.56 32 53.12 32 64 32 C64 42.56 64 53.12 64 64 C32.32 64 0.64 64 -32 64 C-32 53.44 -32 42.88 -32 32 C-21.44 32 -10.88 32 0 32 C0 21.44 0 10.88 0 0 Z " fill="#1F471F" transform="translate(415,31)"/>
<path d="M0 0 C21.12 0 42.24 0 64 0 C64 10.56 64 21.12 64 32 C53.44 32 42.88 32 32 32 C32 42.56 32 53.12 32 64 C10.88 64 -10.24 64 -32 64 C-32 53.44 -32 42.88 -32 32 C-21.44 32 -10.88 32 0 32 C0 21.44 0 10.88 0 0 Z " fill="#7F7F7F" transform="translate(63,31)"/>
<path d="M0 0 C10.56 0 21.12 0 32 0 C32 10.56 32 21.12 32 32 C42.56 32 53.12 32 64 32 C64 42.56 64 53.12 64 64 C32.65 64 1.3 64 -31 64 C-31 53.44 -31 42.88 -31 32 C-20.77 32 -10.54 32 0 32 C0 21.44 0 10.88 0 0 Z " fill="#1F471F" transform="translate(31,319)"/>
<path d="M0 0 C31.68 0 63.36 0 96 0 C96 10.89 96 21.78 96 33 C64.32 33 32.64 33 0 33 C0 22.11 0 11.22 0 0 Z " fill="#183818" transform="translate(351,479)"/>
<path d="M0 0 C10.89 0 21.78 0 33 0 C33 21.12 33 42.24 33 64 C11.55 64 -9.9 64 -32 64 C-32 53.44 -32 42.88 -32 32 C-21.44 32 -10.88 32 0 32 C0 21.44 0 10.88 0 0 Z " fill="#B1B1B1" transform="translate(479,223)"/>
<path d="M0 0 C10.56 0 21.12 0 32 0 C32 10.56 32 21.12 32 32 C42.56 32 53.12 32 64 32 C64 42.56 64 53.12 64 64 C42.88 64 21.76 64 0 64 C0 42.88 0 21.76 0 0 Z " fill="#7B7B7B" transform="translate(159,415)"/>
<path d="M0 0 C10.56 0 21.12 0 32 0 C32 10.56 32 21.12 32 32 C42.56 32 53.12 32 64 32 C64 42.56 64 53.12 64 64 C42.88 64 21.76 64 0 64 C0 42.88 0 21.76 0 0 Z " fill="#7F7F7F" transform="translate(415,383)"/>
<path d="M0 0 C21.12 0 42.24 0 64 0 C64 21.12 64 42.24 64 64 C53.44 64 42.88 64 32 64 C32 53.44 32 42.88 32 32 C21.44 32 10.88 32 0 32 C0 21.44 0 10.88 0 0 Z " fill="#7F7F7F" transform="translate(191,351)"/>
<path d="M0 0 C10.56 0 21.12 0 32 0 C32 31.68 32 63.36 32 96 C21.44 96 10.88 96 0 96 C0 64.32 0 32.64 0 0 Z " fill="#2E692E" transform="translate(287,255)"/>
<path d="M0 0 C21.12 0 42.24 0 64 0 C64 21.12 64 42.24 64 64 C53.44 64 42.88 64 32 64 C32 53.44 32 42.88 32 32 C21.44 32 10.88 32 0 32 C0 21.44 0 10.88 0 0 Z " fill="#A8A8A8" transform="translate(223,255)"/>
<path d="M0 0 C10.56 0 21.12 0 32 0 C32 21.12 32 42.24 32 64 C10.88 64 -10.24 64 -32 64 C-32 53.44 -32 42.88 -32 32 C-21.44 32 -10.88 32 0 32 C0 21.44 0 10.88 0 0 Z " fill="#B4B4B4" transform="translate(95,255)"/>
<path d="M0 0 C21.12 0 42.24 0 64 0 C64 10.56 64 21.12 64 32 C53.44 32 42.88 32 32 32 C32 42.56 32 53.12 32 64 C21.44 64 10.88 64 0 64 C0 42.88 0 21.76 0 0 Z " fill="#3B873B" transform="translate(127,223)"/>
<path d="M0 0 C10.56 0 21.12 0 32 0 C32 31.68 32 63.36 32 96 C21.44 96 10.88 96 0 96 C0 64.32 0 32.64 0 0 Z " fill="#2E6A2E" transform="translate(351,127)"/>
<path d="M0 0 C21.12 0 42.24 0 64 0 C64 21.12 64 42.24 64 64 C53.44 64 42.88 64 32 64 C32 53.44 32 42.88 32 32 C21.44 32 10.88 32 0 32 C0 21.44 0 10.88 0 0 Z " fill="#B7B7B7" transform="translate(415,95)"/>
<path d="M0 0 C10.56 0 21.12 0 32 0 C32 10.56 32 21.12 32 32 C42.56 32 53.12 32 64 32 C64 42.56 64 53.12 64 64 C42.88 64 21.76 64 0 64 C0 42.88 0 21.76 0 0 Z " fill="#193919" transform="translate(287,63)"/>
<path d="M0 0 C21.12 0 42.24 0 64 0 C64 21.12 64 42.24 64 64 C53.44 64 42.88 64 32 64 C32 53.44 32 42.88 32 32 C21.44 32 10.88 32 0 32 C0 21.44 0 10.88 0 0 Z " fill="#333333" transform="translate(223,63)"/>
<path d="M0 0 C20.79 0 41.58 0 63 0 C63 10.56 63 21.12 63 32 C52.44 32 41.88 32 31 32 C31 42.56 31 53.12 31 64 C20.77 64 10.54 64 0 64 C0 42.88 0 21.76 0 0 Z " fill="#B1B1B1" transform="translate(0,383)"/>
<path d="M0 0 C31.68 0 63.36 0 96 0 C96 10.23 96 20.46 96 31 C64.32 31 32.64 31 0 31 C0 20.77 0 10.54 0 0 Z " fill="#B1B1B1" transform="translate(287,0)"/>
<path d="M0 0 C21.12 0 42.24 0 64 0 C64 10.89 64 21.78 64 33 C42.88 33 21.76 33 0 33 C0 22.11 0 11.22 0 0 Z " fill="#575757" transform="translate(287,479)"/>
<path d="M0 0 C10.89 0 21.78 0 33 0 C33 21.12 33 42.24 33 64 C22.11 64 11.22 64 0 64 C0 42.88 0 21.76 0 0 Z " fill="#5C5C5C" transform="translate(479,95)"/>
<path d="M0 0 C21.45 0 42.9 0 65 0 C65 10.56 65 21.12 65 32 C43.55 32 22.1 32 0 32 C0 21.44 0 10.88 0 0 Z " fill="#142D14" transform="translate(447,159)"/>
<path d="M0 0 C10.56 0 21.12 0 32 0 C32 21.12 32 42.24 32 64 C21.44 64 10.88 64 0 64 C0 42.88 0 21.76 0 0 Z " fill="#A2A2A2" transform="translate(95,415)"/>
<path d="M0 0 C10.56 0 21.12 0 32 0 C32 21.12 32 42.24 32 64 C21.44 64 10.88 64 0 64 C0 42.88 0 21.76 0 0 Z " fill="#173417" transform="translate(63,415)"/>
<path d="M0 0 C10.56 0 21.12 0 32 0 C32 21.12 32 42.24 32 64 C21.44 64 10.88 64 0 64 C0 42.88 0 21.76 0 0 Z " fill="#898989" transform="translate(31,415)"/>
<path d="M0 0 C10.56 0 21.12 0 32 0 C32 21.12 32 42.24 32 64 C21.44 64 10.88 64 0 64 C0 42.88 0 21.76 0 0 Z " fill="#204A20" transform="translate(191,383)"/>
<path d="M0 0 C21.12 0 42.24 0 64 0 C64 10.56 64 21.12 64 32 C42.88 32 21.76 32 0 32 C0 21.44 0 10.88 0 0 Z " fill="#122A12" transform="translate(255,383)"/>
<path d="M0 0 C21.12 0 42.24 0 64 0 C64 10.56 64 21.12 64 32 C42.88 32 21.76 32 0 32 C0 21.44 0 10.88 0 0 Z " fill="#1B3F1B" transform="translate(319,351)"/>
<path d="M0 0 C10.56 0 21.12 0 32 0 C32 21.12 32 42.24 32 64 C21.44 64 10.88 64 0 64 C0 42.88 0 21.76 0 0 Z " fill="#353535" transform="translate(159,319)"/>
<path d="M0 0 C10.56 0 21.12 0 32 0 C32 21.12 32 42.24 32 64 C21.44 64 10.88 64 0 64 C0 42.88 0 21.76 0 0 Z " fill="#868686" transform="translate(319,287)"/>
<path d="M0 0 C10.56 0 21.12 0 32 0 C32 21.12 32 42.24 32 64 C21.44 64 10.88 64 0 64 C0 42.88 0 21.76 0 0 Z " fill="#B1B1B1" transform="translate(191,287)"/>
<path d="M0 0 C21.12 0 42.24 0 64 0 C64 10.56 64 21.12 64 32 C42.88 32 21.76 32 0 32 C0 21.44 0 10.88 0 0 Z " fill="#255525" transform="translate(159,255)"/>
<path d="M0 0 C21.12 0 42.24 0 64 0 C64 10.56 64 21.12 64 32 C42.88 32 21.76 32 0 32 C0 21.44 0 10.88 0 0 Z " fill="#1F471F" transform="translate(31,255)"/>
<path d="M0 0 C21.12 0 42.24 0 64 0 C64 10.56 64 21.12 64 32 C42.88 32 21.76 32 0 32 C0 21.44 0 10.88 0 0 Z " fill="#7F7F7F" transform="translate(351,223)"/>
<path d="M0 0 C10.56 0 21.12 0 32 0 C32 21.12 32 42.24 32 64 C21.44 64 10.88 64 0 64 C0 42.88 0 21.76 0 0 Z " fill="#7D7D7D" transform="translate(63,127)"/>
<path d="M0 0 C10.56 0 21.12 0 32 0 C32 21.12 32 42.24 32 64 C21.44 64 10.88 64 0 64 C0 42.88 0 21.76 0 0 Z " fill="#B1B1B1" transform="translate(127,95)"/>
<path d="M0 0 C10.56 0 21.12 0 32 0 C32 21.12 32 42.24 32 64 C21.44 64 10.88 64 0 64 C0 42.88 0 21.76 0 0 Z " fill="#235023" transform="translate(159,63)"/>
<path d="M0 0 C10.56 0 21.12 0 32 0 C32 21.12 32 42.24 32 64 C21.44 64 10.88 64 0 64 C0 42.88 0 21.76 0 0 Z " fill="#7F7F7F" transform="translate(351,31)"/>
<path d="M0 0 C21.12 0 42.24 0 64 0 C64 10.56 64 21.12 64 32 C42.88 32 21.76 32 0 32 C0 21.44 0 10.88 0 0 Z " fill="#3D8A3D" transform="translate(191,31)"/>
<path d="M0 0 C21.12 0 42.24 0 64 0 C64 10.56 64 21.12 64 32 C42.88 32 21.76 32 0 32 C0 21.44 0 10.88 0 0 Z " fill="#1F471F" transform="translate(127,31)"/>
<path d="M0 0 C21.12 0 42.24 0 64 0 C64 10.56 64 21.12 64 32 C42.88 32 21.76 32 0 32 C0 21.44 0 10.88 0 0 Z " fill="#7F7F7F" transform="translate(63,31)"/>
<path d="M0 0 C20.79 0 41.58 0 63 0 C63 10.56 63 21.12 63 32 C42.21 32 21.42 32 0 32 C0 21.44 0 10.88 0 0 Z " fill="#B1B1B1" transform="translate(0,127)"/>
<path d="M0 0 C21.45 0 42.9 0 65 0 C65 10.23 65 20.46 65 31 C43.55 31 22.1 31 0 31 C0 20.77 0 10.54 0 0 Z " fill="#8F8F8F" transform="translate(447,0)"/>
<path d="M0 0 C10.23 0 20.46 0 31 0 C31 21.12 31 42.24 31 64 C20.77 64 10.54 64 0 64 C0 42.88 0 21.76 0 0 Z " fill="#265826" transform="translate(0,63)"/>
<path d="M0 0 C21.12 0 42.24 0 64 0 C64 10.23 64 20.46 64 31 C42.88 31 21.76 31 0 31 C0 20.77 0 10.54 0 0 Z " fill="#7F7F7F" transform="translate(127,0)"/>
<path d="M0 0 C10.89 0 21.78 0 33 0 C33 10.89 33 21.78 33 33 C22.11 33 11.22 33 0 33 C0 22.11 0 11.22 0 0 Z " fill="#626262" transform="translate(479,479)"/>
<path d="M0 0 C10.56 0 21.12 0 32 0 C32 10.89 32 21.78 32 33 C21.44 33 10.88 33 0 33 C0 22.11 0 11.22 0 0 Z " fill="#204920" transform="translate(351,479)"/>
<path d="M0 0 C10.56 0 21.12 0 32 0 C32 10.89 32 21.78 32 33 C21.44 33 10.88 33 0 33 C0 22.11 0 11.22 0 0 Z " fill="#818181" transform="translate(287,479)"/>
<path d="M0 0 C10.56 0 21.12 0 32 0 C32 10.89 32 21.78 32 33 C21.44 33 10.88 33 0 33 C0 22.11 0 11.22 0 0 Z " fill="#3C893C" transform="translate(255,479)"/>
<path d="M0 0 C10.56 0 21.12 0 32 0 C32 10.89 32 21.78 32 33 C21.44 33 10.88 33 0 33 C0 22.11 0 11.22 0 0 Z " fill="#1A3C1A" transform="translate(95,479)"/>
<path d="M0 0 C10.89 0 21.78 0 33 0 C33 10.56 33 21.12 33 32 C22.11 32 11.22 32 0 32 C0 21.44 0 10.88 0 0 Z " fill="#132B13" transform="translate(479,447)"/>
<path d="M0 0 C10.89 0 21.78 0 33 0 C33 10.56 33 21.12 33 32 C22.11 32 11.22 32 0 32 C0 21.44 0 10.88 0 0 Z " fill="#363636" transform="translate(479,415)"/>
<path d="M0 0 C10.89 0 21.78 0 33 0 C33 10.56 33 21.12 33 32 C22.11 32 11.22 32 0 32 C0 21.44 0 10.88 0 0 Z " fill="#383838" transform="translate(479,351)"/>
<path d="M0 0 C10.89 0 21.78 0 33 0 C33 10.56 33 21.12 33 32 C22.11 32 11.22 32 0 32 C0 21.44 0 10.88 0 0 Z " fill="#848484" transform="translate(479,319)"/>
<path d="M0 0 C10.89 0 21.78 0 33 0 C33 10.56 33 21.12 33 32 C22.11 32 11.22 32 0 32 C0 21.44 0 10.88 0 0 Z " fill="#C0C0C0" transform="translate(479,223)"/>
<path d="M0 0 C10.89 0 21.78 0 33 0 C33 10.56 33 21.12 33 32 C22.11 32 11.22 32 0 32 C0 21.44 0 10.88 0 0 Z " fill="#565656" transform="translate(479,191)"/>
<path d="M0 0 C10.89 0 21.78 0 33 0 C33 10.56 33 21.12 33 32 C22.11 32 11.22 32 0 32 C0 21.44 0 10.88 0 0 Z " fill="#1F471F" transform="translate(479,95)"/>
<path d="M0 0 C10.56 0 21.12 0 32 0 C32 10.56 32 21.12 32 32 C21.44 32 10.88 32 0 32 C0 21.44 0 10.88 0 0 Z " fill="#3D3D3D" transform="translate(447,447)"/>
<path d="M0 0 C10.56 0 21.12 0 32 0 C32 10.56 32 21.12 32 32 C21.44 32 10.88 32 0 32 C0 21.44 0 10.88 0 0 Z " fill="#949494" transform="translate(415,447)"/>
<path d="M0 0 C10.56 0 21.12 0 32 0 C32 10.56 32 21.12 32 32 C21.44 32 10.88 32 0 32 C0 21.44 0 10.88 0 0 Z " fill="#7F7F7F" transform="translate(319,447)"/>
<path d="M0 0 C10.56 0 21.12 0 32 0 C32 10.56 32 21.12 32 32 C21.44 32 10.88 32 0 32 C0 21.44 0 10.88 0 0 Z " fill="#898989" transform="translate(447,415)"/>
<path d="M0 0 C10.56 0 21.12 0 32 0 C32 10.56 32 21.12 32 32 C21.44 32 10.88 32 0 32 C0 21.44 0 10.88 0 0 Z " fill="#929292" transform="translate(383,415)"/>
<path d="M0 0 C10.56 0 21.12 0 32 0 C32 10.56 32 21.12 32 32 C21.44 32 10.88 32 0 32 C0 21.44 0 10.88 0 0 Z " fill="#7F7F7F" transform="translate(351,415)"/>
<path d="M0 0 C10.56 0 21.12 0 32 0 C32 10.56 32 21.12 32 32 C21.44 32 10.88 32 0 32 C0 21.44 0 10.88 0 0 Z " fill="#CBCBCB" transform="translate(287,415)"/>
<path d="M0 0 C10.56 0 21.12 0 32 0 C32 10.56 32 21.12 32 32 C21.44 32 10.88 32 0 32 C0 21.44 0 10.88 0 0 Z " fill="#383838" transform="translate(223,415)"/>
<path d="M0 0 C10.56 0 21.12 0 32 0 C32 10.56 32 21.12 32 32 C21.44 32 10.88 32 0 32 C0 21.44 0 10.88 0 0 Z " fill="#B6B6B6" transform="translate(159,415)"/>
<path d="M0 0 C10.56 0 21.12 0 32 0 C32 10.56 32 21.12 32 32 C21.44 32 10.88 32 0 32 C0 21.44 0 10.88 0 0 Z " fill="#398339" transform="translate(127,415)"/>
<path d="M0 0 C10.56 0 21.12 0 32 0 C32 10.56 32 21.12 32 32 C21.44 32 10.88 32 0 32 C0 21.44 0 10.88 0 0 Z " fill="#B7B7B7" transform="translate(95,415)"/>
<path d="M0 0 C10.56 0 21.12 0 32 0 C32 10.56 32 21.12 32 32 C21.44 32 10.88 32 0 32 C0 21.44 0 10.88 0 0 Z " fill="#265726" transform="translate(63,415)"/>
<path d="M0 0 C10.56 0 21.12 0 32 0 C32 10.56 32 21.12 32 32 C21.44 32 10.88 32 0 32 C0 21.44 0 10.88 0 0 Z " fill="#7B7B7B" transform="translate(31,415)"/>
<path d="M0 0 C10.56 0 21.12 0 32 0 C32 10.56 32 21.12 32 32 C21.44 32 10.88 32 0 32 C0 21.44 0 10.88 0 0 Z " fill="#9F9F9F" transform="translate(351,383)"/>
<path d="M0 0 C10.56 0 21.12 0 32 0 C32 10.56 32 21.12 32 32 C21.44 32 10.88 32 0 32 C0 21.44 0 10.88 0 0 Z " fill="#B1B1B1" transform="translate(319,383)"/>
<path d="M0 0 C10.56 0 21.12 0 32 0 C32 10.56 32 21.12 32 32 C21.44 32 10.88 32 0 32 C0 21.44 0 10.88 0 0 Z " fill="#183718" transform="translate(255,383)"/>
<path d="M0 0 C10.56 0 21.12 0 32 0 C32 10.56 32 21.12 32 32 C21.44 32 10.88 32 0 32 C0 21.44 0 10.88 0 0 Z " fill="#3B863B" transform="translate(383,351)"/>
<path d="M0 0 C10.56 0 21.12 0 32 0 C32 10.56 32 21.12 32 32 C21.44 32 10.88 32 0 32 C0 21.44 0 10.88 0 0 Z " fill="#132B13" transform="translate(319,351)"/>
<path d="M0 0 C10.56 0 21.12 0 32 0 C32 10.56 32 21.12 32 32 C21.44 32 10.88 32 0 32 C0 21.44 0 10.88 0 0 Z " fill="#929292" transform="translate(255,351)"/>
<path d="M0 0 C10.56 0 21.12 0 32 0 C32 10.56 32 21.12 32 32 C21.44 32 10.88 32 0 32 C0 21.44 0 10.88 0 0 Z " fill="#6E6E6E" transform="translate(127,351)"/>
<path d="M0 0 C10.56 0 21.12 0 32 0 C32 10.56 32 21.12 32 32 C21.44 32 10.88 32 0 32 C0 21.44 0 10.88 0 0 Z " fill="#377D37" transform="translate(63,351)"/>
<path d="M0 0 C10.56 0 21.12 0 32 0 C32 10.56 32 21.12 32 32 C21.44 32 10.88 32 0 32 C0 21.44 0 10.88 0 0 Z " fill="#9B9B9B" transform="translate(447,319)"/>
<path d="M0 0 C10.56 0 21.12 0 32 0 C32 10.56 32 21.12 32 32 C21.44 32 10.88 32 0 32 C0 21.44 0 10.88 0 0 Z " fill="#5C5C5C" transform="translate(415,319)"/>
<path d="M0 0 C10.56 0 21.12 0 32 0 C32 10.56 32 21.12 32 32 C21.44 32 10.88 32 0 32 C0 21.44 0 10.88 0 0 Z " fill="#383838" transform="translate(351,319)"/>
<path d="M0 0 C10.56 0 21.12 0 32 0 C32 10.56 32 21.12 32 32 C21.44 32 10.88 32 0 32 C0 21.44 0 10.88 0 0 Z " fill="#398139" transform="translate(31,319)"/>
<path d="M0 0 C10.56 0 21.12 0 32 0 C32 10.56 32 21.12 32 32 C21.44 32 10.88 32 0 32 C0 21.44 0 10.88 0 0 Z " fill="#C0C0C0" transform="translate(415,287)"/>
<path d="M0 0 C10.56 0 21.12 0 32 0 C32 10.56 32 21.12 32 32 C21.44 32 10.88 32 0 32 C0 21.44 0 10.88 0 0 Z " fill="#5E5E5E" transform="translate(383,287)"/>
<path d="M0 0 C10.56 0 21.12 0 32 0 C32 10.56 32 21.12 32 32 C21.44 32 10.88 32 0 32 C0 21.44 0 10.88 0 0 Z " fill="#1F471F" transform="translate(351,287)"/>
<path d="M0 0 C10.56 0 21.12 0 32 0 C32 10.56 32 21.12 32 32 C21.44 32 10.88 32 0 32 C0 21.44 0 10.88 0 0 Z " fill="#919191" transform="translate(319,287)"/>
<path d="M0 0 C10.56 0 21.12 0 32 0 C32 10.56 32 21.12 32 32 C21.44 32 10.88 32 0 32 C0 21.44 0 10.88 0 0 Z " fill="#B9B9B9" transform="translate(255,287)"/>
<path d="M0 0 C10.56 0 21.12 0 32 0 C32 10.56 32 21.12 32 32 C21.44 32 10.88 32 0 32 C0 21.44 0 10.88 0 0 Z " fill="#696969" transform="translate(223,287)"/>
<path d="M0 0 C10.56 0 21.12 0 32 0 C32 10.56 32 21.12 32 32 C21.44 32 10.88 32 0 32 C0 21.44 0 10.88 0 0 Z " fill="#2E6A2E" transform="translate(127,287)"/>
<path d="M0 0 C10.56 0 21.12 0 32 0 C32 10.56 32 21.12 32 32 C21.44 32 10.88 32 0 32 C0 21.44 0 10.88 0 0 Z " fill="#5C5C5C" transform="translate(31,287)"/>
<path d="M0 0 C10.56 0 21.12 0 32 0 C32 10.56 32 21.12 32 32 C21.44 32 10.88 32 0 32 C0 21.44 0 10.88 0 0 Z " fill="#C4C4C4" transform="translate(447,255)"/>
<path d="M0 0 C10.56 0 21.12 0 32 0 C32 10.56 32 21.12 32 32 C21.44 32 10.88 32 0 32 C0 21.44 0 10.88 0 0 Z " fill="#212121" transform="translate(415,255)"/>
<path d="M0 0 C10.56 0 21.12 0 32 0 C32 10.56 32 21.12 32 32 C21.44 32 10.88 32 0 32 C0 21.44 0 10.88 0 0 Z " fill="#193919" transform="translate(351,255)"/>
<path d="M0 0 C10.56 0 21.12 0 32 0 C32 10.56 32 21.12 32 32 C21.44 32 10.88 32 0 32 C0 21.44 0 10.88 0 0 Z " fill="#2B622B" transform="translate(287,255)"/>
<path d="M0 0 C10.56 0 21.12 0 32 0 C32 10.56 32 21.12 32 32 C21.44 32 10.88 32 0 32 C0 21.44 0 10.88 0 0 Z " fill="#B1B1B1" transform="translate(223,255)"/>
<path d="M0 0 C10.56 0 21.12 0 32 0 C32 10.56 32 21.12 32 32 C21.44 32 10.88 32 0 32 C0 21.44 0 10.88 0 0 Z " fill="#2B632B" transform="translate(159,255)"/>
<path d="M0 0 C10.56 0 21.12 0 32 0 C32 10.56 32 21.12 32 32 C21.44 32 10.88 32 0 32 C0 21.44 0 10.88 0 0 Z " fill="#0C1C0C" transform="translate(31,255)"/>
<path d="M0 0 C10.56 0 21.12 0 32 0 C32 10.56 32 21.12 32 32 C21.44 32 10.88 32 0 32 C0 21.44 0 10.88 0 0 Z " fill="#383838" transform="translate(415,223)"/>
<path d="M0 0 C10.56 0 21.12 0 32 0 C32 10.56 32 21.12 32 32 C21.44 32 10.88 32 0 32 C0 21.44 0 10.88 0 0 Z " fill="#888888" transform="translate(351,223)"/>
<path d="M0 0 C10.56 0 21.12 0 32 0 C32 10.56 32 21.12 32 32 C21.44 32 10.88 32 0 32 C0 21.44 0 10.88 0 0 Z " fill="#373737" transform="translate(319,223)"/>
<path d="M0 0 C10.56 0 21.12 0 32 0 C32 10.56 32 21.12 32 32 C21.44 32 10.88 32 0 32 C0 21.44 0 10.88 0 0 Z " fill="#1A3B1A" transform="translate(287,223)"/>
<path d="M0 0 C10.56 0 21.12 0 32 0 C32 10.56 32 21.12 32 32 C21.44 32 10.88 32 0 32 C0 21.44 0 10.88 0 0 Z " fill="#1B3F1B" transform="translate(223,223)"/>
<path d="M0 0 C10.56 0 21.12 0 32 0 C32 10.56 32 21.12 32 32 C21.44 32 10.88 32 0 32 C0 21.44 0 10.88 0 0 Z " fill="#B1B1B1" transform="translate(159,223)"/>
<path d="M0 0 C10.56 0 21.12 0 32 0 C32 10.56 32 21.12 32 32 C21.44 32 10.88 32 0 32 C0 21.44 0 10.88 0 0 Z " fill="#102510" transform="translate(63,223)"/>
<path d="M0 0 C10.56 0 21.12 0 32 0 C32 10.56 32 21.12 32 32 C21.44 32 10.88 32 0 32 C0 21.44 0 10.88 0 0 Z " fill="#2B622B" transform="translate(447,191)"/>
<path d="M0 0 C10.56 0 21.12 0 32 0 C32 10.56 32 21.12 32 32 C21.44 32 10.88 32 0 32 C0 21.44 0 10.88 0 0 Z " fill="#7F7F7F" transform="translate(415,191)"/>
<path d="M0 0 C10.56 0 21.12 0 32 0 C32 10.56 32 21.12 32 32 C21.44 32 10.88 32 0 32 C0 21.44 0 10.88 0 0 Z " fill="#727272" transform="translate(383,191)"/>
<path d="M0 0 C10.56 0 21.12 0 32 0 C32 10.56 32 21.12 32 32 C21.44 32 10.88 32 0 32 C0 21.44 0 10.88 0 0 Z " fill="#2B632B" transform="translate(351,191)"/>
<path d="M0 0 C10.56 0 21.12 0 32 0 C32 10.56 32 21.12 32 32 C21.44 32 10.88 32 0 32 C0 21.44 0 10.88 0 0 Z " fill="#316F31" transform="translate(287,191)"/>
<path d="M0 0 C10.56 0 21.12 0 32 0 C32 10.56 32 21.12 32 32 C21.44 32 10.88 32 0 32 C0 21.44 0 10.88 0 0 Z " fill="#383838" transform="translate(191,191)"/>
<path d="M0 0 C10.56 0 21.12 0 32 0 C32 10.56 32 21.12 32 32 C21.44 32 10.88 32 0 32 C0 21.44 0 10.88 0 0 Z " fill="#132B13" transform="translate(159,191)"/>
<path d="M0 0 C10.56 0 21.12 0 32 0 C32 10.56 32 21.12 32 32 C21.44 32 10.88 32 0 32 C0 21.44 0 10.88 0 0 Z " fill="#2B632B" transform="translate(63,191)"/>
<path d="M0 0 C10.56 0 21.12 0 32 0 C32 10.56 32 21.12 32 32 C21.44 32 10.88 32 0 32 C0 21.44 0 10.88 0 0 Z " fill="#102410" transform="translate(447,159)"/>
<path d="M0 0 C10.56 0 21.12 0 32 0 C32 10.56 32 21.12 32 32 C21.44 32 10.88 32 0 32 C0 21.44 0 10.88 0 0 Z " fill="#636363" transform="translate(383,159)"/>
<path d="M0 0 C10.56 0 21.12 0 32 0 C32 10.56 32 21.12 32 32 C21.44 32 10.88 32 0 32 C0 21.44 0 10.88 0 0 Z " fill="#C4C4C4" transform="translate(287,159)"/>
<path d="M0 0 C10.56 0 21.12 0 32 0 C32 10.56 32 21.12 32 32 C21.44 32 10.88 32 0 32 C0 21.44 0 10.88 0 0 Z " fill="#3A843A" transform="translate(255,159)"/>
<path d="M0 0 C10.56 0 21.12 0 32 0 C32 10.56 32 21.12 32 32 C21.44 32 10.88 32 0 32 C0 21.44 0 10.88 0 0 Z " fill="#122B12" transform="translate(223,159)"/>
<path d="M0 0 C10.56 0 21.12 0 32 0 C32 10.56 32 21.12 32 32 C21.44 32 10.88 32 0 32 C0 21.44 0 10.88 0 0 Z " fill="#7F7F7F" transform="translate(191,159)"/>
<path d="M0 0 C10.56 0 21.12 0 32 0 C32 10.56 32 21.12 32 32 C21.44 32 10.88 32 0 32 C0 21.44 0 10.88 0 0 Z " fill="#295E29" transform="translate(127,159)"/>
<path d="M0 0 C10.56 0 21.12 0 32 0 C32 10.56 32 21.12 32 32 C21.44 32 10.88 32 0 32 C0 21.44 0 10.88 0 0 Z " fill="#858585" transform="translate(31,159)"/>
<path d="M0 0 C10.56 0 21.12 0 32 0 C32 10.56 32 21.12 32 32 C21.44 32 10.88 32 0 32 C0 21.44 0 10.88 0 0 Z " fill="#AAAAAA" transform="translate(447,127)"/>
<path d="M0 0 C10.56 0 21.12 0 32 0 C32 10.56 32 21.12 32 32 C21.44 32 10.88 32 0 32 C0 21.44 0 10.88 0 0 Z " fill="#7C7C7C" transform="translate(415,127)"/>
<path d="M0 0 C10.56 0 21.12 0 32 0 C32 10.56 32 21.12 32 32 C21.44 32 10.88 32 0 32 C0 21.44 0 10.88 0 0 Z " fill="#357935" transform="translate(351,127)"/>
<path d="M0 0 C10.56 0 21.12 0 32 0 C32 10.56 32 21.12 32 32 C21.44 32 10.88 32 0 32 C0 21.44 0 10.88 0 0 Z " fill="#9E9E9E" transform="translate(319,127)"/>
<path d="M0 0 C10.56 0 21.12 0 32 0 C32 10.56 32 21.12 32 32 C21.44 32 10.88 32 0 32 C0 21.44 0 10.88 0 0 Z " fill="#387F38" transform="translate(287,127)"/>
<path d="M0 0 C10.56 0 21.12 0 32 0 C32 10.56 32 21.12 32 32 C21.44 32 10.88 32 0 32 C0 21.44 0 10.88 0 0 Z " fill="#3D3D3D" transform="translate(223,127)"/>
<path d="M0 0 C10.56 0 21.12 0 32 0 C32 10.56 32 21.12 32 32 C21.44 32 10.88 32 0 32 C0 21.44 0 10.88 0 0 Z " fill="#5C5C5C" transform="translate(63,127)"/>
<path d="M0 0 C10.56 0 21.12 0 32 0 C32 10.56 32 21.12 32 32 C21.44 32 10.88 32 0 32 C0 21.44 0 10.88 0 0 Z " fill="#A9A9A9" transform="translate(415,95)"/>
<path d="M0 0 C10.56 0 21.12 0 32 0 C32 10.56 32 21.12 32 32 C21.44 32 10.88 32 0 32 C0 21.44 0 10.88 0 0 Z " fill="#3D3D3D" transform="translate(351,95)"/>
<path d="M0 0 C10.56 0 21.12 0 32 0 C32 10.56 32 21.12 32 32 C21.44 32 10.88 32 0 32 C0 21.44 0 10.88 0 0 Z " fill="#383838" transform="translate(255,95)"/>
<path d="M0 0 C10.56 0 21.12 0 32 0 C32 10.56 32 21.12 32 32 C21.44 32 10.88 32 0 32 C0 21.44 0 10.88 0 0 Z " fill="#7F7F7F" transform="translate(223,95)"/>
<path d="M0 0 C10.56 0 21.12 0 32 0 C32 10.56 32 21.12 32 32 C21.44 32 10.88 32 0 32 C0 21.44 0 10.88 0 0 Z " fill="#B8B8B8" transform="translate(127,95)"/>
<path d="M0 0 C10.56 0 21.12 0 32 0 C32 10.56 32 21.12 32 32 C21.44 32 10.88 32 0 32 C0 21.44 0 10.88 0 0 Z " fill="#183818" transform="translate(31,95)"/>
<path d="M0 0 C10.56 0 21.12 0 32 0 C32 10.56 32 21.12 32 32 C21.44 32 10.88 32 0 32 C0 21.44 0 10.88 0 0 Z " fill="#132B13" transform="translate(383,63)"/>
<path d="M0 0 C10.56 0 21.12 0 32 0 C32 10.56 32 21.12 32 32 C21.44 32 10.88 32 0 32 C0 21.44 0 10.88 0 0 Z " fill="#0D1D0D" transform="translate(287,63)"/>
<path d="M0 0 C10.56 0 21.12 0 32 0 C32 10.56 32 21.12 32 32 C21.44 32 10.88 32 0 32 C0 21.44 0 10.88 0 0 Z " fill="#2D662D" transform="translate(223,63)"/>
<path d="M0 0 C10.56 0 21.12 0 32 0 C32 10.56 32 21.12 32 32 C21.44 32 10.88 32 0 32 C0 21.44 0 10.88 0 0 Z " fill="#B1B1B1" transform="translate(191,63)"/>
<path d="M0 0 C10.56 0 21.12 0 32 0 C32 10.56 32 21.12 32 32 C21.44 32 10.88 32 0 32 C0 21.44 0 10.88 0 0 Z " fill="#3D8A3D" transform="translate(159,63)"/>
<path d="M0 0 C10.56 0 21.12 0 32 0 C32 10.56 32 21.12 32 32 C21.44 32 10.88 32 0 32 C0 21.44 0 10.88 0 0 Z " fill="#102410" transform="translate(95,63)"/>
<path d="M0 0 C10.56 0 21.12 0 32 0 C32 10.56 32 21.12 32 32 C21.44 32 10.88 32 0 32 C0 21.44 0 10.88 0 0 Z " fill="#6F6F6F" transform="translate(447,31)"/>
<path d="M0 0 C10.56 0 21.12 0 32 0 C32 10.56 32 21.12 32 32 C21.44 32 10.88 32 0 32 C0 21.44 0 10.88 0 0 Z " fill="#142D14" transform="translate(415,31)"/>
<path d="M0 0 C10.56 0 21.12 0 32 0 C32 10.56 32 21.12 32 32 C21.44 32 10.88 32 0 32 C0 21.44 0 10.88 0 0 Z " fill="#7F7F7F" transform="translate(287,31)"/>
<path d="M0 0 C10.56 0 21.12 0 32 0 C32 10.56 32 21.12 32 32 C21.44 32 10.88 32 0 32 C0 21.44 0 10.88 0 0 Z " fill="#1F471F" transform="translate(255,31)"/>
<path d="M0 0 C10.56 0 21.12 0 32 0 C32 10.56 32 21.12 32 32 C21.44 32 10.88 32 0 32 C0 21.44 0 10.88 0 0 Z " fill="#2C2C2C" transform="translate(127,31)"/>
<path d="M0 0 C10.56 0 21.12 0 32 0 C32 10.56 32 21.12 32 32 C21.44 32 10.88 32 0 32 C0 21.44 0 10.88 0 0 Z " fill="#686868" transform="translate(63,31)"/>
<path d="M0 0 C10.23 0 20.46 0 31 0 C31 10.56 31 21.12 31 32 C20.77 32 10.54 32 0 32 C0 21.44 0 10.88 0 0 Z " fill="#B8B8B8" transform="translate(0,415)"/>
<path d="M0 0 C10.23 0 20.46 0 31 0 C31 10.56 31 21.12 31 32 C20.77 32 10.54 32 0 32 C0 21.44 0 10.88 0 0 Z " fill="#5C5C5C" transform="translate(0,319)"/>
<path d="M0 0 C10.23 0 20.46 0 31 0 C31 10.56 31 21.12 31 32 C20.77 32 10.54 32 0 32 C0 21.44 0 10.88 0 0 Z " fill="#8B8B8B" transform="translate(0,287)"/>
<path d="M0 0 C10.23 0 20.46 0 31 0 C31 10.56 31 21.12 31 32 C20.77 32 10.54 32 0 32 C0 21.44 0 10.88 0 0 Z " fill="#727272" transform="translate(0,159)"/>
<path d="M0 0 C10.23 0 20.46 0 31 0 C31 10.56 31 21.12 31 32 C20.77 32 10.54 32 0 32 C0 21.44 0 10.88 0 0 Z " fill="#1F461F" transform="translate(0,63)"/>
<path d="M0 0 C10.56 0 21.12 0 32 0 C32 10.23 32 20.46 32 31 C21.44 31 10.88 31 0 31 C0 20.77 0 10.54 0 0 Z " fill="#B4B4B4" transform="translate(447,0)"/>
<path d="M0 0 C10.56 0 21.12 0 32 0 C32 10.23 32 20.46 32 31 C21.44 31 10.88 31 0 31 C0 20.77 0 10.54 0 0 Z " fill="#5C5C5C" transform="translate(415,0)"/>
<path d="M0 0 C10.56 0 21.12 0 32 0 C32 10.23 32 20.46 32 31 C21.44 31 10.88 31 0 31 C0 20.77 0 10.54 0 0 Z " fill="#818181" transform="translate(383,0)"/>
<path d="M0 0 C10.56 0 21.12 0 32 0 C32 10.23 32 20.46 32 31 C21.44 31 10.88 31 0 31 C0 20.77 0 10.54 0 0 Z " fill="#5C5C5C" transform="translate(255,0)"/>
<path d="M0 0 C10.56 0 21.12 0 32 0 C32 10.23 32 20.46 32 31 C21.44 31 10.88 31 0 31 C0 20.77 0 10.54 0 0 Z " fill="#949494" transform="translate(127,0)"/>
<path d="M0 0 C10.56 0 21.12 0 32 0 C32 10.23 32 20.46 32 31 C21.44 31 10.88 31 0 31 C0 20.77 0 10.54 0 0 Z " fill="#A6A6A6" transform="translate(95,0)"/>
</svg>
