<?xml version="1.0" encoding="UTF-8"?>
<svg version="1.1" xmlns="http://www.w3.org/2000/svg" width="512" height="512">
<path d="M0 0 C168.96 0 337.92 0 512 0 C512 168.96 512 337.92 512 512 C343.04 512 174.08 512 0 512 C0 343.04 0 174.08 0 0 Z " fill="#61A59A" transform="translate(0,0)"/>
<path d="M0 0 C147.51 0 295.02 0 447 0 C447 10.23 447 20.46 447 31 C394.2 31 341.4 31 287 31 C287 73.24 287 115.48 287 159 C276.44 159 265.88 159 255 159 C255 116.76 255 74.52 255 31 C244.44 31 233.88 31 223 31 C223 52.12 223 73.24 223 95 C201.88 95 180.76 95 159 95 C159 84.44 159 73.88 159 63 C148.44 63 137.88 63 127 63 C127 73.56 127 84.12 127 95 C116.44 95 105.88 95 95 95 C95 105.56 95 116.12 95 127 C116.12 127 137.24 127 159 127 C159 169.24 159 211.48 159 255 C169.56 255 180.12 255 191 255 C191 244.44 191 233.88 191 223 C201.56 223 212.12 223 223 223 C223 212.44 223 201.88 223 191 C233.56 191 244.12 191 255 191 C255 201.56 255 212.12 255 223 C265.56 223 276.12 223 287 223 C287 233.56 287 244.12 287 255 C297.56 255 308.12 255 319 255 C319 276.12 319 297.24 319 319 C308.44 319 297.88 319 287 319 C287 329.56 287 340.12 287 351 C276.44 351 265.88 351 255 351 C255 329.88 255 308.76 255 287 C233.88 287 212.76 287 191 287 C191 297.56 191 308.12 191 319 C180.44 319 169.88 319 159 319 C159 361.24 159 403.48 159 447 C148.44 447 137.88 447 127 447 C127 394.2 127 341.4 127 287 C116.44 287 105.88 287 95 287 C95 350.36 95 413.72 95 479 C84.44 479 73.88 479 63 479 C63 468.44 63 457.88 63 447 C52.44 447 41.88 447 31 447 C31 457.56 31 468.12 31 479 C20.77 479 10.54 479 0 479 C0 320.93 0 162.86 0 0 Z " fill="#5AAFA4" transform="translate(0,0)"/>
<path d="M0 0 C10.56 0 21.12 0 32 0 C32 73.59 32 147.18 32 223 C21.44 223 10.88 223 0 223 C0 212.44 0 201.88 0 191 C-10.56 191 -21.12 191 -32 191 C-32 201.56 -32 212.12 -32 223 C-42.56 223 -53.12 223 -64 223 C-64 233.56 -64 244.12 -64 255 C-74.56 255 -85.12 255 -96 255 C-96 244.44 -96 233.88 -96 223 C-127.68 223 -159.36 223 -192 223 C-192 212.44 -192 201.88 -192 191 C-202.56 191 -213.12 191 -224 191 C-224 201.56 -224 212.12 -224 223 C-234.56 223 -245.12 223 -256 223 C-256 233.56 -256 244.12 -256 255 C-266.56 255 -277.12 255 -288 255 C-288 212.76 -288 170.52 -288 127 C-309.12 127 -330.24 127 -352 127 C-352 116.44 -352 105.88 -352 95 C-341.44 95 -330.88 95 -320 95 C-320 84.44 -320 73.88 -320 63 C-309.44 63 -298.88 63 -288 63 C-288 73.56 -288 84.12 -288 95 C-266.88 95 -245.76 95 -224 95 C-224 73.88 -224 52.76 -224 31 C-213.44 31 -202.88 31 -192 31 C-192 73.24 -192 115.48 -192 159 C-181.44 159 -170.88 159 -160 159 C-160 116.76 -160 74.52 -160 31 C-107.2 31 -54.4 31 0 31 C0 20.77 0 10.54 0 0 Z " fill="#5AAEA3" transform="translate(447,0)"/>
<path d="M0 0 C147.51 0 295.02 0 447 0 C447 10.23 447 20.46 447 31 C394.2 31 341.4 31 287 31 C287 73.24 287 115.48 287 159 C276.44 159 265.88 159 255 159 C255 116.76 255 74.52 255 31 C244.44 31 233.88 31 223 31 C223 52.12 223 73.24 223 95 C201.88 95 180.76 95 159 95 C159 84.44 159 73.88 159 63 C148.44 63 137.88 63 127 63 C127 73.56 127 84.12 127 95 C116.44 95 105.88 95 95 95 C95 105.56 95 116.12 95 127 C84.44 127 73.88 127 63 127 C63 148.12 63 169.24 63 191 C52.44 191 41.88 191 31 191 C31 254.36 31 317.72 31 383 C20.77 383 10.54 383 0 383 C0 256.61 0 130.22 0 0 Z " fill="#6EB9AE" transform="translate(0,0)"/>
<path d="M0 0 C10.89 0 21.78 0 33 0 C33 168.96 33 337.92 33 512 C-135.96 512 -304.92 512 -479 512 C-479 501.11 -479 490.22 -479 479 C-468.77 479 -458.54 479 -448 479 C-448 468.44 -448 457.88 -448 447 C-437.44 447 -426.88 447 -416 447 C-416 457.56 -416 468.12 -416 479 C-405.44 479 -394.88 479 -384 479 C-384 415.64 -384 352.28 -384 287 C-373.44 287 -362.88 287 -352 287 C-352 350.36 -352 413.72 -352 479 C-278.08 479 -204.16 479 -128 479 C-128 468.44 -128 457.88 -128 447 C-117.44 447 -106.88 447 -96 447 C-96 457.56 -96 468.12 -96 479 C-74.88 479 -53.76 479 -32 479 C-32 468.44 -32 457.88 -32 447 C-21.44 447 -10.88 447 0 447 C0 299.49 0 151.98 0 0 Z " fill="#43846E" transform="translate(479,0)"/>
<path d="M0 0 C147.51 0 295.02 0 447 0 C447 10.23 447 20.46 447 31 C394.2 31 341.4 31 287 31 C287 73.24 287 115.48 287 159 C276.44 159 265.88 159 255 159 C255 116.76 255 74.52 255 31 C181.08 31 107.16 31 31 31 C31 52.12 31 73.24 31 95 C20.77 95 10.54 95 0 95 C0 63.65 0 32.3 0 0 Z " fill="#95CFC7" transform="translate(0,0)"/>
<path d="M0 0 C10.56 0 21.12 0 32 0 C32 42.24 32 84.48 32 128 C42.56 128 53.12 128 64 128 C64 149.12 64 170.24 64 192 C53.44 192 42.88 192 32 192 C32 181.44 32 170.88 32 160 C21.44 160 10.88 160 0 160 C0 170.56 0 181.12 0 192 C-10.56 192 -21.12 192 -32 192 C-32 202.56 -32 213.12 -32 224 C-42.56 224 -53.12 224 -64 224 C-64 181.76 -64 139.52 -64 96 C-85.12 96 -106.24 96 -128 96 C-128 85.44 -128 74.88 -128 64 C-117.44 64 -106.88 64 -96 64 C-96 53.44 -96 42.88 -96 32 C-85.44 32 -74.88 32 -64 32 C-64 42.56 -64 53.12 -64 64 C-42.88 64 -21.76 64 0 64 C0 42.88 0 21.76 0 0 Z " fill="#5AAFA4" transform="translate(223,31)"/>
<path d="M0 0 C10.56 0 21.12 0 32 0 C32 63.36 32 126.72 32 192 C21.44 192 10.88 192 0 192 C0 202.56 0 213.12 0 224 C-21.12 224 -42.24 224 -64 224 C-64 160.64 -64 97.28 -64 32 C-42.88 32 -21.76 32 0 32 C0 21.44 0 10.88 0 0 Z " fill="#5CABA0" transform="translate(447,255)"/>
<path d="M0 0 C10.56 0 21.12 0 32 0 C32 10.56 32 21.12 32 32 C42.56 32 53.12 32 64 32 C64 42.56 64 53.12 64 64 C74.56 64 85.12 64 96 64 C96 85.12 96 106.24 96 128 C85.44 128 74.88 128 64 128 C64 138.56 64 149.12 64 160 C53.44 160 42.88 160 32 160 C32 138.88 32 117.76 32 96 C10.88 96 -10.24 96 -32 96 C-32 106.56 -32 117.12 -32 128 C-42.56 128 -53.12 128 -64 128 C-64 170.24 -64 212.48 -64 256 C-74.56 256 -85.12 256 -96 256 C-96 203.2 -96 150.4 -96 96 C-85.44 96 -74.88 96 -64 96 C-64 85.44 -64 74.88 -64 64 C-53.44 64 -42.88 64 -32 64 C-32 53.44 -32 42.88 -32 32 C-21.44 32 -10.88 32 0 32 C0 21.44 0 10.88 0 0 Z " fill="#6EB9AE" transform="translate(223,191)"/>
<path d="M0 0 C10.56 0 21.12 0 32 0 C32 10.56 32 21.12 32 32 C42.56 32 53.12 32 64 32 C64 42.56 64 53.12 64 64 C53.44 64 42.88 64 32 64 C32 74.56 32 85.12 32 96 C10.88 96 -10.24 96 -32 96 C-32 148.8 -32 201.6 -32 256 C-42.56 256 -53.12 256 -64 256 C-64 234.88 -64 213.76 -64 192 C-74.56 192 -85.12 192 -96 192 C-96 181.44 -96 170.88 -96 160 C-85.44 160 -74.88 160 -64 160 C-64 138.88 -64 117.76 -64 96 C-74.56 96 -85.12 96 -96 96 C-96 85.44 -96 74.88 -96 64 C-106.56 64 -117.12 64 -128 64 C-128 53.44 -128 42.88 -128 32 C-106.88 32 -85.76 32 -64 32 C-64 42.56 -64 53.12 -64 64 C-53.44 64 -42.88 64 -32 64 C-32 53.44 -32 42.88 -32 32 C-21.44 32 -10.88 32 0 32 C0 21.44 0 10.88 0 0 Z " fill="#61A59A" transform="translate(415,191)"/>
<path d="M0 0 C10.56 0 21.12 0 32 0 C32 31.68 32 63.36 32 96 C42.56 96 53.12 96 64 96 C64 148.8 64 201.6 64 256 C53.44 256 42.88 256 32 256 C32 245.44 32 234.88 32 224 C21.44 224 10.88 224 0 224 C0 234.56 0 245.12 0 256 C-10.23 256 -20.46 256 -31 256 C-31 224.32 -31 192.64 -31 160 C-20.77 160 -10.54 160 0 160 C0 107.2 0 54.4 0 0 Z " fill="#61A59A" transform="translate(31,223)"/>
<path d="M0 0 C21.12 0 42.24 0 64 0 C64 31.68 64 63.36 64 96 C74.56 96 85.12 96 96 96 C96 117.12 96 138.24 96 160 C85.44 160 74.88 160 64 160 C64 149.44 64 138.88 64 128 C53.44 128 42.88 128 32 128 C32 149.12 32 170.24 32 192 C21.44 192 10.88 192 0 192 C0 128.64 0 65.28 0 0 Z " fill="#6EB9AE" transform="translate(287,31)"/>
<path d="M0 0 C10.56 0 21.12 0 32 0 C32 74.25 32 148.5 32 225 C-9.91 225 -51.82 225 -95 225 C-95 214.11 -95 203.22 -95 192 C-84.77 192 -74.54 192 -64 192 C-64 181.44 -64 170.88 -64 160 C-53.44 160 -42.88 160 -32 160 C-32 170.56 -32 181.12 -32 192 C-21.44 192 -10.88 192 0 192 C0 128.64 0 65.28 0 0 Z " fill="#41816A" transform="translate(95,287)"/>
<path d="M0 0 C21.12 0 42.24 0 64 0 C64 21.12 64 42.24 64 64 C53.44 64 42.88 64 32 64 C32 74.56 32 85.12 32 96 C21.44 96 10.88 96 0 96 C0 106.56 0 117.12 0 128 C-10.56 128 -21.12 128 -32 128 C-32 96.32 -32 64.64 -32 32 C-21.44 32 -10.88 32 0 32 C0 21.44 0 10.88 0 0 Z " fill="#5FB1A6" transform="translate(191,287)"/>
<path d="M0 0 C10.56 0 21.12 0 32 0 C32 42.24 32 84.48 32 128 C42.56 128 53.12 128 64 128 C64 149.12 64 170.24 64 192 C53.44 192 42.88 192 32 192 C32 181.44 32 170.88 32 160 C21.44 160 10.88 160 0 160 C0 107.2 0 54.4 0 0 Z " fill="#41816A" transform="translate(223,31)"/>
<path d="M0 0 C21.12 0 42.24 0 64 0 C64 42.24 64 84.48 64 128 C53.44 128 42.88 128 32 128 C32 117.44 32 106.88 32 96 C21.44 96 10.88 96 0 96 C0 64.32 0 32.64 0 0 Z " fill="#6EB9AE" transform="translate(95,127)"/>
<path d="M0 0 C20.79 0 41.58 0 63 0 C63 10.56 63 21.12 63 32 C73.56 32 84.12 32 95 32 C95 53.12 95 74.24 95 96 C84.44 96 73.88 96 63 96 C63 85.44 63 74.88 63 64 C52.44 64 41.88 64 31 64 C31 74.56 31 85.12 31 96 C20.77 96 10.54 96 0 96 C0 64.32 0 32.64 0 0 Z " fill="#5AAFA4" transform="translate(0,383)"/>
<path d="M0 0 C10.23 0 20.46 0 31 0 C31 73.92 31 147.84 31 224 C20.77 224 10.54 224 0 224 C0 150.08 0 76.16 0 0 Z " fill="#82C5BC" transform="translate(0,159)"/>
<path d="M0 0 C10.56 0 21.12 0 32 0 C32 52.8 32 105.6 32 160 C21.44 160 10.88 160 0 160 C0 138.88 0 117.76 0 96 C-10.56 96 -21.12 96 -32 96 C-32 85.44 -32 74.88 -32 64 C-21.44 64 -10.88 64 0 64 C0 42.88 0 21.76 0 0 Z " fill="#529983" transform="translate(351,287)"/>
<path d="M0 0 C10.56 0 21.12 0 32 0 C32 10.56 32 21.12 32 32 C53.12 32 74.24 32 96 32 C96 53.12 96 74.24 96 96 C85.44 96 74.88 96 64 96 C64 85.44 64 74.88 64 64 C32.32 64 0.64 64 -32 64 C-32 53.44 -32 42.88 -32 32 C-21.44 32 -10.88 32 0 32 C0 21.44 0 10.88 0 0 Z " fill="#5EA89D" transform="translate(127,63)"/>
<path d="M0 0 C10.56 0 21.12 0 32 0 C32 31.68 32 63.36 32 96 C21.44 96 10.88 96 0 96 C0 85.44 0 74.88 0 64 C-21.12 64 -42.24 64 -64 64 C-64 53.44 -64 42.88 -64 32 C-42.88 32 -21.76 32 0 32 C0 21.44 0 10.88 0 0 Z " fill="#5AAFA4" transform="translate(319,383)"/>
<path d="M0 0 C10.56 0 21.12 0 32 0 C32 52.8 32 105.6 32 160 C21.44 160 10.88 160 0 160 C0 107.2 0 54.4 0 0 Z " fill="#95CFC7" transform="translate(383,287)"/>
<path d="M0 0 C10.56 0 21.12 0 32 0 C32 21.12 32 42.24 32 64 C21.44 64 10.88 64 0 64 C0 74.56 0 85.12 0 96 C-21.12 96 -42.24 96 -64 96 C-64 85.44 -64 74.88 -64 64 C-53.44 64 -42.88 64 -32 64 C-32 53.44 -32 42.88 -32 32 C-21.44 32 -10.88 32 0 32 C0 21.44 0 10.88 0 0 Z " fill="#5BACA1" transform="translate(319,287)"/>
<path d="M0 0 C10.56 0 21.12 0 32 0 C32 52.8 32 105.6 32 160 C21.44 160 10.88 160 0 160 C0 107.2 0 54.4 0 0 Z " fill="#95CFC7" transform="translate(127,287)"/>
<path d="M0 0 C10.56 0 21.12 0 32 0 C32 52.8 32 105.6 32 160 C21.44 160 10.88 160 0 160 C0 107.2 0 54.4 0 0 Z " fill="#529983" transform="translate(95,287)"/>
<path d="M0 0 C10.56 0 21.12 0 32 0 C32 31.35 32 62.7 32 95 C21.44 95 10.88 95 0 95 C0 84.44 0 73.88 0 63 C-21.12 63 -42.24 63 -64 63 C-64 52.44 -64 41.88 -64 31 C-42.88 31 -21.76 31 0 31 C0 20.77 0 10.54 0 0 Z " fill="#67B5AA" transform="translate(447,0)"/>
<path d="M0 0 C21.45 0 42.9 0 65 0 C65 21.45 65 42.9 65 65 C43.55 65 22.1 65 0 65 C0 43.55 0 22.1 0 0 Z " fill="#468974" transform="translate(447,447)"/>
<path d="M0 0 C10.56 0 21.12 0 32 0 C32 21.12 32 42.24 32 64 C21.44 64 10.88 64 0 64 C0 74.56 0 85.12 0 96 C-10.56 96 -21.12 96 -32 96 C-32 74.88 -32 53.76 -32 32 C-21.44 32 -10.88 32 0 32 C0 21.44 0 10.88 0 0 Z " fill="#6EB9AE" transform="translate(447,255)"/>
<path d="M0 0 C10.56 0 21.12 0 32 0 C32 21.45 32 42.9 32 65 C11.21 65 -9.58 65 -31 65 C-31 54.11 -31 43.22 -31 32 C-20.77 32 -10.54 32 0 32 C0 21.44 0 10.88 0 0 Z " fill="#468974" transform="translate(31,447)"/>
<path d="M0 0 C21.12 0 42.24 0 64 0 C64 21.12 64 42.24 64 64 C53.44 64 42.88 64 32 64 C32 53.44 32 42.88 32 32 C21.44 32 10.88 32 0 32 C0 21.44 0 10.88 0 0 Z " fill="#61A59A" transform="translate(287,223)"/>
<path d="M0 0 C10.56 0 21.12 0 32 0 C32 31.68 32 63.36 32 96 C21.44 96 10.88 96 0 96 C0 64.32 0 32.64 0 0 Z " fill="#529983" transform="translate(223,31)"/>
<path d="M0 0 C10.56 0 21.12 0 32 0 C32 31.68 32 63.36 32 96 C21.44 96 10.88 96 0 96 C0 64.32 0 32.64 0 0 Z " fill="#5AAFA4" transform="translate(31,31)"/>
<path d="M0 0 C10.23 0 20.46 0 31 0 C31 31.68 31 63.36 31 96 C20.77 96 10.54 96 0 96 C0 64.32 0 32.64 0 0 Z " fill="#6EB9AE" transform="translate(0,383)"/>
<path d="M0 0 C21.12 0 42.24 0 64 0 C64 10.89 64 21.78 64 33 C42.88 33 21.76 33 0 33 C0 22.11 0 11.22 0 0 Z " fill="#468974" transform="translate(127,479)"/>
<path d="M0 0 C10.89 0 21.78 0 33 0 C33 20.79 33 41.58 33 63 C22.11 63 11.22 63 0 63 C0 42.21 0 21.42 0 0 Z " fill="#468974" transform="translate(479,0)"/>
<path d="M0 0 C21.12 0 42.24 0 64 0 C64 10.56 64 21.12 64 32 C42.88 32 21.76 32 0 32 C0 21.44 0 10.88 0 0 Z " fill="#529983" transform="translate(255,447)"/>
<path d="M0 0 C21.12 0 42.24 0 64 0 C64 10.56 64 21.12 64 32 C42.88 32 21.76 32 0 32 C0 21.44 0 10.88 0 0 Z " fill="#5AAFA4" transform="translate(127,447)"/>
<path d="M0 0 C10.56 0 21.12 0 32 0 C32 21.12 32 42.24 32 64 C21.44 64 10.88 64 0 64 C0 42.88 0 21.76 0 0 Z " fill="#61A59A" transform="translate(415,351)"/>
<path d="M0 0 C10.56 0 21.12 0 32 0 C32 21.12 32 42.24 32 64 C21.44 64 10.88 64 0 64 C0 42.88 0 21.76 0 0 Z " fill="#6EB9AE" transform="translate(63,255)"/>
<path d="M0 0 C10.56 0 21.12 0 32 0 C32 21.12 32 42.24 32 64 C21.44 64 10.88 64 0 64 C0 42.88 0 21.76 0 0 Z " fill="#6EB9AE" transform="translate(447,159)"/>
<path d="M0 0 C10.56 0 21.12 0 32 0 C32 21.12 32 42.24 32 64 C21.44 64 10.88 64 0 64 C0 42.88 0 21.76 0 0 Z " fill="#61A59A" transform="translate(447,95)"/>
<path d="M0 0 C10.56 0 21.12 0 32 0 C32 21.12 32 42.24 32 64 C21.44 64 10.88 64 0 64 C0 42.88 0 21.76 0 0 Z " fill="#82C5BC" transform="translate(255,95)"/>
<path d="M0 0 C10.56 0 21.12 0 32 0 C32 21.12 32 42.24 32 64 C21.44 64 10.88 64 0 64 C0 42.88 0 21.76 0 0 Z " fill="#95CFC7" transform="translate(255,31)"/>
<path d="M0 0 C10.23 0 20.46 0 31 0 C31 21.12 31 42.24 31 64 C20.77 64 10.54 64 0 64 C0 42.88 0 21.76 0 0 Z " fill="#82C5BC" transform="translate(0,159)"/>
<path d="M0 0 C10.23 0 20.46 0 31 0 C31 21.12 31 42.24 31 64 C20.77 64 10.54 64 0 64 C0 42.88 0 21.76 0 0 Z " fill="#95CFC7" transform="translate(0,31)"/>
<path d="M0 0 C21.12 0 42.24 0 64 0 C64 10.23 64 20.46 64 31 C42.88 31 21.76 31 0 31 C0 20.77 0 10.54 0 0 Z " fill="#82C5BC" transform="translate(223,0)"/>
<path d="M0 0 C10.56 0 21.12 0 32 0 C32 10.89 32 21.78 32 33 C21.44 33 10.88 33 0 33 C0 22.11 0 11.22 0 0 Z " fill="#468974" transform="translate(255,479)"/>
<path d="M0 0 C10.89 0 21.78 0 33 0 C33 10.56 33 21.12 33 32 C22.11 32 11.22 32 0 32 C0 21.44 0 10.88 0 0 Z " fill="#468974" transform="translate(479,383)"/>
<path d="M0 0 C10.56 0 21.12 0 32 0 C32 10.56 32 21.12 32 32 C21.44 32 10.88 32 0 32 C0 21.44 0 10.88 0 0 Z " fill="#529983" transform="translate(447,447)"/>
<path d="M0 0 C10.56 0 21.12 0 32 0 C32 10.56 32 21.12 32 32 C21.44 32 10.88 32 0 32 C0 21.44 0 10.88 0 0 Z " fill="#41816A" transform="translate(351,447)"/>
<path d="M0 0 C10.56 0 21.12 0 32 0 C32 10.56 32 21.12 32 32 C21.44 32 10.88 32 0 32 C0 21.44 0 10.88 0 0 Z " fill="#61A59A" transform="translate(319,447)"/>
<path d="M0 0 C10.56 0 21.12 0 32 0 C32 10.56 32 21.12 32 32 C21.44 32 10.88 32 0 32 C0 21.44 0 10.88 0 0 Z " fill="#61A59A" transform="translate(63,447)"/>
<path d="M0 0 C10.56 0 21.12 0 32 0 C32 10.56 32 21.12 32 32 C21.44 32 10.88 32 0 32 C0 21.44 0 10.88 0 0 Z " fill="#529983" transform="translate(31,447)"/>
<path d="M0 0 C10.56 0 21.12 0 32 0 C32 10.56 32 21.12 32 32 C21.44 32 10.88 32 0 32 C0 21.44 0 10.88 0 0 Z " fill="#82C5BC" transform="translate(383,415)"/>
<path d="M0 0 C10.56 0 21.12 0 32 0 C32 10.56 32 21.12 32 32 C21.44 32 10.88 32 0 32 C0 21.44 0 10.88 0 0 Z " fill="#82C5BC" transform="translate(127,415)"/>
<path d="M0 0 C10.56 0 21.12 0 32 0 C32 10.56 32 21.12 32 32 C21.44 32 10.88 32 0 32 C0 21.44 0 10.88 0 0 Z " fill="#41816A" transform="translate(351,383)"/>
<path d="M0 0 C10.56 0 21.12 0 32 0 C32 10.56 32 21.12 32 32 C21.44 32 10.88 32 0 32 C0 21.44 0 10.88 0 0 Z " fill="#5AAFA4" transform="translate(159,383)"/>
<path d="M0 0 C10.56 0 21.12 0 32 0 C32 10.56 32 21.12 32 32 C21.44 32 10.88 32 0 32 C0 21.44 0 10.88 0 0 Z " fill="#5AAFA4" transform="translate(191,351)"/>
<path d="M0 0 C10.56 0 21.12 0 32 0 C32 10.56 32 21.12 32 32 C21.44 32 10.88 32 0 32 C0 21.44 0 10.88 0 0 Z " fill="#6EB9AE" transform="translate(159,351)"/>
<path d="M0 0 C10.56 0 21.12 0 32 0 C32 10.56 32 21.12 32 32 C21.44 32 10.88 32 0 32 C0 21.44 0 10.88 0 0 Z " fill="#82C5BC" transform="translate(127,351)"/>
<path d="M0 0 C10.56 0 21.12 0 32 0 C32 10.56 32 21.12 32 32 C21.44 32 10.88 32 0 32 C0 21.44 0 10.88 0 0 Z " fill="#61A59A" transform="translate(447,319)"/>
<path d="M0 0 C10.56 0 21.12 0 32 0 C32 10.56 32 21.12 32 32 C21.44 32 10.88 32 0 32 C0 21.44 0 10.88 0 0 Z " fill="#5AAFA4" transform="translate(159,319)"/>
<path d="M0 0 C10.56 0 21.12 0 32 0 C32 10.56 32 21.12 32 32 C21.44 32 10.88 32 0 32 C0 21.44 0 10.88 0 0 Z " fill="#5AAFA4" transform="translate(63,319)"/>
<path d="M0 0 C10.56 0 21.12 0 32 0 C32 10.56 32 21.12 32 32 C21.44 32 10.88 32 0 32 C0 21.44 0 10.88 0 0 Z " fill="#82C5BC" transform="translate(383,287)"/>
<path d="M0 0 C10.56 0 21.12 0 32 0 C32 10.56 32 21.12 32 32 C21.44 32 10.88 32 0 32 C0 21.44 0 10.88 0 0 Z " fill="#5AAFA4" transform="translate(319,287)"/>
<path d="M0 0 C10.56 0 21.12 0 32 0 C32 10.56 32 21.12 32 32 C21.44 32 10.88 32 0 32 C0 21.44 0 10.88 0 0 Z " fill="#5AAFA4" transform="translate(415,255)"/>
<path d="M0 0 C10.56 0 21.12 0 32 0 C32 10.56 32 21.12 32 32 C21.44 32 10.88 32 0 32 C0 21.44 0 10.88 0 0 Z " fill="#41816A" transform="translate(319,255)"/>
<path d="M0 0 C10.56 0 21.12 0 32 0 C32 10.56 32 21.12 32 32 C21.44 32 10.88 32 0 32 C0 21.44 0 10.88 0 0 Z " fill="#5AAFA4" transform="translate(287,255)"/>
<path d="M0 0 C10.56 0 21.12 0 32 0 C32 10.56 32 21.12 32 32 C21.44 32 10.88 32 0 32 C0 21.44 0 10.88 0 0 Z " fill="#95CFC7" transform="translate(159,255)"/>
<path d="M0 0 C10.56 0 21.12 0 32 0 C32 10.56 32 21.12 32 32 C21.44 32 10.88 32 0 32 C0 21.44 0 10.88 0 0 Z " fill="#529983" transform="translate(127,255)"/>
<path d="M0 0 C10.56 0 21.12 0 32 0 C32 10.56 32 21.12 32 32 C21.44 32 10.88 32 0 32 C0 21.44 0 10.88 0 0 Z " fill="#41816A" transform="translate(287,223)"/>
<path d="M0 0 C10.56 0 21.12 0 32 0 C32 10.56 32 21.12 32 32 C21.44 32 10.88 32 0 32 C0 21.44 0 10.88 0 0 Z " fill="#5AAFA4" transform="translate(255,223)"/>
<path d="M0 0 C10.56 0 21.12 0 32 0 C32 10.56 32 21.12 32 32 C21.44 32 10.88 32 0 32 C0 21.44 0 10.88 0 0 Z " fill="#82C5BC" transform="translate(191,223)"/>
<path d="M0 0 C10.56 0 21.12 0 32 0 C32 10.56 32 21.12 32 32 C21.44 32 10.88 32 0 32 C0 21.44 0 10.88 0 0 Z " fill="#529983" transform="translate(159,223)"/>
<path d="M0 0 C10.56 0 21.12 0 32 0 C32 10.56 32 21.12 32 32 C21.44 32 10.88 32 0 32 C0 21.44 0 10.88 0 0 Z " fill="#41816A" transform="translate(255,191)"/>
<path d="M0 0 C10.56 0 21.12 0 32 0 C32 10.56 32 21.12 32 32 C21.44 32 10.88 32 0 32 C0 21.44 0 10.88 0 0 Z " fill="#82C5BC" transform="translate(223,191)"/>
<path d="M0 0 C10.56 0 21.12 0 32 0 C32 10.56 32 21.12 32 32 C21.44 32 10.88 32 0 32 C0 21.44 0 10.88 0 0 Z " fill="#41816A" transform="translate(191,191)"/>
<path d="M0 0 C10.56 0 21.12 0 32 0 C32 10.56 32 21.12 32 32 C21.44 32 10.88 32 0 32 C0 21.44 0 10.88 0 0 Z " fill="#61A59A" transform="translate(159,191)"/>
<path d="M0 0 C10.56 0 21.12 0 32 0 C32 10.56 32 21.12 32 32 C21.44 32 10.88 32 0 32 C0 21.44 0 10.88 0 0 Z " fill="#82C5BC" transform="translate(447,159)"/>
<path d="M0 0 C10.56 0 21.12 0 32 0 C32 10.56 32 21.12 32 32 C21.44 32 10.88 32 0 32 C0 21.44 0 10.88 0 0 Z " fill="#6EB9AE" transform="translate(415,159)"/>
<path d="M0 0 C10.56 0 21.12 0 32 0 C32 10.56 32 21.12 32 32 C21.44 32 10.88 32 0 32 C0 21.44 0 10.88 0 0 Z " fill="#529983" transform="translate(255,159)"/>
<path d="M0 0 C10.56 0 21.12 0 32 0 C32 10.56 32 21.12 32 32 C21.44 32 10.88 32 0 32 C0 21.44 0 10.88 0 0 Z " fill="#61A59A" transform="translate(191,127)"/>
<path d="M0 0 C10.56 0 21.12 0 32 0 C32 10.56 32 21.12 32 32 C21.44 32 10.88 32 0 32 C0 21.44 0 10.88 0 0 Z " fill="#82C5BC" transform="translate(95,127)"/>
<path d="M0 0 C10.56 0 21.12 0 32 0 C32 10.56 32 21.12 32 32 C21.44 32 10.88 32 0 32 C0 21.44 0 10.88 0 0 Z " fill="#6EB9AE" transform="translate(383,95)"/>
<path d="M0 0 C10.56 0 21.12 0 32 0 C32 10.56 32 21.12 32 32 C21.44 32 10.88 32 0 32 C0 21.44 0 10.88 0 0 Z " fill="#5AAFA4" transform="translate(95,95)"/>
<path d="M0 0 C10.56 0 21.12 0 32 0 C32 10.56 32 21.12 32 32 C21.44 32 10.88 32 0 32 C0 21.44 0 10.88 0 0 Z " fill="#6EB9AE" transform="translate(447,63)"/>
<path d="M0 0 C10.56 0 21.12 0 32 0 C32 10.56 32 21.12 32 32 C21.44 32 10.88 32 0 32 C0 21.44 0 10.88 0 0 Z " fill="#5AAFA4" transform="translate(127,63)"/>
<path d="M0 0 C10.56 0 21.12 0 32 0 C32 10.56 32 21.12 32 32 C21.44 32 10.88 32 0 32 C0 21.44 0 10.88 0 0 Z " fill="#5AAFA4" transform="translate(351,31)"/>
<path d="M0 0 C10.56 0 21.12 0 32 0 C32 10.56 32 21.12 32 32 C21.44 32 10.88 32 0 32 C0 21.44 0 10.88 0 0 Z " fill="#41816A" transform="translate(223,31)"/>
<path d="M0 0 C10.56 0 21.12 0 32 0 C32 10.56 32 21.12 32 32 C21.44 32 10.88 32 0 32 C0 21.44 0 10.88 0 0 Z " fill="#5AAFA4" transform="translate(191,31)"/>
<path d="M0 0 C10.23 0 20.46 0 31 0 C31 10.56 31 21.12 31 32 C20.77 32 10.54 32 0 32 C0 21.44 0 10.88 0 0 Z " fill="#5AAFA4" transform="translate(0,447)"/>
<path d="M0 0 C10.23 0 20.46 0 31 0 C31 10.56 31 21.12 31 32 C20.77 32 10.54 32 0 32 C0 21.44 0 10.88 0 0 Z " fill="#95CFC7" transform="translate(0,287)"/>
<path d="M0 0 C10.23 0 20.46 0 31 0 C31 10.56 31 21.12 31 32 C20.77 32 10.54 32 0 32 C0 21.44 0 10.88 0 0 Z " fill="#6EB9AE" transform="translate(0,223)"/>
<path d="M0 0 C10.23 0 20.46 0 31 0 C31 10.56 31 21.12 31 32 C20.77 32 10.54 32 0 32 C0 21.44 0 10.88 0 0 Z " fill="#95CFC7" transform="translate(0,159)"/>
<path d="M0 0 C10.56 0 21.12 0 32 0 C32 10.23 32 20.46 32 31 C21.44 31 10.88 31 0 31 C0 20.77 0 10.54 0 0 Z " fill="#6EB9AE" transform="translate(447,0)"/>
<path d="M0 0 C10.56 0 21.12 0 32 0 C32 10.23 32 20.46 32 31 C21.44 31 10.88 31 0 31 C0 20.77 0 10.54 0 0 Z " fill="#82C5BC" transform="translate(415,0)"/>
<path d="M0 0 C10.56 0 21.12 0 32 0 C32 10.23 32 20.46 32 31 C21.44 31 10.88 31 0 31 C0 20.77 0 10.54 0 0 Z " fill="#6EB9AE" transform="translate(223,0)"/>
<path d="M0 0 C10.23 0 20.46 0 31 0 C31 10.23 31 20.46 31 31 C20.77 31 10.54 31 0 31 C0 20.77 0 10.54 0 0 Z " fill="#6EB9AE" transform="translate(0,0)"/>
</svg>
